ISO-10303-21;
HEADER;
FILE_DESCRIPTION (( 'STEP AP214' ),
    '1' );
FILE_NAME ('ERB-RD0R50X.STEP',
    '2022-08-16T15:49:44',
    ( '' ),
    ( '' ),
    'SwSTEP 2.0',
    'SolidWorks 2020',
    '' );
FILE_SCHEMA (( 'AUTOMOTIVE_DESIGN' ));
ENDSEC;

DATA;
#1 = LINE ( 'NONE', #389, #448 ) ;
#2 = EDGE_CURVE ( 'NONE', #15, #474, #712, .T. ) ;
#3 = VERTEX_POINT ( 'NONE', #314 ) ;
#4 = ORIENTED_EDGE ( 'NONE', *, *, #1112, .F. ) ;
#5 = CARTESIAN_POINT ( 'NONE',  ( 0.4250000000000003220, 0.4654999999999998583, 0.1666666666666657692 ) ) ;
#6 = CLOSED_SHELL ( 'NONE', ( #884, #722, #1205, #926, #1071, #153 ) ) ;
#7 = ORIENTED_EDGE ( 'NONE', *, *, #104, .F. ) ;
#8 = AXIS2_PLACEMENT_3D ( 'NONE', #1045, #192, #661 ) ;
#9 = VECTOR ( 'NONE', #614, 1000.000000000000000 ) ;
#10 = DIRECTION ( 'NONE',  ( -2.449293598294704442E-16, 1.000000000000000000, 0.000000000000000000 ) ) ;
#11 =( GEOMETRIC_REPRESENTATION_CONTEXT ( 3 ) GLOBAL_UNCERTAINTY_ASSIGNED_CONTEXT ( ( #522 ) ) GLOBAL_UNIT_ASSIGNED_CONTEXT ( ( #1074, #141, #916 ) ) REPRESENTATION_CONTEXT ( 'NONE', 'WORKASPACE' ) );
#12 = VERTEX_POINT ( 'NONE', #881 ) ;
#13 = EDGE_CURVE ( 'NONE', #1144, #15, #787, .T. ) ;
#14 = DIRECTION ( 'NONE',  ( 0.000000000000000000, 1.000000000000000000, 0.000000000000000000 ) ) ;
#15 = VERTEX_POINT ( 'NONE', #40 ) ;
#16 = DIRECTION ( 'NONE',  ( 1.000000000000000000, -1.502497467413392881E-17, 0.000000000000000000 ) ) ;
#17 = EDGE_CURVE ( 'NONE', #839, #1091, #1156, .T. ) ;
#18 = ORIENTED_EDGE ( 'NONE', *, *, #489, .T. ) ;
#19 = ADVANCED_FACE ( 'NONE', ( #33 ), #422, .F. ) ;
#20 = DIRECTION ( 'NONE',  ( 4.336808689942017243E-16, 1.000000000000000000, -0.000000000000000000 ) ) ;
#21 = ORIENTED_EDGE ( 'NONE', *, *, #387, .F. ) ;
#22 = CARTESIAN_POINT ( 'NONE',  ( -0.2499999999999996392, 0.4654999999999998583, -0.2500000000000000000 ) ) ;
#23 = PLANE ( 'NONE',  #629 ) ;
#24 = PLANE ( 'NONE',  #590 ) ;
#25 = LINE ( 'NONE', #774, #693 ) ;
#26 = VERTEX_POINT ( 'NONE', #500 ) ;
#27 = CARTESIAN_POINT ( 'NONE',  ( -0.2499999999999995282, 0.02450000000000000094, -0.2500000000000000000 ) ) ;
#28 = CLOSED_SHELL ( 'NONE', ( #230, #646, #435, #347, #47, #1146, #289, #746, #695, #763, #286, #1075, #19, #413 ) ) ;
#29 = EDGE_CURVE ( 'NONE', #490, #26, #878, .T. ) ;
#30 = VECTOR ( 'NONE', #1100, 1000.000000000000000 ) ;
#31 = DIRECTION ( 'NONE',  ( 1.000000000000000000, -4.336808689942017243E-16, -1.788933584601082711E-15 ) ) ;
#32 = VECTOR ( 'NONE', #1203, 1000.000000000000000 ) ;
#33 = FACE_OUTER_BOUND ( 'NONE', #516, .T. ) ;
#34 = VECTOR ( 'NONE', #779, 1000.000000000000000 ) ;
#35 = LINE ( 'NONE', #874, #183 ) ;
#36 = AXIS2_PLACEMENT_3D ( 'NONE', #1209, #577, #385 ) ;
#37 = ORIENTED_EDGE ( 'NONE', *, *, #1002, .T. ) ;
#38 =( NAMED_UNIT ( * ) SI_UNIT ( $, .STERADIAN. ) SOLID_ANGLE_UNIT ( ) );
#39 = FACE_OUTER_BOUND ( 'NONE', #981, .T. ) ;
#40 = CARTESIAN_POINT ( 'NONE',  ( -0.4754999999999995897, 0.02450000000000000441, -0.2500000000000000000 ) ) ;
#41 = LINE ( 'NONE', #1079, #1157 ) ;
#42 = VERTEX_POINT ( 'NONE', #796 ) ;
#43 = DIRECTION ( 'NONE',  ( 0.000000000000000000, 0.000000000000000000, 1.000000000000000000 ) ) ;
#44 = LINE ( 'NONE', #994, #984 ) ;
#45 = DIRECTION ( 'NONE',  ( 1.000000000000000000, 0.000000000000000000, 0.000000000000000000 ) ) ;
#46 = ORIENTED_EDGE ( 'NONE', *, *, #838, .T. ) ;
#47 = ADVANCED_FACE ( 'NONE', ( #1167 ), #24, .F. ) ;
#48 = DIRECTION ( 'NONE',  ( 0.000000000000000000, -0.000000000000000000, -1.000000000000000000 ) ) ;
#49 = EDGE_LOOP ( 'NONE', ( #817, #873, #940, #1048, #1162, #65, #683, #893 ) ) ;
#50 = DIRECTION ( 'NONE',  ( 1.000000000000000000, 0.000000000000000000, 0.000000000000000000 ) ) ;
#51 = DIRECTION ( 'NONE',  ( -0.000000000000000000, -0.000000000000000000, -1.000000000000000000 ) ) ;
#52 = AXIS2_PLACEMENT_3D ( 'NONE', #484, #198, #939 ) ;
#53 = DIRECTION ( 'NONE',  ( 0.000000000000000000, -1.000000000000000000, 0.000000000000000000 ) ) ;
#54 = ORIENTED_EDGE ( 'NONE', *, *, #825, .F. ) ;
#55 = EDGE_CURVE ( 'NONE', #15, #1120, #328, .T. ) ;
#56 = AXIS2_PLACEMENT_3D ( 'NONE', #573, #180, #194 ) ;
#57 = ORIENTED_EDGE ( 'NONE', *, *, #263, .F. ) ;
#58 = ORIENTED_EDGE ( 'NONE', *, *, #862, .F. ) ;
#59 = LINE ( 'NONE', #724, #466 ) ;
#60 = CARTESIAN_POINT ( 'NONE',  ( 0.4999999999999995559, -6.123233995736762338E-17, 0.2500000000000000000 ) ) ;
#61 = EDGE_CURVE ( 'NONE', #474, #406, #836, .T. ) ;
#62 = FILL_AREA_STYLE_COLOUR ( '', #1027 ) ;
#63 = EDGE_CURVE ( 'NONE', #897, #564, #819, .T. ) ;
#64 = ORIENTED_EDGE ( 'NONE', *, *, #1112, .T. ) ;
#65 = ORIENTED_EDGE ( 'NONE', *, *, #912, .T. ) ;
#66 = FACE_OUTER_BOUND ( 'NONE', #407, .T. ) ;
#67 = CARTESIAN_POINT ( 'NONE',  ( 0.4754999999999995897, 0.4654999999999998583, 0.2500000000000000000 ) ) ;
#68 = PLANE ( 'NONE',  #234 ) ;
#69 = CARTESIAN_POINT ( 'NONE',  ( 0.4250000000000003220, 0.4899999999999994360, 0.1666666666666657692 ) ) ;
#70 = DIRECTION ( 'NONE',  ( 0.000000000000000000, -0.000000000000000000, 1.000000000000000000 ) ) ;
#71 = EDGE_CURVE ( 'NONE', #474, #242, #349, .T. ) ;
#72 = LINE ( 'NONE', #445, #280 ) ;
#73 = LINE ( 'NONE', #457, #1059 ) ;
#74 = VECTOR ( 'NONE', #743, 1000.000000000000000 ) ;
#75 = LINE ( 'NONE', #1206, #417 ) ;
#76 = DIRECTION ( 'NONE',  ( 0.000000000000000000, 0.000000000000000000, -1.000000000000000000 ) ) ;
#77 = STYLED_ITEM ( 'NONE', ( #980 ), #962 ) ;
#78 = DIRECTION ( 'NONE',  ( -1.000000000000000000, 0.000000000000000000, 0.000000000000000000 ) ) ;
#79 = CARTESIAN_POINT ( 'NONE',  ( 0.3500000000000003109, 0.4654999999999998583, 0.2500000000000000000 ) ) ;
#80 = CARTESIAN_POINT ( 'NONE',  ( 0.2499999999999995282, 0.02450000000000000094, -0.2500000000000000000 ) ) ;
#81 = CARTESIAN_POINT ( 'NONE',  ( -0.3499999999999996447, 0.4654999999999998583, -0.2500000000000000000 ) ) ;
#82 = ORIENTED_EDGE ( 'NONE', *, *, #324, .F. ) ;
#83 = FILL_AREA_STYLE ('',( #111 ) ) ;
#84 = CARTESIAN_POINT ( 'NONE',  ( -0.4754999999999995897, 0.4654999999999998583, -0.2500000000000000000 ) ) ;
#85 = ORIENTED_EDGE ( 'NONE', *, *, #631, .F. ) ;
#86 = DIRECTION ( 'NONE',  ( 0.000000000000000000, -0.000000000000000000, 1.000000000000000000 ) ) ;
#87 = ADVANCED_FACE ( 'NONE', ( #1094 ), #1015, .T. ) ;
#88 = CARTESIAN_POINT ( 'NONE',  ( -0.3499999999999996447, 0.4654999999999998583, -0.2500000000000000000 ) ) ;
#89 = VERTEX_POINT ( 'NONE', #1009 ) ;
#90 = PLANE ( 'NONE',  #1195 ) ;
#91 = PLANE ( 'NONE',  #867 ) ;
#92 = VERTEX_POINT ( 'NONE', #258 ) ;
#93 = LINE ( 'NONE', #175, #948 ) ;
#94 = CLOSED_SHELL ( 'NONE', ( #272, #1152, #312, #187, #1125, #199, #1061, #619, #499, #147, #170, #362, #498, #512 ) ) ;
#95 = DIRECTION ( 'NONE',  ( -1.000000000000000000, 0.000000000000000000, 2.168404344971009115E-16 ) ) ;
#96 = COLOUR_RGB ( '',0.7921568627450980005, 0.8196078431372548767, 0.9333333333333333481 ) ;
#97 = ORIENTED_EDGE ( 'NONE', *, *, #979, .F. ) ;
#98 = LINE ( 'NONE', #973, #511 ) ;
#99 = VECTOR ( 'NONE', #20, 1000.000000000000000 ) ;
#100 = PLANE ( 'NONE',  #372 ) ;
#101 = EDGE_LOOP ( 'NONE', ( #330, #972, #989, #935 ) ) ;
#102 = EDGE_CURVE ( 'NONE', #1144, #156, #633, .T. ) ;
#103 = LINE ( 'NONE', #844, #1081 ) ;
#104 = EDGE_CURVE ( 'NONE', #388, #709, #442, .T. ) ;
#105 = ORIENTED_EDGE ( 'NONE', *, *, #324, .T. ) ;
#106 = FACE_OUTER_BOUND ( 'NONE', #1214, .T. ) ;
#107 = APPLICATION_PROTOCOL_DEFINITION ( 'draft international standard', 'automotive_design', 1998, #852 ) ;
#108 = ORIENTED_EDGE ( 'NONE', *, *, #635, .T. ) ;
#109 = CARTESIAN_POINT ( 'NONE',  ( 0.4999999999999995559, 0.4899999999999998801, -0.2500000000000000000 ) ) ;
#110 = ORIENTED_EDGE ( 'NONE', *, *, #761, .F. ) ;
#111 = FILL_AREA_STYLE_COLOUR ( '', #119 ) ;
#112 = CARTESIAN_POINT ( 'NONE',  ( -0.2499999999999995282, 0.02450000000000000094, 0.2500000000000000000 ) ) ;
#113 = EDGE_CURVE ( 'NONE', #611, #1010, #627, .T. ) ;
#114 = VERTEX_POINT ( 'NONE', #1026 ) ;
#115 = VECTOR ( 'NONE', #139, 1000.000000000000000 ) ;
#116 = CARTESIAN_POINT ( 'NONE',  ( 0.000000000000000000, 0.000000000000000000, -0.2500000000000000000 ) ) ;
#117 = ORIENTED_EDGE ( 'NONE', *, *, #221, .T. ) ;
#118 = FACE_OUTER_BOUND ( 'NONE', #560, .T. ) ;
#119 = COLOUR_RGB ( '',1.000000000000000000, 1.000000000000000000, 1.000000000000000000 ) ;
#120 = CARTESIAN_POINT ( 'NONE',  ( -0.4249999999999996003, 0.4655000000000003024, -0.1666666666666666019 ) ) ;
#121 = VECTOR ( 'NONE', #658, 1000.000000000000000 ) ;
#122 = EDGE_CURVE ( 'NONE', #42, #557, #920, .T. ) ;
#123 = VERTEX_POINT ( 'NONE', #79 ) ;
#124 = LINE ( 'NONE', #1052, #34 ) ;
#125 = ORIENTED_EDGE ( 'NONE', *, *, #305, .T. ) ;
#126 = LINE ( 'NONE', #497, #613 ) ;
#127 = DIRECTION ( 'NONE',  ( 0.000000000000000000, -0.000000000000000000, 1.000000000000000000 ) ) ;
#128 = DIRECTION ( 'NONE',  ( -3.614007241618346306E-16, 1.567325801096382322E-31, 1.000000000000000000 ) ) ;
#129 = SURFACE_STYLE_FILL_AREA ( #1158 ) ;
#130 = EDGE_CURVE ( 'NONE', #388, #184, #73, .T. ) ;
#131 = EDGE_LOOP ( 'NONE', ( #1170, #1130, #18, #381 ) ) ;
#132 = DIRECTION ( 'NONE',  ( 0.000000000000000000, 1.000000000000000000, 0.000000000000000000 ) ) ;
#133 = DIRECTION ( 'NONE',  ( 4.336808689942017243E-16, 1.000000000000000000, -0.000000000000000000 ) ) ;
#134 = ORIENTED_EDGE ( 'NONE', *, *, #542, .T. ) ;
#135 = PRODUCT ( 'ERB-RD0R50X', 'ERB-RD0R50X', '', ( #742 ) ) ;
#136 = ORIENTED_EDGE ( 'NONE', *, *, #934, .T. ) ;
#137 = DIRECTION ( 'NONE',  ( 0.000000000000000000, 0.000000000000000000, -1.000000000000000000 ) ) ;
#138 = AXIS2_PLACEMENT_3D ( 'NONE', #255, #538, #914 ) ;
#139 = DIRECTION ( 'NONE',  ( -9.834033310526121680E-16, -1.000000000000000000, 0.000000000000000000 ) ) ;
#140 = VECTOR ( 'NONE', #315, 1000.000000000000000 ) ;
#141 =( NAMED_UNIT ( * ) PLANE_ANGLE_UNIT ( ) SI_UNIT ( $, .RADIAN. ) );
#142 = ORIENTED_EDGE ( 'NONE', *, *, #686, .F. ) ;
#143 = DIRECTION ( 'NONE',  ( 1.626303258728256898E-16, 0.000000000000000000, 1.000000000000000000 ) ) ;
#144 = CARTESIAN_POINT ( 'NONE',  ( 0.2499999999999995282, 0.000000000000000000, 0.2500000000000000000 ) ) ;
#145 = ORIENTED_EDGE ( 'NONE', *, *, #565, .F. ) ;
#146 = PRESENTATION_STYLE_ASSIGNMENT (( #814 ) ) ;
#147 = ADVANCED_FACE ( 'NONE', ( #540 ), #1107, .F. ) ;
#148 = ORIENTED_EDGE ( 'NONE', *, *, #598, .F. ) ;
#149 = CARTESIAN_POINT ( 'NONE',  ( -0.4754999999999995897, 0.4654999999999998583, -0.2500000000000000000 ) ) ;
#150 = ORIENTED_EDGE ( 'NONE', *, *, #676, .F. ) ;
#151 = DIRECTION ( 'NONE',  ( 4.336808689942017243E-16, 1.000000000000000000, -0.000000000000000000 ) ) ;
#152 = PLANE ( 'NONE',  #377 ) ;
#153 = ADVANCED_FACE ( 'NONE', ( #533 ), #68, .T. ) ;
#154 = ORIENTED_EDGE ( 'NONE', *, *, #1161, .T. ) ;
#155 = CARTESIAN_POINT ( 'NONE',  ( -0.2499999999999995282, 0.02450000000000000094, 0.2500000000000000000 ) ) ;
#156 = VERTEX_POINT ( 'NONE', #354 ) ;
#157 = CARTESIAN_POINT ( 'NONE',  ( 0.4754999999999995897, 0.02450000000000000441, -0.2500000000000000000 ) ) ;
#158 = VECTOR ( 'NONE', #367, 1000.000000000000000 ) ;
#159 = FACE_OUTER_BOUND ( 'NONE', #794, .T. ) ;
#160 = DIRECTION ( 'NONE',  ( -2.602085213965212219E-15, 0.000000000000000000, -1.000000000000000000 ) ) ;
#161 = EDGE_CURVE ( 'NONE', #92, #1122, #733, .T. ) ;
#162 = VECTOR ( 'NONE', #1060, 1000.000000000000000 ) ;
#163 = LINE ( 'NONE', #1017, #339 ) ;
#164 = VECTOR ( 'NONE', #309, 1000.000000000000000 ) ;
#165 = VERTEX_POINT ( 'NONE', #552 ) ;
#166 = ORIENTED_EDGE ( 'NONE', *, *, #951, .T. ) ;
#167 = FACE_OUTER_BOUND ( 'NONE', #728, .T. ) ;
#168 = DIRECTION ( 'NONE',  ( -1.000000000000000000, 4.336808689942017243E-16, 1.626303258728256898E-16 ) ) ;
#169 = DIRECTION ( 'NONE',  ( 0.000000000000000000, -0.000000000000000000, 1.000000000000000000 ) ) ;
#170 = ADVANCED_FACE ( 'NONE', ( #438 ), #641, .F. ) ;
#171 = DIRECTION ( 'NONE',  ( -1.000000000000000000, 0.000000000000000000, -0.000000000000000000 ) ) ;
#172 = CARTESIAN_POINT ( 'NONE',  ( -0.3499999999999995337, 0.4654999999999998583, 0.2500000000000000000 ) ) ;
#173 = DIRECTION ( 'NONE',  ( 0.000000000000000000, -1.000000000000000000, -0.000000000000000000 ) ) ;
#174 = DIRECTION ( 'NONE',  ( 1.000000000000000000, 0.000000000000000000, -2.529805069132842365E-15 ) ) ;
#175 = CARTESIAN_POINT ( 'NONE',  ( 0.4999999999999995559, -6.123233995736762338E-17, -0.2500000000000000000 ) ) ;
#176 = LINE ( 'NONE', #991, #491 ) ;
#177 = DIRECTION ( 'NONE',  ( -1.000000000000000000, 2.449293598294704442E-16, 0.000000000000000000 ) ) ;
#178 = CARTESIAN_POINT ( 'NONE',  ( -0.3499999999999995892, 0.4899999999999997691, -0.1666666666666665741 ) ) ;
#179 = DIRECTION ( 'NONE',  ( 2.529805069132842365E-15, -1.097128060767467582E-30, 1.000000000000000000 ) ) ;
#180 = DIRECTION ( 'NONE',  ( 0.000000000000000000, 0.000000000000000000, 1.000000000000000000 ) ) ;
#181 = AXIS2_PLACEMENT_3D ( 'NONE', #741, #436, #70 ) ;
#182 = VECTOR ( 'NONE', #780, 1000.000000000000000 ) ;
#183 = VECTOR ( 'NONE', #306, 1000.000000000000000 ) ;
#184 = VERTEX_POINT ( 'NONE', #446 ) ;
#185 = CARTESIAN_POINT ( 'NONE',  ( -0.4249999999999995448, 0.4655000000000003024, 0.1666666666666666852 ) ) ;
#186 = CARTESIAN_POINT ( 'NONE',  ( 0.4754999999999995897, 0.4654999999999998583, 0.2500000000000000000 ) ) ;
#187 = ADVANCED_FACE ( 'NONE', ( #452 ), #1200, .F. ) ;
#188 = VERTEX_POINT ( 'NONE', #84 ) ;
#189 = FACE_OUTER_BOUND ( 'NONE', #1114, .T. ) ;
#190 = ORIENTED_EDGE ( 'NONE', *, *, #668, .F. ) ;
#191 = SURFACE_STYLE_USAGE ( .BOTH. , #861 ) ;
#192 = DIRECTION ( 'NONE',  ( 0.000000000000000000, 0.000000000000000000, -1.000000000000000000 ) ) ;
#193 = VERTEX_POINT ( 'NONE', #1181 ) ;
#194 = DIRECTION ( 'NONE',  ( 1.000000000000000000, 0.000000000000000000, -0.000000000000000000 ) ) ;
#195 = DIRECTION ( 'NONE',  ( -1.000000000000000000, 4.336808689942017243E-16, 0.000000000000000000 ) ) ;
#196 = ORIENTED_EDGE ( 'NONE', *, *, #764, .T. ) ;
#197 = LINE ( 'NONE', #209, #649 ) ;
#198 = DIRECTION ( 'NONE',  ( 1.000000000000000000, 0.000000000000000000, -0.000000000000000000 ) ) ;
#199 = ADVANCED_FACE ( 'NONE', ( #588 ), #765, .F. ) ;
#200 = DIRECTION ( 'NONE',  ( 0.000000000000000000, 1.000000000000000000, 0.000000000000000000 ) ) ;
#201 = AXIS2_PLACEMENT_3D ( 'NONE', #186, #276, #933 ) ;
#202 = LINE ( 'NONE', #278, #849 ) ;
#203 = ORIENTED_EDGE ( 'NONE', *, *, #411, .F. ) ;
#204 = AXIS2_PLACEMENT_3D ( 'NONE', #744, #292, #1037 ) ;
#205 = VECTOR ( 'NONE', #359, 1000.000000000000000 ) ;
#206 = VERTEX_POINT ( 'NONE', #371 ) ;
#207 = CARTESIAN_POINT ( 'NONE',  ( -0.3499999999999995892, 0.4655000000000001914, -0.1666666666666665741 ) ) ;
#208 = ORIENTED_EDGE ( 'NONE', *, *, #1088, .F. ) ;
#209 = CARTESIAN_POINT ( 'NONE',  ( -0.4754999999999991456, 0.4654999999999998583, 0.2500000000000000000 ) ) ;
#210 = CARTESIAN_POINT ( 'NONE',  ( 0.4754999999999995897, 0.4654999999999998583, -1.298275727087105036 ) ) ;
#211 = ORIENTED_EDGE ( 'NONE', *, *, #527, .T. ) ;
#212 = EDGE_LOOP ( 'NONE', ( #222, #284, #37, #1073 ) ) ;
#213 = DIRECTION ( 'NONE',  ( -1.502497467413392881E-17, -1.000000000000000000, 0.000000000000000000 ) ) ;
#214 = CARTESIAN_POINT ( 'NONE',  ( 0.4754999999999995897, 0.02450000000000000441, 0.2500000000000000000 ) ) ;
#215 = ORIENTED_EDGE ( 'NONE', *, *, #543, .F. ) ;
#216 = ORIENTED_EDGE ( 'NONE', *, *, #458, .F. ) ;
#217 = PLANE ( 'NONE',  #773 ) ;
#218 = VECTOR ( 'NONE', #51, 1000.000000000000000 ) ;
#219 = FACE_OUTER_BOUND ( 'NONE', #400, .T. ) ;
#220 = VECTOR ( 'NONE', #173, 1000.000000000000000 ) ;
#221 = EDGE_CURVE ( 'NONE', #470, #839, #290, .T. ) ;
#222 = ORIENTED_EDGE ( 'NONE', *, *, #1016, .F. ) ;
#223 = DIRECTION ( 'NONE',  ( 1.000000000000000000, 0.000000000000000000, 0.000000000000000000 ) ) ;
#224 = EDGE_LOOP ( 'NONE', ( #363, #110, #459, #990 ) ) ;
#225 = DIRECTION ( 'NONE',  ( 1.000000000000000000, -4.336808689942017736E-16, 0.000000000000000000 ) ) ;
#226 = SURFACE_STYLE_USAGE ( .BOTH. , #1070 ) ;
#227 = ORIENTED_EDGE ( 'NONE', *, *, #263, .T. ) ;
#228 = CARTESIAN_POINT ( 'NONE',  ( -0.2499999999999995282, 0.02450000000000000094, -0.2500000000000000000 ) ) ;
#229 = CARTESIAN_POINT ( 'NONE',  ( -0.4249999999999996003, 0.4899999999999998801, -0.1666666666666666019 ) ) ;
#230 = ADVANCED_FACE ( 'NONE', ( #776 ), #100, .F. ) ;
#231 = VERTEX_POINT ( 'NONE', #865 ) ;
#232 = DIRECTION ( 'NONE',  ( -0.000000000000000000, -0.000000000000000000, -1.000000000000000000 ) ) ;
#233 = APPLICATION_CONTEXT ( 'automotive_design' ) ;
#234 = AXIS2_PLACEMENT_3D ( 'NONE', #271, #827, #1193 ) ;
#235 = PLANE ( 'NONE',  #1212 ) ;
#236 = ORIENTED_EDGE ( 'NONE', *, *, #495, .F. ) ;
#237 = AXIS2_PLACEMENT_3D ( 'NONE', #798, #213, #16 ) ;
#238 = SURFACE_SIDE_STYLE ('',( #803 ) ) ;
#239 = ORIENTED_EDGE ( 'NONE', *, *, #1213, .T. ) ;
#240 = EDGE_CURVE ( 'NONE', #813, #799, #682, .T. ) ;
#241 = UNCERTAINTY_MEASURE_WITH_UNIT (LENGTH_MEASURE( 1.000000000000000082E-05 ), #437, 'distance_accuracy_value', 'NONE');
#242 = VERTEX_POINT ( 'NONE', #214 ) ;
#243 = LINE ( 'NONE', #688, #162 ) ;
#244 = FACE_OUTER_BOUND ( 'NONE', #1176, .T. ) ;
#245 = VERTEX_POINT ( 'NONE', #1210 ) ;
#246 = EDGE_CURVE ( 'NONE', #414, #769, #399, .T. ) ;
#247 = ORIENTED_EDGE ( 'NONE', *, *, #754, .F. ) ;
#248 = CARTESIAN_POINT ( 'NONE',  ( -0.4999999999999995559, 0.4899999999999998801, 0.2500000000000000000 ) ) ;
#249 = ORIENTED_EDGE ( 'NONE', *, *, #667, .F. ) ;
#250 = LINE ( 'NONE', #625, #317 ) ;
#251 = LINE ( 'NONE', #1199, #205 ) ;
#252 = CARTESIAN_POINT ( 'NONE',  ( -0.4754999999999991456, 0.4654999999999998583, -1.298275727087105036 ) ) ;
#253 = ORIENTED_EDGE ( 'NONE', *, *, #543, .T. ) ;
#254 = CARTESIAN_POINT ( 'NONE',  ( -0.3499999999999996447, 0.4654999999999998583, -0.2500000000000000000 ) ) ;
#255 = CARTESIAN_POINT ( 'NONE',  ( 0.3500000000000002554, 0.4654999999999999694, 0.1666666666666659358 ) ) ;
#256 = VECTOR ( 'NONE', #739, 1000.000000000000000 ) ;
#257 = CARTESIAN_POINT ( 'NONE',  ( 0.4249999999999997113, 0.4654999999999998583, -0.1666666666666675178 ) ) ;
#258 = CARTESIAN_POINT ( 'NONE',  ( 0.4999999999999995559, -6.123233995736762338E-17, 0.2500000000000000000 ) ) ;
#259 = PRESENTATION_LAYER_ASSIGNMENT (  '', '', ( #592 ) ) ;
#260 = EDGE_CURVE ( 'NONE', #813, #839, #380, .T. ) ;
#261 = VECTOR ( 'NONE', #1121, 1000.000000000000000 ) ;
#262 = DIRECTION ( 'NONE',  ( 0.000000000000000000, 1.000000000000000000, 0.000000000000000000 ) ) ;
#263 = EDGE_CURVE ( 'NONE', #406, #310, #583, .T. ) ;
#264 = ORIENTED_EDGE ( 'NONE', *, *, #854, .F. ) ;
#265 = DIRECTION ( 'NONE',  ( 0.000000000000000000, 0.000000000000000000, -1.000000000000000000 ) ) ;
#266 = CARTESIAN_POINT ( 'NONE',  ( -0.4999999999999995559, -6.123233995736762338E-17, 0.2500000000000000000 ) ) ;
#267 = DIRECTION ( 'NONE',  ( 1.000000000000000000, -4.336808689942017736E-16, -2.602085213965212219E-15 ) ) ;
#268 = CARTESIAN_POINT ( 'NONE',  ( 0.4754999999999995897, 0.02450000000000000441, 0.2500000000000000000 ) ) ;
#269 = LINE ( 'NONE', #818, #32 ) ;
#270 = CARTESIAN_POINT ( 'NONE',  ( 0.2499999999999995282, 0.02450000000000000094, 0.2500000000000000000 ) ) ;
#271 = CARTESIAN_POINT ( 'NONE',  ( -0.4754999999999995897, 0.02450000000000000441, -1.298275727087105036 ) ) ;
#272 = ADVANCED_FACE ( 'NONE', ( #959 ), #1118, .F. ) ;
#273 = ORIENTED_EDGE ( 'NONE', *, *, #967, .T. ) ;
#274 = CARTESIAN_POINT ( 'NONE',  ( 0.4754999999999995897, 0.02450000000000000441, -0.2500000000000000000 ) ) ;
#275 = VECTOR ( 'NONE', #1063, 1000.000000000000000 ) ;
#276 = DIRECTION ( 'NONE',  ( 0.000000000000000000, 1.000000000000000000, 0.000000000000000000 ) ) ;
#277 = CARTESIAN_POINT ( 'NONE',  ( 0.4754999999999995897, 0.4654999999999998583, -0.2500000000000000000 ) ) ;
#278 = CARTESIAN_POINT ( 'NONE',  ( -0.3499999999999995337, 0.4899999999999997691, 0.1666666666666666852 ) ) ;
#279 = VECTOR ( 'NONE', #14, 1000.000000000000000 ) ;
#280 = VECTOR ( 'NONE', #644, 1000.000000000000000 ) ;
#281 = ORIENTED_EDGE ( 'NONE', *, *, #866, .T. ) ;
#282 = CARTESIAN_POINT ( 'NONE',  ( 0.3500000000000003109, 0.4654999999999998583, 0.2500000000000000000 ) ) ;
#283 = EDGE_CURVE ( 'NONE', #662, #740, #1131, .T. ) ;
#284 = ORIENTED_EDGE ( 'NONE', *, *, #541, .F. ) ;
#285 = PLANE ( 'NONE',  #56 ) ;
#286 = ADVANCED_FACE ( 'NONE', ( #1124 ), #858, .F. ) ;
#287 = VERTEX_POINT ( 'NONE', #1035 ) ;
#288 = CARTESIAN_POINT ( 'NONE',  ( 0.3499999999999996447, 0.4654999999999999694, -0.1666666666666673513 ) ) ;
#289 = ADVANCED_FACE ( 'NONE', ( #563 ), #91, .F. ) ;
#290 = LINE ( 'NONE', #1050, #749 ) ;
#291 = ORIENTED_EDGE ( 'NONE', *, *, #698, .F. ) ;
#292 = DIRECTION ( 'NONE',  ( 2.449293598294704442E-16, 1.000000000000000000, 0.000000000000000000 ) ) ;
#293 = CARTESIAN_POINT ( 'NONE',  ( -0.2499999999999995282, 0.02450000000000000094, 0.2500000000000000000 ) ) ;
#294 = ORIENTED_EDGE ( 'NONE', *, *, #811, .T. ) ;
#295 = FILL_AREA_STYLE_COLOUR ( '', #96 ) ;
#296 = ORIENTED_EDGE ( 'NONE', *, *, #305, .F. ) ;
#297 = EDGE_CURVE ( 'NONE', #490, #89, #848, .T. ) ;
#298 = LINE ( 'NONE', #81, #398 ) ;
#299 = ORIENTED_EDGE ( 'NONE', *, *, #599, .F. ) ;
#300 = VECTOR ( 'NONE', #415, 1000.000000000000000 ) ;
#301 = DIRECTION ( 'NONE',  ( 0.000000000000000000, 1.000000000000000000, 0.000000000000000000 ) ) ;
#302 = AXIS2_PLACEMENT_3D ( 'NONE', #899, #427, #1178 ) ;
#303 = DIRECTION ( 'NONE',  ( 1.000000000000000000, 4.336808689942017736E-16, 0.000000000000000000 ) ) ;
#304 = VERTEX_POINT ( 'NONE', #578 ) ;
#305 = EDGE_CURVE ( 'NONE', #406, #1144, #479, .T. ) ;
#306 = DIRECTION ( 'NONE',  ( 1.000000000000000000, -1.445602896647338522E-15, -2.529805069132842365E-15 ) ) ;
#307 = ORIENTED_EDGE ( 'NONE', *, *, #930, .F. ) ;
#308 = ORIENTED_EDGE ( 'NONE', *, *, #589, .T. ) ;
#309 = DIRECTION ( 'NONE',  ( 0.000000000000000000, 1.000000000000000000, 0.000000000000000000 ) ) ;
#310 = VERTEX_POINT ( 'NONE', #890 ) ;
#311 = CARTESIAN_POINT ( 'NONE',  ( 0.000000000000000000, 0.000000000000000000, 0.2500000000000000000 ) ) ;
#312 = ADVANCED_FACE ( 'NONE', ( #39 ), #23, .F. ) ;
#313 = DIRECTION ( 'NONE',  ( -1.000000000000000000, 1.502497467413392881E-17, 0.000000000000000000 ) ) ;
#314 = CARTESIAN_POINT ( 'NONE',  ( -0.4999999999999995559, -6.123233995736762338E-17, -0.2500000000000000000 ) ) ;
#315 = DIRECTION ( 'NONE',  ( -1.000000000000000000, 2.449293598294704442E-16, 0.000000000000000000 ) ) ;
#316 = ORIENTED_EDGE ( 'NONE', *, *, #854, .T. ) ;
#317 = VECTOR ( 'NONE', #177, 1000.000000000000000 ) ;
#318 = VECTOR ( 'NONE', #50, 1000.000000000000000 ) ;
#319 = COLOUR_RGB ( '',0.7921568627450980005, 0.8196078431372548767, 0.9333333333333333481 ) ;
#320 = CARTESIAN_POINT ( 'NONE',  ( -0.3499999999999995337, 0.4655000000000001914, 0.1666666666666666852 ) ) ;
#321 = CARTESIAN_POINT ( 'NONE',  ( 0.2499999999999995282, 0.000000000000000000, -0.2500000000000000000 ) ) ;
#322 = ORIENTED_EDGE ( 'NONE', *, *, #113, .F. ) ;
#323 = DIRECTION ( 'NONE',  ( 0.000000000000000000, 1.000000000000000000, 0.000000000000000000 ) ) ;
#324 = EDGE_CURVE ( 'NONE', #594, #609, #785, .T. ) ;
#325 = DIRECTION ( 'NONE',  ( -1.000000000000000000, 0.000000000000000000, 0.000000000000000000 ) ) ;
#326 = EDGE_CURVE ( 'NONE', #557, #165, #44, .T. ) ;
#327 = EDGE_CURVE ( 'NONE', #426, #789, #243, .T. ) ;
#328 = LINE ( 'NONE', #701, #506 ) ;
#329 = CARTESIAN_POINT ( 'NONE',  ( -0.4754999999999995897, 0.02450000000000000441, -0.2500000000000000000 ) ) ;
#330 = ORIENTED_EDGE ( 'NONE', *, *, #369, .F. ) ;
#331 = DIRECTION ( 'NONE',  ( -1.788933584601082711E-15, 0.000000000000000000, -1.000000000000000000 ) ) ;
#332 = ORIENTED_EDGE ( 'NONE', *, *, #668, .T. ) ;
#333 = ORIENTED_EDGE ( 'NONE', *, *, #1142, .T. ) ;
#334 = DIRECTION ( 'NONE',  ( -2.602085213965209458E-15, -0.000000000000000000, -1.000000000000000000 ) ) ;
#335 = ORIENTED_EDGE ( 'NONE', *, *, #443, .T. ) ;
#336 = VECTOR ( 'NONE', #325, 1000.000000000000000 ) ;
#337 = PLANE ( 'NONE',  #1119 ) ;
#338 = VERTEX_POINT ( 'NONE', #144 ) ;
#339 = VECTOR ( 'NONE', #892, 1000.000000000000000 ) ;
#340 = ORIENTED_EDGE ( 'NONE', *, *, #29, .T. ) ;
#341 = DIRECTION ( 'NONE',  ( -0.000000000000000000, -1.000000000000000000, -0.000000000000000000 ) ) ;
#342 = CARTESIAN_POINT ( 'NONE',  ( 0.4250000000000005440, 0.4899999999999998801, -0.2500000000000000000 ) ) ;
#343 = DIRECTION ( 'NONE',  ( 4.336808689942017243E-16, 1.000000000000000000, -0.000000000000000000 ) ) ;
#344 = DIRECTION ( 'NONE',  ( 0.000000000000000000, 0.000000000000000000, 1.000000000000000000 ) ) ;
#345 = DIRECTION ( 'NONE',  ( -0.000000000000000000, -0.000000000000000000, -1.000000000000000000 ) ) ;
#346 = DIRECTION ( 'NONE',  ( 0.000000000000000000, 1.000000000000000000, 0.000000000000000000 ) ) ;
#347 = ADVANCED_FACE ( 'NONE', ( #219 ), #504, .F. ) ;
#348 = FACE_OUTER_BOUND ( 'NONE', #762, .T. ) ;
#349 = LINE ( 'NONE', #726, #158 ) ;
#350 = ORIENTED_EDGE ( 'NONE', *, *, #1177, .F. ) ;
#351 = CARTESIAN_POINT ( 'NONE',  ( 0.3500000000000002554, 0.4899999999999996581, -0.2500000000000000000 ) ) ;
#352 = VECTOR ( 'NONE', #473, 1000.000000000000000 ) ;
#353 = LINE ( 'NONE', #1082, #1196 ) ;
#354 = CARTESIAN_POINT ( 'NONE',  ( -0.4754999999999991456, 0.4654999999999998583, 0.2500000000000000000 ) ) ;
#355 = MECHANICAL_DESIGN_GEOMETRIC_PRESENTATION_REPRESENTATION (  '', ( #804 ), #1113 ) ;
#356 = VECTOR ( 'NONE', #596, 1000.000000000000000 ) ;
#357 = VECTOR ( 'NONE', #664, 1000.000000000000000 ) ;
#358 = PLANE ( 'NONE',  #138 ) ;
#359 = DIRECTION ( 'NONE',  ( -1.000000000000000000, 1.445602896647338522E-15, 2.168404344971007685E-15 ) ) ;
#360 = CARTESIAN_POINT ( 'NONE',  ( 0.4754999999999995897, 0.02450000000000000441, -0.2500000000000000000 ) ) ;
#361 = CARTESIAN_POINT ( 'NONE',  ( -0.3499999999999996447, 0.4899999999999996581, -0.2500000000000000000 ) ) ;
#362 = ADVANCED_FACE ( 'NONE', ( #1166 ), #235, .F. ) ;
#363 = ORIENTED_EDGE ( 'NONE', *, *, #1067, .F. ) ;
#364 = PLANE ( 'NONE',  #181 ) ;
#365 =( NAMED_UNIT ( * ) SI_UNIT ( $, .STERADIAN. ) SOLID_ANGLE_UNIT ( ) );
#366 = EDGE_CURVE ( 'NONE', #1183, #165, #1068, .T. ) ;
#367 = DIRECTION ( 'NONE',  ( 0.000000000000000000, 0.000000000000000000, 1.000000000000000000 ) ) ;
#368 = CARTESIAN_POINT ( 'NONE',  ( -0.2499999999999996392, -0.2416067811865469928, -0.2500000000000000000 ) ) ;
#369 = EDGE_CURVE ( 'NONE', #123, #390, #703, .T. ) ;
#370 = ORIENTED_EDGE ( 'NONE', *, *, #1043, .F. ) ;
#371 = CARTESIAN_POINT ( 'NONE',  ( 0.4999999999999995559, 0.4899999999999998801, 0.2500000000000000000 ) ) ;
#372 = AXIS2_PLACEMENT_3D ( 'NONE', #112, #1137, #966 ) ;
#373 = VECTOR ( 'NONE', #857, 1000.000000000000000 ) ;
#374 = DIRECTION ( 'NONE',  ( 0.000000000000000000, 1.000000000000000000, 0.000000000000000000 ) ) ;
#375 = LINE ( 'NONE', #755, #595 ) ;
#376 = COLOUR_RGB ( '',0.2509803921568627416, 0.2509803921568627416, 0.2509803921568627416 ) ;
#377 = AXIS2_PLACEMENT_3D ( 'NONE', #902, #53, #1089 ) ;
#378 = ORIENTED_EDGE ( 'NONE', *, *, #843, .T. ) ;
#379 =( NAMED_UNIT ( * ) PLANE_ANGLE_UNIT ( ) SI_UNIT ( $, .RADIAN. ) );
#380 = LINE ( 'NONE', #120, #352 ) ;
#381 = ORIENTED_EDGE ( 'NONE', *, *, #979, .T. ) ;
#382 = PLANE ( 'NONE',  #751 ) ;
#383 = EDGE_CURVE ( 'NONE', #985, #609, #700, .T. ) ;
#384 = VERTEX_POINT ( 'NONE', #910 ) ;
#385 = DIRECTION ( 'NONE',  ( 1.000000000000000000, 0.000000000000000000, 0.000000000000000000 ) ) ;
#386 = DIRECTION ( 'NONE',  ( -1.000000000000000000, 1.445602896647338522E-15, 0.000000000000000000 ) ) ;
#387 = EDGE_CURVE ( 'NONE', #564, #662, #1197, .T. ) ;
#388 = VERTEX_POINT ( 'NONE', #835 ) ;
#389 = CARTESIAN_POINT ( 'NONE',  ( 0.3500000000000002554, 0.4899999999999995470, 0.1666666666666659358 ) ) ;
#390 = VERTEX_POINT ( 'NONE', #172 ) ;
#391 =( NAMED_UNIT ( * ) PLANE_ANGLE_UNIT ( ) SI_UNIT ( $, .RADIAN. ) );
#392 = SURFACE_STYLE_FILL_AREA ( #456 ) ;
#393 = ORIENTED_EDGE ( 'NONE', *, *, #1016, .T. ) ;
#394 = AXIS2_PLACEMENT_3D ( 'NONE', #946, #675, #750 ) ;
#395 = FACE_OUTER_BOUND ( 'NONE', #653, .T. ) ;
#396 = VECTOR ( 'NONE', #313, 1000.000000000000000 ) ;
#397 = VERTEX_POINT ( 'NONE', #648 ) ;
#398 = VECTOR ( 'NONE', #745, 1000.000000000000000 ) ;
#399 = LINE ( 'NONE', #569, #550 ) ;
#400 = EDGE_LOOP ( 'NONE', ( #1188, #211, #1218, #308, #680, #428, #1056, #253 ) ) ;
#401 = LINE ( 'NONE', #329, #164 ) ;
#402 = EDGE_CURVE ( 'NONE', #960, #12, #530, .T. ) ;
#403 = ORIENTED_EDGE ( 'NONE', *, *, #283, .F. ) ;
#404 = CARTESIAN_POINT ( 'NONE',  ( 0.4754999999999995897, 0.4654999999999998583, 0.2500000000000000000 ) ) ;
#405 = CARTESIAN_POINT ( 'NONE',  ( -0.2499999999999995282, 0.02450000000000000094, -0.2500000000000000000 ) ) ;
#406 = VERTEX_POINT ( 'NONE', #639 ) ;
#407 = EDGE_LOOP ( 'NONE', ( #871, #997, #909, #281, #636, #949, #607, #239 ) ) ;
#408 = DIRECTION ( 'NONE',  ( 1.000000000000000000, -0.000000000000000000, 0.000000000000000000 ) ) ;
#409 = DIRECTION ( 'NONE',  ( 0.000000000000000000, 0.000000000000000000, 1.000000000000000000 ) ) ;
#410 = CARTESIAN_POINT ( 'NONE',  ( -0.4999999999999995559, 0.4899999999999998801, 0.2500000000000000000 ) ) ;
#411 = EDGE_CURVE ( 'NONE', #206, #769, #544, .T. ) ;
#412 = LINE ( 'NONE', #5, #468 ) ;
#413 = ADVANCED_FACE ( 'NONE', ( #809 ), #1013, .F. ) ;
#414 = VERTEX_POINT ( 'NONE', #342 ) ;
#415 = DIRECTION ( 'NONE',  ( -0.000000000000000000, 1.000000000000000000, -0.000000000000000000 ) ) ;
#416 = PRESENTATION_LAYER_ASSIGNMENT (  '', '', ( #804 ) ) ;
#417 = VECTOR ( 'NONE', #467, 1000.000000000000000 ) ;
#418 = ORIENTED_EDGE ( 'NONE', *, *, #761, .T. ) ;
#419 = PLANE ( 'NONE',  #734 ) ;
#420 = ORIENTED_EDGE ( 'NONE', *, *, #383, .T. ) ;
#421 =( NAMED_UNIT ( * ) PLANE_ANGLE_UNIT ( ) SI_UNIT ( $, .RADIAN. ) );
#422 = PLANE ( 'NONE',  #965 ) ;
#423 = PLANE ( 'NONE',  #237 ) ;
#424 = UNCERTAINTY_MEASURE_WITH_UNIT (LENGTH_MEASURE( 1.000000000000000082E-05 ), #748, 'distance_accuracy_value', 'NONE');
#425 = CARTESIAN_POINT ( 'NONE',  ( 0.3500000000000002554, 0.4654999999999999694, 0.1666666666666659358 ) ) ;
#426 = VERTEX_POINT ( 'NONE', #351 ) ;
#427 = DIRECTION ( 'NONE',  ( 0.000000000000000000, 0.000000000000000000, -1.000000000000000000 ) ) ;
#428 = ORIENTED_EDGE ( 'NONE', *, *, #1101, .T. ) ;
#429 = MECHANICAL_DESIGN_GEOMETRIC_PRESENTATION_REPRESENTATION (  '', ( #592 ), #945 ) ;
#430 = DIRECTION ( 'NONE',  ( 4.336808689942017243E-16, 1.000000000000000000, -0.000000000000000000 ) ) ;
#431 = DIRECTION ( 'NONE',  ( 4.336808689942017243E-16, 1.000000000000000000, -0.000000000000000000 ) ) ;
#432 = DIRECTION ( 'NONE',  ( 1.000000000000000000, 0.000000000000000000, 0.000000000000000000 ) ) ;
#433 = MECHANICAL_DESIGN_GEOMETRIC_PRESENTATION_REPRESENTATION (  '', ( #790 ), #810 ) ;
#434 = ORIENTED_EDGE ( 'NONE', *, *, #951, .F. ) ;
#435 = ADVANCED_FACE ( 'NONE', ( #918 ), #718, .F. ) ;
#436 = DIRECTION ( 'NONE',  ( 0.000000000000000000, 1.000000000000000000, 0.000000000000000000 ) ) ;
#437 =( LENGTH_UNIT ( ) NAMED_UNIT ( * ) SI_UNIT ( .MILLI., .METRE. ) );
#438 = FACE_OUTER_BOUND ( 'NONE', #475, .T. ) ;
#439 = ORIENTED_EDGE ( 'NONE', *, *, #1067, .T. ) ;
#440 = PLANE ( 'NONE',  #1023 ) ;
#441 = CARTESIAN_POINT ( 'NONE',  ( -0.4754999999999995897, 0.02450000000000000441, 0.2500000000000000000 ) ) ;
#442 = LINE ( 'NONE', #650, #1110 ) ;
#443 = EDGE_CURVE ( 'NONE', #891, #414, #269, .T. ) ;
#444 = CARTESIAN_POINT ( 'NONE',  ( -0.4249999999999996003, 0.4899999999999998801, -0.2499999999999999445 ) ) ;
#445 = CARTESIAN_POINT ( 'NONE',  ( -0.4999999999999995559, 0.4899999999999998801, -0.2500000000000000000 ) ) ;
#446 = CARTESIAN_POINT ( 'NONE',  ( -0.2499999999999995282, 0.000000000000000000, -0.2500000000000000000 ) ) ;
#447 = CARTESIAN_POINT ( 'NONE',  ( 0.4250000000000005440, 0.4654999999999998583, 0.2499999999999991396 ) ) ;
#448 = VECTOR ( 'NONE', #605, 1000.000000000000000 ) ;
#449 = DIRECTION ( 'NONE',  ( 1.000000000000000000, 2.449293598294704442E-16, -0.000000000000000000 ) ) ;
#450 = ORIENTED_EDGE ( 'NONE', *, *, #667, .T. ) ;
#451 = CARTESIAN_POINT ( 'NONE',  ( 0.4999999999999995559, 0.4899999999999998801, 0.2500000000000000000 ) ) ;
#452 = FACE_OUTER_BOUND ( 'NONE', #49, .T. ) ;
#453 = CARTESIAN_POINT ( 'NONE',  ( -0.4754999999999995897, 0.02450000000000000441, 0.2500000000000000000 ) ) ;
#454 = CARTESIAN_POINT ( 'NONE',  ( -0.4249999999999996003, 0.4655000000000003024, -0.2499999999999999445 ) ) ;
#455 = ORIENTED_EDGE ( 'NONE', *, *, #1101, .F. ) ;
#456 = FILL_AREA_STYLE ('',( #1123 ) ) ;
#457 = CARTESIAN_POINT ( 'NONE',  ( -0.2499999999999995282, 0.000000000000000000, 0.2500000000000000000 ) ) ;
#458 = EDGE_CURVE ( 'NONE', #287, #388, #643, .T. ) ;
#459 = ORIENTED_EDGE ( 'NONE', *, *, #778, .T. ) ;
#460 = PLANE ( 'NONE',  #1046 ) ;
#461 = PLANE ( 'NONE',  #615 ) ;
#462 = ORIENTED_EDGE ( 'NONE', *, *, #606, .T. ) ;
#463 = DIRECTION ( 'NONE',  ( 0.000000000000000000, 1.000000000000000000, 0.000000000000000000 ) ) ;
#464 = DIRECTION ( 'NONE',  ( -1.000000000000000000, -2.449293598294704442E-16, 0.000000000000000000 ) ) ;
#465 = ORIENTED_EDGE ( 'NONE', *, *, #161, .T. ) ;
#466 = VECTOR ( 'NONE', #524, 1000.000000000000000 ) ;
#467 = DIRECTION ( 'NONE',  ( 4.336808689942017243E-16, 1.000000000000000000, -0.000000000000000000 ) ) ;
#468 = VECTOR ( 'NONE', #691, 1000.000000000000000 ) ;
#469 = ADVANCED_FACE ( 'NONE', ( #167 ), #364, .F. ) ;
#470 = VERTEX_POINT ( 'NONE', #444 ) ;
#471 = SURFACE_STYLE_USAGE ( .BOTH. , #483 ) ;
#472 = EDGE_CURVE ( 'NONE', #1032, #702, #1186, .T. ) ;
#473 = DIRECTION ( 'NONE',  ( 4.336808689942017243E-16, 1.000000000000000000, -0.000000000000000000 ) ) ;
#474 = VERTEX_POINT ( 'NONE', #157 ) ;
#475 = EDGE_LOOP ( 'NONE', ( #316, #808, #307, #685 ) ) ;
#476 = DIRECTION ( 'NONE',  ( 1.626303258728256898E-16, 0.000000000000000000, 1.000000000000000000 ) ) ;
#477 = SURFACE_STYLE_USAGE ( .BOTH. , #1117 ) ;
#478 = PRODUCT_DEFINITION_CONTEXT ( 'detailed design', #852, 'design' ) ;
#479 = LINE ( 'NONE', #1171, #9 ) ;
#480 = EDGE_LOOP ( 'NONE', ( #1069, #21, #717, #859 ) ) ;
#481 = CARTESIAN_POINT ( 'NONE',  ( -0.4249999999999996003, 0.4654999999999998583, -0.2500000000000000000 ) ) ;
#482 = EDGE_LOOP ( 'NONE', ( #403, #85, #860, #148, #519, #665, #952, #692 ) ) ;
#483 = SURFACE_SIDE_STYLE ('',( #1115 ) ) ;
#484 = CARTESIAN_POINT ( 'NONE',  ( 0.2499999999999995282, 0.02450000000000000094, 0.2500000000000000000 ) ) ;
#485 = EDGE_CURVE ( 'NONE', #1133, #1072, #731, .T. ) ;
#486 = ORIENTED_EDGE ( 'NONE', *, *, #1054, .T. ) ;
#487 = AXIS2_PLACEMENT_3D ( 'NONE', #737, #1191, #1179 ) ;
#488 = CARTESIAN_POINT ( 'NONE',  ( -0.4754999999999995897, 0.4654999999999998583, 0.2500000000000000000 ) ) ;
#489 = EDGE_CURVE ( 'NONE', #92, #338, #250, .T. ) ;
#490 = VERTEX_POINT ( 'NONE', #999 ) ;
#491 = VECTOR ( 'NONE', #341, 1000.000000000000000 ) ;
#492 = DIRECTION ( 'NONE',  ( 1.000000000000000000, 0.000000000000000000, 0.000000000000000000 ) ) ;
#493 = PRESENTATION_LAYER_ASSIGNMENT (  '', '', ( #790 ) ) ;
#494 = EDGE_LOOP ( 'NONE', ( #766, #913, #7, #1051 ) ) ;
#495 = EDGE_CURVE ( 'NONE', #1010, #414, #59, .T. ) ;
#496 = CARTESIAN_POINT ( 'NONE',  ( -0.4999999999999995559, 0.4899999999999998801, 0.2500000000000000000 ) ) ;
#497 = CARTESIAN_POINT ( 'NONE',  ( 0.3500000000000002554, 0.4654999999999998583, -0.2500000000000000000 ) ) ;
#498 = ADVANCED_FACE ( 'NONE', ( #1007 ), #358, .F. ) ;
#499 = ADVANCED_FACE ( 'NONE', ( #66 ), #440, .T. ) ;
#500 = CARTESIAN_POINT ( 'NONE',  ( -0.3499999999999995337, 0.4899999999999997691, 0.1666666666666666852 ) ) ;
#501 = CARTESIAN_POINT ( 'NONE',  ( 0.4249999999999997113, 0.4899999999999994360, -0.1666666666666675178 ) ) ;
#502 = ORIENTED_EDGE ( 'NONE', *, *, #934, .F. ) ;
#503 = LINE ( 'NONE', #27, #300 ) ;
#504 = PLANE ( 'NONE',  #1062 ) ;
#505 = EDGE_LOOP ( 'NONE', ( #704, #621, #215, #64 ) ) ;
#506 = VECTOR ( 'NONE', #720, 1000.000000000000000 ) ;
#507 = LINE ( 'NONE', #321, #140 ) ;
#508 = VECTOR ( 'NONE', #1031, 1000.000000000000000 ) ;
#509 = ORIENTED_EDGE ( 'NONE', *, *, #977, .T. ) ;
#510 = FACE_OUTER_BOUND ( 'NONE', #1149, .T. ) ;
#511 = VECTOR ( 'NONE', #232, 1000.000000000000000 ) ;
#512 = ADVANCED_FACE ( 'NONE', ( #106 ), #90, .F. ) ;
#513 = VECTOR ( 'NONE', #132, 1000.000000000000000 ) ;
#514 = VECTOR ( 'NONE', #558, 1000.000000000000000 ) ;
#515 =( GEOMETRIC_REPRESENTATION_CONTEXT ( 3 ) GLOBAL_UNCERTAINTY_ASSIGNED_CONTEXT ( ( #954 ) ) GLOBAL_UNIT_ASSIGNED_CONTEXT ( ( #770, #1223, #562 ) ) REPRESENTATION_CONTEXT ( 'NONE', 'WORKASPACE' ) );
#516 = EDGE_LOOP ( 'NONE', ( #968, #4, #900, #602 ) ) ;
#517 = EDGE_LOOP ( 'NONE', ( #335, #236, #322, #673 ) ) ;
#518 = LINE ( 'NONE', #894, #885 ) ;
#519 = ORIENTED_EDGE ( 'NONE', *, *, #17, .F. ) ;
#520 = ORIENTED_EDGE ( 'NONE', *, *, #1088, .T. ) ;
#521 = FACE_OUTER_BOUND ( 'NONE', #657, .T. ) ;
#522 = UNCERTAINTY_MEASURE_WITH_UNIT (LENGTH_MEASURE( 1.000000000000000082E-05 ), #1074, 'distance_accuracy_value', 'NONE');
#523 = EDGE_LOOP ( 'NONE', ( #378, #1173, #350, #486 ) ) ;
#524 = DIRECTION ( 'NONE',  ( 4.336808689942017243E-16, 1.000000000000000000, -0.000000000000000000 ) ) ;
#525 = DIRECTION ( 'NONE',  ( -1.000000000000000000, -4.336808689942017736E-16, 0.000000000000000000 ) ) ;
#526 = ORIENTED_EDGE ( 'NONE', *, *, #260, .F. ) ;
#527 = EDGE_CURVE ( 'NONE', #89, #564, #666, .T. ) ;
#528 = ORIENTED_EDGE ( 'NONE', *, *, #589, .F. ) ;
#529 = ORIENTED_EDGE ( 'NONE', *, *, #2, .T. ) ;
#530 = LINE ( 'NONE', #1106, #690 ) ;
#531 = VECTOR ( 'NONE', #449, 1000.000000000000000 ) ;
#532 = DIRECTION ( 'NONE',  ( -1.000000000000000000, 0.000000000000000000, 0.000000000000000000 ) ) ;
#533 = FACE_OUTER_BOUND ( 'NONE', #1080, .T. ) ;
#534 = VECTOR ( 'NONE', #1093, 1000.000000000000000 ) ;
#535 = AXIS2_PLACEMENT_3D ( 'NONE', #270, #801, #919 ) ;
#536 =( NAMED_UNIT ( * ) PLANE_ANGLE_UNIT ( ) SI_UNIT ( $, .RADIAN. ) );
#537 = ORIENTED_EDGE ( 'NONE', *, *, #1024, .T. ) ;
#538 = DIRECTION ( 'NONE',  ( -2.168404344971007685E-15, 9.403954806578294809E-31, -1.000000000000000000 ) ) ;
#539 = CARTESIAN_POINT ( 'NONE',  ( 0.4999999999999995559, 0.4899999999999998801, 0.2500000000000000000 ) ) ;
#540 = FACE_OUTER_BOUND ( 'NONE', #517, .T. ) ;
#541 = EDGE_CURVE ( 'NONE', #123, #12, #932, .T. ) ;
#542 = EDGE_CURVE ( 'NONE', #985, #897, #1222, .T. ) ;
#543 = EDGE_CURVE ( 'NONE', #799, #490, #654, .T. ) ;
#544 = LINE ( 'NONE', #451, #828 ) ;
#545 = LINE ( 'NONE', #67, #736 ) ;
#546 = CARTESIAN_POINT ( 'NONE',  ( -0.4754999999999991456, 0.4654999999999998583, -1.298275727087105036 ) ) ;
#547 = CARTESIAN_POINT ( 'NONE',  ( 0.4250000000000005440, 0.4899999999999994360, 0.2499999999999991396 ) ) ;
#548 = MANIFOLD_SOLID_BREP ( 'Cut-Extrude2[2]', #94 ) ;
#549 = CARTESIAN_POINT ( 'NONE',  ( -0.4249999999999995448, 0.4655000000000003024, 0.2500000000000000000 ) ) ;
#550 = VECTOR ( 'NONE', #303, 1000.000000000000000 ) ;
#551 = DIRECTION ( 'NONE',  ( 4.336808689942017736E-16, -1.000000000000000000, 0.000000000000000000 ) ) ;
#552 = CARTESIAN_POINT ( 'NONE',  ( 0.3499999999999996447, 0.4899999999999995470, -0.1666666666666673513 ) ) ;
#553 = DIRECTION ( 'NONE',  ( -1.084202172485504434E-16, -0.000000000000000000, -1.000000000000000000 ) ) ;
#554 = MECHANICAL_DESIGN_GEOMETRIC_PRESENTATION_REPRESENTATION (  '', ( #77 ), #11 ) ;
#555 = EDGE_LOOP ( 'NONE', ( #584, #579, #227, #834 ) ) ;
#556 = CARTESIAN_POINT ( 'NONE',  ( 0.000000000000000000, 0.4899999999999996581, 0.000000000000000000 ) ) ;
#557 = VERTEX_POINT ( 'NONE', #288 ) ;
#558 = DIRECTION ( 'NONE',  ( 2.168404344971008868E-16, 0.000000000000000000, 1.000000000000000000 ) ) ;
#559 = DIRECTION ( 'NONE',  ( -0.000000000000000000, -0.000000000000000000, -1.000000000000000000 ) ) ;
#560 = EDGE_LOOP ( 'NONE', ( #1066, #1202, #1147, #190, #963, #502, #850, #208 ) ) ;
#561 = PRESENTATION_STYLE_ASSIGNMENT (( #191 ) ) ;
#562 =( NAMED_UNIT ( * ) SI_UNIT ( $, .STERADIAN. ) SOLID_ANGLE_UNIT ( ) );
#563 = FACE_OUTER_BOUND ( 'NONE', #1078, .T. ) ;
#564 = VERTEX_POINT ( 'NONE', #840 ) ;
#565 = EDGE_CURVE ( 'NONE', #310, #156, #197, .T. ) ;
#566 = EDGE_LOOP ( 'NONE', ( #117, #526, #455, #1165 ) ) ;
#567 = CARTESIAN_POINT ( 'NONE',  ( -0.4754999999999995897, 0.02450000000000000441, 0.2500000000000000000 ) ) ;
#568 = SHAPE_DEFINITION_REPRESENTATION ( #1049, #768 ) ;
#569 = CARTESIAN_POINT ( 'NONE',  ( 0.4999999999999995559, 0.4899999999999998801, -0.2500000000000000000 ) ) ;
#570 = AXIS2_PLACEMENT_3D ( 'NONE', #1204, #267, #160 ) ;
#571 = ORIENTED_EDGE ( 'NONE', *, *, #458, .T. ) ;
#572 = VECTOR ( 'NONE', #792, 1000.000000000000000 ) ;
#573 = CARTESIAN_POINT ( 'NONE',  ( -0.2499999999999995837, -0.2416067811865469928, 0.2500000000000000000 ) ) ;
#574 = DIRECTION ( 'NONE',  ( -1.000000000000000000, 1.445602896647338522E-15, 0.000000000000000000 ) ) ;
#575 = AXIS2_PLACEMENT_3D ( 'NONE', #368, #663, #833 ) ;
#576 = ORIENTED_EDGE ( 'NONE', *, *, #387, .T. ) ;
#577 = DIRECTION ( 'NONE',  ( 0.000000000000000000, 0.000000000000000000, 1.000000000000000000 ) ) ;
#578 = CARTESIAN_POINT ( 'NONE',  ( 0.4754999999999995897, 0.4654999999999998583, 0.2500000000000000000 ) ) ;
#579 = ORIENTED_EDGE ( 'NONE', *, *, #61, .T. ) ;
#580 = MANIFOLD_SOLID_BREP ( 'Boss-Extrude2', #6 ) ;
#581 = ORIENTED_EDGE ( 'NONE', *, *, #102, .F. ) ;
#582 = CARTESIAN_POINT ( 'NONE',  ( 0.4250000000000003220, 0.4654999999999998583, 0.1666666666666657692 ) ) ;
#583 = LINE ( 'NONE', #210, #1044 ) ;
#584 = ORIENTED_EDGE ( 'NONE', *, *, #71, .F. ) ;
#585 = LINE ( 'NONE', #782, #99 ) ;
#586 = ORIENTED_EDGE ( 'NONE', *, *, #778, .F. ) ;
#587 = DIRECTION ( 'NONE',  ( -0.000000000000000000, -1.000000000000000000, -0.000000000000000000 ) ) ;
#588 = FACE_OUTER_BOUND ( 'NONE', #758, .T. ) ;
#589 = EDGE_CURVE ( 'NONE', #897, #188, #98, .T. ) ;
#590 = AXIS2_PLACEMENT_3D ( 'NONE', #410, #696, #225 ) ;
#591 = ORIENTED_EDGE ( 'NONE', *, *, #706, .T. ) ;
#592 = STYLED_ITEM ( 'NONE', ( #561 ), #548 ) ;
#593 = DIRECTION ( 'NONE',  ( -1.000000000000000000, 0.000000000000000000, -0.000000000000000000 ) ) ;
#594 = VERTEX_POINT ( 'NONE', #228 ) ;
#595 = VECTOR ( 'NONE', #855, 1000.000000000000000 ) ;
#596 = DIRECTION ( 'NONE',  ( 1.000000000000000000, 4.336808689942017736E-16, 0.000000000000000000 ) ) ;
#597 = CARTESIAN_POINT ( 'NONE',  ( -0.4754999999999995897, 0.4654999999999998583, 0.2500000000000000000 ) ) ;
#598 = EDGE_CURVE ( 'NONE', #1091, #26, #1168, .T. ) ;
#599 = EDGE_CURVE ( 'NONE', #245, #426, #126, .T. ) ;
#600 = CARTESIAN_POINT ( 'NONE',  ( -0.4754999999999995897, 0.02450000000000000441, -0.2500000000000000000 ) ) ;
#601 = DIRECTION ( 'NONE',  ( 1.000000000000000000, -1.445602896647338522E-15, -2.529805069132842365E-15 ) ) ;
#602 = ORIENTED_EDGE ( 'NONE', *, *, #260, .T. ) ;
#603 = LINE ( 'NONE', #976, #513 ) ;
#604 = DIRECTION ( 'NONE',  ( 1.000000000000000000, 0.000000000000000000, 3.614007241618346306E-16 ) ) ;
#605 = DIRECTION ( 'NONE',  ( -1.000000000000000000, 1.445602896647338522E-15, 2.168404344971007685E-15 ) ) ;
#606 = EDGE_CURVE ( 'NONE', #740, #287, #681, .T. ) ;
#607 = ORIENTED_EDGE ( 'NONE', *, *, #485, .T. ) ;
#608 = CARTESIAN_POINT ( 'NONE',  ( -0.4754999999999995897, 0.02450000000000000441, -0.2500000000000000000 ) ) ;
#609 = VERTEX_POINT ( 'NONE', #608 ) ;
#610 = PLANE ( 'NONE',  #1138 ) ;
#611 = VERTEX_POINT ( 'NONE', #987 ) ;
#612 = DIRECTION ( 'NONE',  ( 0.000000000000000000, 1.000000000000000000, 0.000000000000000000 ) ) ;
#613 = VECTOR ( 'NONE', #612, 1000.000000000000000 ) ;
#614 = DIRECTION ( 'NONE',  ( -1.000000000000000000, 0.000000000000000000, 0.000000000000000000 ) ) ;
#615 = AXIS2_PLACEMENT_3D ( 'NONE', #88, #95, #950 ) ;
#616 = PRESENTATION_LAYER_ASSIGNMENT (  '', '', ( #889 ) ) ;
#617 = ORIENTED_EDGE ( 'NONE', *, *, #283, .T. ) ;
#618 = DIRECTION ( 'NONE',  ( 0.000000000000000000, 0.000000000000000000, -1.000000000000000000 ) ) ;
#619 = ADVANCED_FACE ( 'NONE', ( #118 ), #217, .F. ) ;
#620 = LINE ( 'NONE', #711, #853 ) ;
#621 = ORIENTED_EDGE ( 'NONE', *, *, #29, .F. ) ;
#622 = ORIENTED_EDGE ( 'NONE', *, *, #130, .F. ) ;
#623 = LINE ( 'NONE', #907, #634 ) ;
#624 = ORIENTED_EDGE ( 'NONE', *, *, #1002, .F. ) ;
#625 = CARTESIAN_POINT ( 'NONE',  ( 0.2499999999999995282, 0.000000000000000000, 0.2500000000000000000 ) ) ;
#626 = LINE ( 'NONE', #1000, #988 ) ;
#627 = LINE ( 'NONE', #925, #256 ) ;
#628 = CARTESIAN_POINT ( 'NONE',  ( 0.4250000000000003220, 0.4899999999999994360, 0.1666666666666657692 ) ) ;
#629 = AXIS2_PLACEMENT_3D ( 'NONE', #800, #1160, #409 ) ;
#630 = CARTESIAN_POINT ( 'NONE',  ( -0.4754999999999995897, 0.02450000000000000441, 0.2500000000000000000 ) ) ;
#631 = EDGE_CURVE ( 'NONE', #783, #662, #518, .T. ) ;
#632 = LINE ( 'NONE', #738, #220 ) ;
#633 = LINE ( 'NONE', #252, #1135 ) ;
#634 = VECTOR ( 'NONE', #345, 1000.000000000000000 ) ;
#635 = EDGE_CURVE ( 'NONE', #702, #206, #694, .T. ) ;
#636 = ORIENTED_EDGE ( 'NONE', *, *, #825, .T. ) ;
#637 = DIRECTION ( 'NONE',  ( 0.000000000000000000, -0.000000000000000000, -1.000000000000000000 ) ) ;
#638 = EDGE_LOOP ( 'NONE', ( #943, #439, #1139, #393 ) ) ;
#639 = CARTESIAN_POINT ( 'NONE',  ( 0.4754999999999995897, 0.4654999999999998583, -0.2500000000000000000 ) ) ;
#640 = CARTESIAN_POINT ( 'NONE',  ( 0.2499999999999995282, 0.02450000000000000094, -0.2500000000000000000 ) ) ;
#641 = PLANE ( 'NONE',  #923 ) ;
#642 = DIRECTION ( 'NONE',  ( 0.000000000000000000, -0.000000000000000000, -1.000000000000000000 ) ) ;
#643 = LINE ( 'NONE', #824, #708 ) ;
#644 = DIRECTION ( 'NONE',  ( -1.000000000000000000, 4.336808689942017736E-16, -0.000000000000000000 ) ) ;
#645 = DIRECTION ( 'NONE',  ( 0.000000000000000000, 1.000000000000000000, 0.000000000000000000 ) ) ;
#646 = ADVANCED_FACE ( 'NONE', ( #510 ), #423, .F. ) ;
#647 = ORIENTED_EDGE ( 'NONE', *, *, #843, .F. ) ;
#648 = CARTESIAN_POINT ( 'NONE',  ( 0.4250000000000003220, 0.4654999999999998583, 0.1666666666666657692 ) ) ;
#649 = VECTOR ( 'NONE', #958, 1000.000000000000000 ) ;
#650 = CARTESIAN_POINT ( 'NONE',  ( -0.2499999999999995282, 0.02450000000000000094, 0.2500000000000000000 ) ) ;
#651 = FACE_OUTER_BOUND ( 'NONE', #505, .T. ) ;
#652 = FACE_OUTER_BOUND ( 'NONE', #224, .T. ) ;
#653 = EDGE_LOOP ( 'NONE', ( #856, #296, #1036, #823 ) ) ;
#654 = LINE ( 'NONE', #846, #1155 ) ;
#655 = PRESENTATION_STYLE_ASSIGNMENT (( #477 ) ) ;
#656 = EDGE_CURVE ( 'NONE', #304, #1032, #888, .T. ) ;
#657 = EDGE_LOOP ( 'NONE', ( #938, #576, #617, #462, #571, #1042, #509, #134 ) ) ;
#658 = DIRECTION ( 'NONE',  ( -1.084202172485504434E-16, -0.000000000000000000, -1.000000000000000000 ) ) ;
#659 = ORIENTED_EDGE ( 'NONE', *, *, #716, .T. ) ;
#660 = DIRECTION ( 'NONE',  ( -2.602085213965209458E-15, 0.000000000000000000, -1.000000000000000000 ) ) ;
#661 = DIRECTION ( 'NONE',  ( -1.000000000000000000, 0.000000000000000000, 0.000000000000000000 ) ) ;
#662 = VERTEX_POINT ( 'NONE', #1148 ) ;
#663 = DIRECTION ( 'NONE',  ( 0.000000000000000000, 0.000000000000000000, -1.000000000000000000 ) ) ;
#664 = DIRECTION ( 'NONE',  ( 4.336808689942017243E-16, 1.000000000000000000, -0.000000000000000000 ) ) ;
#665 = ORIENTED_EDGE ( 'NONE', *, *, #221, .F. ) ;
#666 = LINE ( 'NONE', #185, #373 ) ;
#667 = EDGE_CURVE ( 'NONE', #384, #245, #877, .T. ) ;
#668 = EDGE_CURVE ( 'NONE', #114, #304, #603, .T. ) ;
#669 = ORIENTED_EDGE ( 'NONE', *, *, #122, .F. ) ;
#670 = CARTESIAN_POINT ( 'NONE',  ( -0.4249999999999995448, 0.4899999999999998801, 0.1666666666666666852 ) ) ;
#671 = AXIS2_PLACEMENT_3D ( 'NONE', #539, #551, #525 ) ;
#672 = PRODUCT_DEFINITION_FORMATION_WITH_SPECIFIED_SOURCE ( 'ANY', '', #135, .NOT_KNOWN. ) ;
#673 = ORIENTED_EDGE ( 'NONE', *, *, #1128, .T. ) ;
#674 =( LENGTH_UNIT ( ) NAMED_UNIT ( * ) SI_UNIT ( .MILLI., .METRE. ) );
#675 = DIRECTION ( 'NONE',  ( -1.000000000000000000, 0.000000000000000000, 0.000000000000000000 ) ) ;
#676 = EDGE_CURVE ( 'NONE', #184, #594, #503, .T. ) ;
#677 = ORIENTED_EDGE ( 'NONE', *, *, #326, .F. ) ;
#678 = LINE ( 'NONE', #496, #870 ) ;
#679 = EDGE_CURVE ( 'NONE', #390, #960, #791, .T. ) ;
#680 = ORIENTED_EDGE ( 'NONE', *, *, #735, .T. ) ;
#681 = LINE ( 'NONE', #687, #947 ) ;
#682 = LINE ( 'NONE', #1055, #882 ) ;
#683 = ORIENTED_EDGE ( 'NONE', *, *, #1177, .T. ) ;
#684 = CARTESIAN_POINT ( 'NONE',  ( -0.3499999999999995337, 0.4899999999999996581, 0.2500000000000000000 ) ) ;
#685 = ORIENTED_EDGE ( 'NONE', *, *, #326, .T. ) ;
#686 = EDGE_CURVE ( 'NONE', #231, #3, #176, .T. ) ;
#687 = CARTESIAN_POINT ( 'NONE',  ( -0.4999999999999995559, -6.123233995736762338E-17, 0.2500000000000000000 ) ) ;
#688 = CARTESIAN_POINT ( 'NONE',  ( -0.2499999999999995837, 0.4899999999999996581, -0.2500000000000000000 ) ) ;
#689 = CARTESIAN_POINT ( 'NONE',  ( -0.4754999999999995897, 0.02450000000000000441, -0.2500000000000000000 ) ) ;
#690 = VECTOR ( 'NONE', #1092, 1000.000000000000000 ) ;
#691 = DIRECTION ( 'NONE',  ( -2.602085213965209458E-15, -0.000000000000000000, -1.000000000000000000 ) ) ;
#692 = ORIENTED_EDGE ( 'NONE', *, *, #875, .F. ) ;
#693 = VECTOR ( 'NONE', #601, 1000.000000000000000 ) ;
#694 = LINE ( 'NONE', #872, #356 ) ;
#695 = ADVANCED_FACE ( 'NONE', ( #1011 ), #922, .T. ) ;
#696 = DIRECTION ( 'NONE',  ( -4.336808689942017736E-16, -1.000000000000000000, 0.000000000000000000 ) ) ;
#697 = DIRECTION ( 'NONE',  ( 0.000000000000000000, 0.000000000000000000, -1.000000000000000000 ) ) ;
#698 = EDGE_CURVE ( 'NONE', #714, #1185, #715, .T. ) ;
#699 = ORIENTED_EDGE ( 'NONE', *, *, #606, .F. ) ;
#700 = LINE ( 'NONE', #630, #218 ) ;
#701 = CARTESIAN_POINT ( 'NONE',  ( -0.4754999999999995897, 0.02450000000000000441, -1.298275727087105036 ) ) ;
#702 = VERTEX_POINT ( 'NONE', #547 ) ;
#703 = LINE ( 'NONE', #1077, #336 ) ;
#704 = ORIENTED_EDGE ( 'NONE', *, *, #598, .T. ) ;
#705 = ORIENTED_EDGE ( 'NONE', *, *, #967, .F. ) ;
#706 = EDGE_CURVE ( 'NONE', #3, #184, #1086, .T. ) ;
#707 = FACE_OUTER_BOUND ( 'NONE', #1006, .T. ) ;
#708 = VECTOR ( 'NONE', #1018, 1000.000000000000000 ) ;
#709 = VERTEX_POINT ( 'NONE', #155 ) ;
#710 = VECTOR ( 'NONE', #262, 1000.000000000000000 ) ;
#711 = CARTESIAN_POINT ( 'NONE',  ( -0.4754999999999995897, 0.02450000000000000441, 0.2500000000000000000 ) ) ;
#712 = LINE ( 'NONE', #600, #1194 ) ;
#713 = PRODUCT_DEFINITION ( 'UNKNOWN', '', #672, #478 ) ;
#714 = VERTEX_POINT ( 'NONE', #816 ) ;
#715 = LINE ( 'NONE', #917, #1175 ) ;
#716 = EDGE_CURVE ( 'NONE', #702, #747, #1095, .T. ) ;
#717 = ORIENTED_EDGE ( 'NONE', *, *, #527, .F. ) ;
#718 = PLANE ( 'NONE',  #847 ) ;
#719 = DIRECTION ( 'NONE',  ( 0.000000000000000000, 0.000000000000000000, -1.000000000000000000 ) ) ;
#720 = DIRECTION ( 'NONE',  ( 0.000000000000000000, 0.000000000000000000, 1.000000000000000000 ) ) ;
#721 = FILL_AREA_STYLE ('',( #62 ) ) ;
#722 = ADVANCED_FACE ( 'NONE', ( #707 ), #1004, .F. ) ;
#723 = LINE ( 'NONE', #254, #710 ) ;
#724 = CARTESIAN_POINT ( 'NONE',  ( 0.4249999999999994893, 0.4654999999999998583, -0.2500000000000008327 ) ) ;
#725 = CARTESIAN_POINT ( 'NONE',  ( -0.4249999999999996003, 0.4655000000000003024, -0.2499999999999999445 ) ) ;
#726 = CARTESIAN_POINT ( 'NONE',  ( 0.4754999999999995897, 0.02450000000000000441, -1.298275727087105036 ) ) ;
#727 = VECTOR ( 'NONE', #793, 1000.000000000000000 ) ;
#728 = EDGE_LOOP ( 'NONE', ( #845, #586, #450, #624 ) ) ;
#729 = PLANE ( 'NONE',  #302 ) ;
#730 = VECTOR ( 'NONE', #346, 1000.000000000000000 ) ;
#731 = LINE ( 'NONE', #274, #730 ) ;
#732 = DIRECTION ( 'NONE',  ( 0.000000000000000000, -0.000000000000000000, -1.000000000000000000 ) ) ;
#733 = LINE ( 'NONE', #60, #30 ) ;
#734 = AXIS2_PLACEMENT_3D ( 'NONE', #883, #1150, #1140 ) ;
#735 = EDGE_CURVE ( 'NONE', #188, #802, #1190, .T. ) ;
#736 = VECTOR ( 'NONE', #732, 1000.000000000000000 ) ;
#737 = CARTESIAN_POINT ( 'NONE',  ( -0.4249999999999996003, 0.4655000000000003024, -0.2499999999999999445 ) ) ;
#738 = CARTESIAN_POINT ( 'NONE',  ( 0.4999999999999995559, -6.123233995736762338E-17, 0.2500000000000000000 ) ) ;
#739 = DIRECTION ( 'NONE',  ( -2.602085213965212219E-15, -0.000000000000000000, -1.000000000000000000 ) ) ;
#740 = VERTEX_POINT ( 'NONE', #248 ) ;
#741 = CARTESIAN_POINT ( 'NONE',  ( -0.4754999999999991456, 0.4654999999999998583, -1.298275727087105036 ) ) ;
#742 = PRODUCT_CONTEXT ( 'NONE', #233, 'mechanical' ) ;
#743 = DIRECTION ( 'NONE',  ( -1.788933584601082711E-15, -0.000000000000000000, -1.000000000000000000 ) ) ;
#744 = CARTESIAN_POINT ( 'NONE',  ( 0.2499999999999995282, 0.000000000000000000, 0.2500000000000000000 ) ) ;
#745 = DIRECTION ( 'NONE',  ( 2.168404344971008868E-16, 0.000000000000000000, 1.000000000000000000 ) ) ;
#746 = ADVANCED_FACE ( 'NONE', ( #521 ), #729, .F. ) ;
#747 = VERTEX_POINT ( 'NONE', #628 ) ;
#748 =( LENGTH_UNIT ( ) NAMED_UNIT ( * ) SI_UNIT ( .MILLI., .METRE. ) );
#749 = VECTOR ( 'NONE', #1217, 1000.000000000000000 ) ;
#750 = DIRECTION ( 'NONE',  ( 0.000000000000000000, 0.000000000000000000, -1.000000000000000000 ) ) ;
#751 = AXIS2_PLACEMENT_3D ( 'NONE', #546, #200, #86 ) ;
#752 = ORIENTED_EDGE ( 'NONE', *, *, #71, .T. ) ;
#753 = CARTESIAN_POINT ( 'NONE',  ( 0.3500000000000002554, 0.4654999999999998583, -0.2500000000000000000 ) ) ;
#754 = EDGE_CURVE ( 'NONE', #287, #3, #623, .T. ) ;
#755 = CARTESIAN_POINT ( 'NONE',  ( 0.2499999999999995282, 0.02450000000000000094, 0.2500000000000000000 ) ) ;
#756 = ORIENTED_EDGE ( 'NONE', *, *, #327, .F. ) ;
#757 = CARTESIAN_POINT ( 'NONE',  ( -0.4999999999999995559, 0.4899999999999998801, 0.2500000000000000000 ) ) ;
#758 = EDGE_LOOP ( 'NONE', ( #370, #203, #520, #465 ) ) ;
#759 = CARTESIAN_POINT ( 'NONE',  ( 0.3500000000000002554, 0.4899999999999996581, -0.2500000000000000000 ) ) ;
#760 = CARTESIAN_POINT ( 'NONE',  ( -0.4249999999999995448, 0.4655000000000003024, 0.1666666666666666852 ) ) ;
#761 = EDGE_CURVE ( 'NONE', #384, #789, #723, .T. ) ;
#762 = EDGE_LOOP ( 'NONE', ( #864, #291, #46, #273 ) ) ;
#763 = ADVANCED_FACE ( 'NONE', ( #767 ), #1129, .F. ) ;
#764 = EDGE_CURVE ( 'NONE', #709, #594, #1040, .T. ) ;
#765 = PLANE ( 'NONE',  #394 ) ;
#766 = ORIENTED_EDGE ( 'NONE', *, *, #676, .T. ) ;
#767 = FACE_OUTER_BOUND ( 'NONE', #480, .T. ) ;
#768 = ADVANCED_BREP_SHAPE_REPRESENTATION ( 'ERB-RD0R50X', ( #580, #982, #548, #962, #36 ), #971 ) ;
#769 = VERTEX_POINT ( 'NONE', #109 ) ;
#770 =( LENGTH_UNIT ( ) NAMED_UNIT ( * ) SI_UNIT ( .MILLI., .METRE. ) );
#771 = ORIENTED_EDGE ( 'NONE', *, *, #1054, .F. ) ;
#772 = VECTOR ( 'NONE', #143, 1000.000000000000000 ) ;
#773 = AXIS2_PLACEMENT_3D ( 'NONE', #311, #137, #492 ) ;
#774 = CARTESIAN_POINT ( 'NONE',  ( 0.4249999999999997113, 0.4654999999999998583, -0.1666666666666675178 ) ) ;
#775 = SURFACE_STYLE_FILL_AREA ( #944 ) ;
#776 = FACE_OUTER_BOUND ( 'NONE', #494, .T. ) ;
#777 = ORIENTED_EDGE ( 'NONE', *, *, #875, .T. ) ;
#778 = EDGE_CURVE ( 'NONE', #384, #390, #298, .T. ) ;
#779 = DIRECTION ( 'NONE',  ( 1.000000000000000000, 0.000000000000000000, 0.000000000000000000 ) ) ;
#780 = DIRECTION ( 'NONE',  ( -1.000000000000000000, 0.000000000000000000, 0.000000000000000000 ) ) ;
#781 = ORIENTED_EDGE ( 'NONE', *, *, #13, .T. ) ;
#782 = CARTESIAN_POINT ( 'NONE',  ( -0.4249999999999995448, 0.4655000000000003024, 0.1666666666666666852 ) ) ;
#783 = VERTEX_POINT ( 'NONE', #670 ) ;
#784 = EDGE_CURVE ( 'NONE', #802, #470, #937, .T. ) ;
#785 = LINE ( 'NONE', #405, #396 ) ;
#786 = VECTOR ( 'NONE', #1020, 1000.000000000000000 ) ;
#787 = LINE ( 'NONE', #689, #115 ) ;
#788 = CARTESIAN_POINT ( 'NONE',  ( 0.2499999999999995282, 0.02450000000000000094, 0.2500000000000000000 ) ) ;
#789 = VERTEX_POINT ( 'NONE', #1111 ) ;
#790 = STYLED_ITEM ( 'NONE', ( #146 ), #982 ) ;
#791 = LINE ( 'NONE', #1159, #1005 ) ;
#792 = DIRECTION ( 'NONE',  ( -1.788933584601082711E-15, -0.000000000000000000, -1.000000000000000000 ) ) ;
#793 = DIRECTION ( 'NONE',  ( 4.336808689942017243E-16, 1.000000000000000000, -0.000000000000000000 ) ) ;
#794 = EDGE_LOOP ( 'NONE', ( #1221, #529, #752, #58 ) ) ;
#795 = DIRECTION ( 'NONE',  ( 0.000000000000000000, 1.000000000000000000, 0.000000000000000000 ) ) ;
#796 = CARTESIAN_POINT ( 'NONE',  ( 0.3500000000000002554, 0.4654999999999999694, 0.1666666666666659358 ) ) ;
#797 = ORIENTED_EDGE ( 'NONE', *, *, #784, .F. ) ;
#798 = CARTESIAN_POINT ( 'NONE',  ( -0.2499999999999995282, 0.02450000000000000094, 0.2500000000000000000 ) ) ;
#799 = VERTEX_POINT ( 'NONE', #207 ) ;
#800 = CARTESIAN_POINT ( 'NONE',  ( 0.4754999999999995897, 0.02450000000000000441, 0.2500000000000000000 ) ) ;
#801 = DIRECTION ( 'NONE',  ( 1.502497467413392881E-17, -1.000000000000000000, 0.000000000000000000 ) ) ;
#802 = VERTEX_POINT ( 'NONE', #481 ) ;
#803 = SURFACE_STYLE_FILL_AREA ( #721 ) ;
#804 = STYLED_ITEM ( 'NONE', ( #1208 ), #580 ) ;
#805 = ORIENTED_EDGE ( 'NONE', *, *, #698, .T. ) ;
#806 = CARTESIAN_POINT ( 'NONE',  ( -0.2499999999999995282, 0.000000000000000000, -0.2500000000000000000 ) ) ;
#807 = VECTOR ( 'NONE', #374, 1000.000000000000000 ) ;
#808 = ORIENTED_EDGE ( 'NONE', *, *, #1128, .F. ) ;
#809 = FACE_OUTER_BOUND ( 'NONE', #566, .T. ) ;
#810 =( GEOMETRIC_REPRESENTATION_CONTEXT ( 3 ) GLOBAL_UNCERTAINTY_ASSIGNED_CONTEXT ( ( #1169 ) ) GLOBAL_UNIT_ASSIGNED_CONTEXT ( ( #1182, #536, #1033 ) ) REPRESENTATION_CONTEXT ( 'NONE', 'WORKASPACE' ) );
#811 = EDGE_CURVE ( 'NONE', #26, #783, #202, .T. ) ;
#812 = LINE ( 'NONE', #257, #1216 ) ;
#813 = VERTEX_POINT ( 'NONE', #942 ) ;
#814 = SURFACE_STYLE_USAGE ( .BOTH. , #238 ) ;
#815 = ADVANCED_FACE ( 'NONE', ( #652 ), #461, .T. ) ;
#816 = CARTESIAN_POINT ( 'NONE',  ( 0.2499999999999995282, 0.02450000000000000094, 0.2500000000000000000 ) ) ;
#817 = ORIENTED_EDGE ( 'NONE', *, *, #930, .T. ) ;
#818 = CARTESIAN_POINT ( 'NONE',  ( 0.4249999999999994893, 0.4899999999999994360, -0.2500000000000008327 ) ) ;
#819 = LINE ( 'NONE', #1090, #786 ) ;
#820 = PRODUCT_RELATED_PRODUCT_CATEGORY ( 'part', '', ( #135 ) ) ;
#821 = EDGE_LOOP ( 'NONE', ( #876, #1085, #264, #868, #647, #1022, #108, #886 ) ) ;
#822 = CARTESIAN_POINT ( 'NONE',  ( 0.000000000000000000, 0.000000000000000000, -0.2500000000000000000 ) ) ;
#823 = ORIENTED_EDGE ( 'NONE', *, *, #2, .F. ) ;
#824 = CARTESIAN_POINT ( 'NONE',  ( -0.2499999999999995282, 0.000000000000000000, 0.2500000000000000000 ) ) ;
#825 = EDGE_CURVE ( 'NONE', #193, #1185, #103, .T. ) ;
#826 = FACE_OUTER_BOUND ( 'NONE', #821, .T. ) ;
#827 = DIRECTION ( 'NONE',  ( -1.000000000000000000, 9.834033310526121680E-16, 0.000000000000000000 ) ) ;
#828 = VECTOR ( 'NONE', #901, 1000.000000000000000 ) ;
#829 = CARTESIAN_POINT ( 'NONE',  ( 0.4250000000000005440, 0.4654999999999998583, 0.2499999999999991396 ) ) ;
#830 = CARTESIAN_POINT ( 'NONE',  ( 0.4999999999999995559, -6.123233995736762338E-17, -0.2500000000000000000 ) ) ;
#831 = DIRECTION ( 'NONE',  ( 0.000000000000000000, 1.000000000000000000, 0.000000000000000000 ) ) ;
#832 = PRESENTATION_LAYER_ASSIGNMENT (  '', '', ( #77 ) ) ;
#833 = DIRECTION ( 'NONE',  ( -1.000000000000000000, 0.000000000000000000, -0.000000000000000000 ) ) ;
#834 = ORIENTED_EDGE ( 'NONE', *, *, #1024, .F. ) ;
#835 = CARTESIAN_POINT ( 'NONE',  ( -0.2499999999999995282, 0.000000000000000000, 0.2500000000000000000 ) ) ;
#836 = LINE ( 'NONE', #360, #1109 ) ;
#837 = LINE ( 'NONE', #753, #121 ) ;
#838 = EDGE_CURVE ( 'NONE', #714, #114, #375, .T. ) ;
#839 = VERTEX_POINT ( 'NONE', #1220 ) ;
#840 = CARTESIAN_POINT ( 'NONE',  ( -0.4249999999999995448, 0.4655000000000003024, 0.2500000000000000000 ) ) ;
#841 = DIRECTION ( 'NONE',  ( 0.000000000000000000, 0.000000000000000000, 1.000000000000000000 ) ) ;
#842 = CARTESIAN_POINT ( 'NONE',  ( -0.3499999999999995892, 0.4655000000000001914, -0.1666666666666665741 ) ) ;
#843 = EDGE_CURVE ( 'NONE', #747, #1183, #1, .T. ) ;
#844 = CARTESIAN_POINT ( 'NONE',  ( 0.2499999999999995282, 0.02450000000000000094, -0.2500000000000000000 ) ) ;
#845 = ORIENTED_EDGE ( 'NONE', *, *, #369, .T. ) ;
#846 = CARTESIAN_POINT ( 'NONE',  ( -0.3499999999999995892, 0.4655000000000001914, -0.1666666666666665741 ) ) ;
#847 = AXIS2_PLACEMENT_3D ( 'NONE', #924, #78, #1087 ) ;
#848 = LINE ( 'NONE', #1224, #1021 ) ;
#849 = VECTOR ( 'NONE', #574, 1000.000000000000000 ) ;
#850 = ORIENTED_EDGE ( 'NONE', *, *, #489, .F. ) ;
#851 = PLANE ( 'NONE',  #204 ) ;
#852 = APPLICATION_CONTEXT ( 'automotive_design' ) ;
#853 = VECTOR ( 'NONE', #1192, 1000.000000000000000 ) ;
#854 = EDGE_CURVE ( 'NONE', #165, #891, #35, .T. ) ;
#855 = DIRECTION ( 'NONE',  ( 1.000000000000000000, 1.502497467413392881E-17, 0.000000000000000000 ) ) ;
#856 = ORIENTED_EDGE ( 'NONE', *, *, #13, .F. ) ;
#857 = DIRECTION ( 'NONE',  ( 0.000000000000000000, 0.000000000000000000, 1.000000000000000000 ) ) ;
#858 = PLANE ( 'NONE',  #8 ) ;
#859 = ORIENTED_EDGE ( 'NONE', *, *, #896, .T. ) ;
#860 = ORIENTED_EDGE ( 'NONE', *, *, #811, .F. ) ;
#861 = SURFACE_SIDE_STYLE ('',( #775 ) ) ;
#862 = EDGE_CURVE ( 'NONE', #1120, #242, #124, .T. ) ;
#863 = EDGE_LOOP ( 'NONE', ( #166, #528, #983, #420 ) ) ;
#864 = ORIENTED_EDGE ( 'NONE', *, *, #1039, .F. ) ;
#865 = CARTESIAN_POINT ( 'NONE',  ( -0.4999999999999995559, 0.4899999999999998801, -0.2500000000000000000 ) ) ;
#866 = EDGE_CURVE ( 'NONE', #1122, #193, #507, .T. ) ;
#867 = AXIS2_PLACEMENT_3D ( 'NONE', #955, #10, #464 ) ;
#868 = ORIENTED_EDGE ( 'NONE', *, *, #366, .F. ) ;
#869 = LINE ( 'NONE', #788, #279 ) ;
#870 = VECTOR ( 'NONE', #1164, 1000.000000000000000 ) ;
#871 = ORIENTED_EDGE ( 'NONE', *, *, #495, .T. ) ;
#872 = CARTESIAN_POINT ( 'NONE',  ( 0.4999999999999995559, 0.4899999999999998801, 0.2500000000000000000 ) ) ;
#873 = ORIENTED_EDGE ( 'NONE', *, *, #113, .T. ) ;
#874 = CARTESIAN_POINT ( 'NONE',  ( 0.4249999999999997113, 0.4899999999999994360, -0.1666666666666675178 ) ) ;
#875 = EDGE_CURVE ( 'NONE', #740, #231, #678, .T. ) ;
#876 = ORIENTED_EDGE ( 'NONE', *, *, #246, .F. ) ;
#877 = LINE ( 'NONE', #22, #1025 ) ;
#878 = LINE ( 'NONE', #320, #727 ) ;
#879 = CARTESIAN_POINT ( 'NONE',  ( 0.4754999999999995897, 0.02450000000000000441, -1.298275727087105036 ) ) ;
#880 = CARTESIAN_POINT ( 'NONE',  ( 0.3499999999999996447, 0.4654999999999999694, -0.1666666666666673513 ) ) ;
#881 = CARTESIAN_POINT ( 'NONE',  ( 0.3500000000000003109, 0.4899999999999996581, 0.2500000000000000000 ) ) ;
#882 = VECTOR ( 'NONE', #1143, 1000.000000000000000 ) ;
#883 = CARTESIAN_POINT ( 'NONE',  ( 0.3500000000000002554, 0.4654999999999998583, -0.2500000000000000000 ) ) ;
#884 = ADVANCED_FACE ( 'NONE', ( #395 ), #610, .T. ) ;
#885 = VECTOR ( 'NONE', #43, 1000.000000000000000 ) ;
#886 = ORIENTED_EDGE ( 'NONE', *, *, #411, .T. ) ;
#887 = VECTOR ( 'NONE', #553, 1000.000000000000000 ) ;
#888 = LINE ( 'NONE', #404, #182 ) ;
#889 = STYLED_ITEM ( 'NONE', ( #655 ), #768 ) ;
#890 = CARTESIAN_POINT ( 'NONE',  ( 0.4754999999999995897, 0.4654999999999998583, 0.2500000000000000000 ) ) ;
#891 = VERTEX_POINT ( 'NONE', #501 ) ;
#892 = DIRECTION ( 'NONE',  ( -1.000000000000000000, 1.502497467413392881E-17, 0.000000000000000000 ) ) ;
#893 = ORIENTED_EDGE ( 'NONE', *, *, #122, .T. ) ;
#894 = CARTESIAN_POINT ( 'NONE',  ( -0.4249999999999995448, 0.4899999999999998801, 0.1666666666666666852 ) ) ;
#895 = UNCERTAINTY_MEASURE_WITH_UNIT (LENGTH_MEASURE( 1.000000000000000082E-05 ), #674, 'distance_accuracy_value', 'NONE');
#896 = EDGE_CURVE ( 'NONE', #89, #783, #585, .T. ) ;
#897 = VERTEX_POINT ( 'NONE', #488 ) ;
#898 = EDGE_LOOP ( 'NONE', ( #54, #97, #136, #805 ) ) ;
#899 = CARTESIAN_POINT ( 'NONE',  ( 0.000000000000000000, 0.000000000000000000, 0.2500000000000000000 ) ) ;
#900 = ORIENTED_EDGE ( 'NONE', *, *, #240, .F. ) ;
#901 = DIRECTION ( 'NONE',  ( 0.000000000000000000, -0.000000000000000000, -1.000000000000000000 ) ) ;
#902 = CARTESIAN_POINT ( 'NONE',  ( -0.4754999999999995897, 0.02450000000000000441, -1.298275727087105036 ) ) ;
#903 = ORIENTED_EDGE ( 'NONE', *, *, #706, .F. ) ;
#904 = ADVANCED_FACE ( 'NONE', ( #1145 ), #419, .T. ) ;
#905 = VECTOR ( 'NONE', #430, 1000.000000000000000 ) ;
#906 = ORIENTED_EDGE ( 'NONE', *, *, #896, .F. ) ;
#907 = CARTESIAN_POINT ( 'NONE',  ( -0.4999999999999995559, -6.123233995736762338E-17, 0.2500000000000000000 ) ) ;
#908 = VECTOR ( 'NONE', #642, 1000.000000000000000 ) ;
#909 = ORIENTED_EDGE ( 'NONE', *, *, #1043, .T. ) ;
#910 = CARTESIAN_POINT ( 'NONE',  ( -0.3499999999999996447, 0.4654999999999998583, -0.2500000000000000000 ) ) ;
#911 = DIRECTION ( 'NONE',  ( -0.000000000000000000, -0.000000000000000000, -1.000000000000000000 ) ) ;
#912 = EDGE_CURVE ( 'NONE', #1032, #397, #412, .T. ) ;
#913 = ORIENTED_EDGE ( 'NONE', *, *, #764, .F. ) ;
#914 = DIRECTION ( 'NONE',  ( -1.000000000000000000, 0.000000000000000000, 2.168404344971007685E-15 ) ) ;
#915 = CARTESIAN_POINT ( 'NONE',  ( -0.4754999999999991456, 0.4654999999999998583, -0.2500000000000000000 ) ) ;
#916 =( NAMED_UNIT ( * ) SI_UNIT ( $, .STERADIAN. ) SOLID_ANGLE_UNIT ( ) );
#917 = CARTESIAN_POINT ( 'NONE',  ( 0.2499999999999995282, 0.02450000000000000094, 0.2500000000000000000 ) ) ;
#918 = FACE_OUTER_BOUND ( 'NONE', #863, .T. ) ;
#919 = DIRECTION ( 'NONE',  ( -1.000000000000000000, -1.502497467413392881E-17, 0.000000000000000000 ) ) ;
#920 = LINE ( 'NONE', #1103, #74 ) ;
#921 = LINE ( 'NONE', #1028, #807 ) ;
#922 = PLANE ( 'NONE',  #1064 ) ;
#923 = AXIS2_PLACEMENT_3D ( 'NONE', #1187, #179, #174 ) ;
#924 = CARTESIAN_POINT ( 'NONE',  ( -0.4754999999999995897, 0.02450000000000000441, 0.2500000000000000000 ) ) ;
#925 = CARTESIAN_POINT ( 'NONE',  ( 0.4249999999999994893, 0.4654999999999998583, -0.2500000000000008327 ) ) ;
#926 = ADVANCED_FACE ( 'NONE', ( #970 ), #1065, .T. ) ;
#927 = VECTOR ( 'NONE', #334, 1000.000000000000000 ) ;
#928 = LINE ( 'NONE', #80, #261 ) ;
#929 = DIRECTION ( 'NONE',  ( -4.336808689942017243E-16, -1.000000000000000000, 0.000000000000000000 ) ) ;
#930 = EDGE_CURVE ( 'NONE', #557, #611, #25, .T. ) ;
#931 = ORIENTED_EDGE ( 'NONE', *, *, #686, .T. ) ;
#932 = LINE ( 'NONE', #282, #1003 ) ;
#933 = DIRECTION ( 'NONE',  ( 0.000000000000000000, 0.000000000000000000, 1.000000000000000000 ) ) ;
#934 = EDGE_CURVE ( 'NONE', #338, #714, #869, .T. ) ;
#935 = ORIENTED_EDGE ( 'NONE', *, *, #679, .F. ) ;
#936 = DIRECTION ( 'NONE',  ( 0.000000000000000000, -1.000000000000000000, -0.000000000000000000 ) ) ;
#937 = LINE ( 'NONE', #454, #357 ) ;
#938 = ORIENTED_EDGE ( 'NONE', *, *, #63, .T. ) ;
#939 = DIRECTION ( 'NONE',  ( 0.000000000000000000, 0.000000000000000000, 1.000000000000000000 ) ) ;
#940 = ORIENTED_EDGE ( 'NONE', *, *, #1213, .F. ) ;
#941 = CARTESIAN_POINT ( 'NONE',  ( 0.4249999999999994893, 0.4654999999999998583, -0.2500000000000008327 ) ) ;
#942 = CARTESIAN_POINT ( 'NONE',  ( -0.4249999999999996003, 0.4655000000000003024, -0.1666666666666666019 ) ) ;
#943 = ORIENTED_EDGE ( 'NONE', *, *, #327, .T. ) ;
#944 = FILL_AREA_STYLE ('',( #295 ) ) ;
#945 =( GEOMETRIC_REPRESENTATION_CONTEXT ( 3 ) GLOBAL_UNCERTAINTY_ASSIGNED_CONTEXT ( ( #895 ) ) GLOBAL_UNIT_ASSIGNED_CONTEXT ( ( #674, #391, #1134 ) ) REPRESENTATION_CONTEXT ( 'NONE', 'WORKASPACE' ) );
#946 = CARTESIAN_POINT ( 'NONE',  ( 0.4999999999999995559, -6.123233995736762338E-17, 0.2500000000000000000 ) ) ;
#947 = VECTOR ( 'NONE', #587, 1000.000000000000000 ) ;
#948 = VECTOR ( 'NONE', #936, 1000.000000000000000 ) ;
#949 = ORIENTED_EDGE ( 'NONE', *, *, #1039, .T. ) ;
#950 = DIRECTION ( 'NONE',  ( 2.168404344971009115E-16, 0.000000000000000000, 1.000000000000000000 ) ) ;
#951 = EDGE_CURVE ( 'NONE', #609, #188, #401, .T. ) ;
#952 = ORIENTED_EDGE ( 'NONE', *, *, #1189, .T. ) ;
#953 = APPLICATION_PROTOCOL_DEFINITION ( 'draft international standard', 'automotive_design', 1998, #233 ) ;
#954 = UNCERTAINTY_MEASURE_WITH_UNIT (LENGTH_MEASURE( 1.000000000000000082E-05 ), #770, 'distance_accuracy_value', 'NONE');
#955 = CARTESIAN_POINT ( 'NONE',  ( -0.2499999999999995282, 0.000000000000000000, 0.2500000000000000000 ) ) ;
#956 = ORIENTED_EDGE ( 'NONE', *, *, #472, .T. ) ;
#957 = EDGE_LOOP ( 'NONE', ( #797, #1132, #434, #82, #150, #903, #142, #1105 ) ) ;
#958 = DIRECTION ( 'NONE',  ( -1.000000000000000000, -0.000000000000000000, -0.000000000000000000 ) ) ;
#959 = FACE_OUTER_BOUND ( 'NONE', #898, .T. ) ;
#960 = VERTEX_POINT ( 'NONE', #684 ) ;
#961 = DIRECTION ( 'NONE',  ( 0.000000000000000000, 0.000000000000000000, -1.000000000000000000 ) ) ;
#962 = MANIFOLD_SOLID_BREP ( 'Boss-Extrude4', #1041 ) ;
#963 = ORIENTED_EDGE ( 'NONE', *, *, #838, .F. ) ;
#964 = CARTESIAN_POINT ( 'NONE',  ( -0.3499999999999995892, 0.4899999999999997691, -0.1666666666666665741 ) ) ;
#965 = AXIS2_PLACEMENT_3D ( 'NONE', #974, #128, #604 ) ;
#966 = DIRECTION ( 'NONE',  ( 0.000000000000000000, 0.000000000000000000, 1.000000000000000000 ) ) ;
#967 = EDGE_CURVE ( 'NONE', #114, #1133, #1057, .T. ) ;
#968 = ORIENTED_EDGE ( 'NONE', *, *, #17, .T. ) ;
#969 = AXIS2_PLACEMENT_3D ( 'NONE', #879, #223, #697 ) ;
#970 = FACE_OUTER_BOUND ( 'NONE', #555, .T. ) ;
#971 =( GEOMETRIC_REPRESENTATION_CONTEXT ( 3 ) GLOBAL_UNCERTAINTY_ASSIGNED_CONTEXT ( ( #241 ) ) GLOBAL_UNIT_ASSIGNED_CONTEXT ( ( #437, #379, #365 ) ) REPRESENTATION_CONTEXT ( 'NONE', 'WORKASPACE' ) );
#972 = ORIENTED_EDGE ( 'NONE', *, *, #541, .T. ) ;
#973 = CARTESIAN_POINT ( 'NONE',  ( -0.4754999999999995897, 0.4654999999999998583, 0.2500000000000000000 ) ) ;
#974 = CARTESIAN_POINT ( 'NONE',  ( -0.4249999999999996003, 0.4655000000000003024, -0.1666666666666666019 ) ) ;
#975 = FILL_AREA_STYLE_COLOUR ( '', #376 ) ;
#976 = CARTESIAN_POINT ( 'NONE',  ( 0.4754999999999995897, 0.02450000000000000441, 0.2500000000000000000 ) ) ;
#977 = EDGE_CURVE ( 'NONE', #709, #985, #163, .T. ) ;
#978 = EDGE_LOOP ( 'NONE', ( #1076, #677, #669, #333 ) ) ;
#979 = EDGE_CURVE ( 'NONE', #338, #193, #41, .T. ) ;
#980 = PRESENTATION_STYLE_ASSIGNMENT (( #226 ) ) ;
#981 = EDGE_LOOP ( 'NONE', ( #1034, #705, #332, #154 ) ) ;
#982 = MANIFOLD_SOLID_BREP ( 'Cut-Extrude2[1]', #28 ) ;
#983 = ORIENTED_EDGE ( 'NONE', *, *, #542, .F. ) ;
#984 = VECTOR ( 'NONE', #133, 1000.000000000000000 ) ;
#985 = VERTEX_POINT ( 'NONE', #453 ) ;
#986 = AXIS2_PLACEMENT_3D ( 'NONE', #760, #195, #929 ) ;
#987 = CARTESIAN_POINT ( 'NONE',  ( 0.4249999999999997113, 0.4654999999999998583, -0.1666666666666675178 ) ) ;
#988 = VECTOR ( 'NONE', #532, 1000.000000000000000 ) ;
#989 = ORIENTED_EDGE ( 'NONE', *, *, #402, .F. ) ;
#990 = ORIENTED_EDGE ( 'NONE', *, *, #679, .T. ) ;
#991 = CARTESIAN_POINT ( 'NONE',  ( -0.4999999999999995559, -6.123233995736762338E-17, -0.2500000000000000000 ) ) ;
#992 = ADVANCED_FACE ( 'NONE', ( #1084 ), #285, .T. ) ;
#993 = EDGE_LOOP ( 'NONE', ( #249, #418, #756, #299 ) ) ;
#994 = CARTESIAN_POINT ( 'NONE',  ( 0.3499999999999996447, 0.4654999999999999694, -0.1666666666666673513 ) ) ;
#995 = CARTESIAN_POINT ( 'NONE',  ( 0.3500000000000002554, 0.4899999999999995470, 0.1666666666666659358 ) ) ;
#996 = ORIENTED_EDGE ( 'NONE', *, *, #102, .T. ) ;
#997 = ORIENTED_EDGE ( 'NONE', *, *, #246, .T. ) ;
#998 = DIRECTION ( 'NONE',  ( -1.000000000000000000, 0.000000000000000000, -0.000000000000000000 ) ) ;
#999 = CARTESIAN_POINT ( 'NONE',  ( -0.3499999999999995337, 0.4655000000000001914, 0.1666666666666666852 ) ) ;
#1000 = CARTESIAN_POINT ( 'NONE',  ( 0.4754999999999995897, 0.4654999999999998583, -0.2500000000000000000 ) ) ;
#1001 = DIRECTION ( 'NONE',  ( -0.000000000000000000, 1.000000000000000000, -0.000000000000000000 ) ) ;
#1002 = EDGE_CURVE ( 'NONE', #123, #245, #837, .T. ) ;
#1003 = VECTOR ( 'NONE', #301, 1000.000000000000000 ) ;
#1004 = PLANE ( 'NONE',  #1116 ) ;
#1005 = VECTOR ( 'NONE', #323, 1000.000000000000000 ) ;
#1006 = EDGE_LOOP ( 'NONE', ( #1083, #1207, #537, #1225 ) ) ;
#1007 = FACE_OUTER_BOUND ( 'NONE', #523, .T. ) ;
#1008 = DIRECTION ( 'NONE',  ( 4.336808689942017243E-16, 1.000000000000000000, -0.000000000000000000 ) ) ;
#1009 = CARTESIAN_POINT ( 'NONE',  ( -0.4249999999999995448, 0.4655000000000003024, 0.1666666666666666852 ) ) ;
#1010 = VERTEX_POINT ( 'NONE', #941 ) ;
#1011 = FACE_OUTER_BOUND ( 'NONE', #957, .T. ) ;
#1012 = ORIENTED_EDGE ( 'NONE', *, *, #297, .F. ) ;
#1013 = PLANE ( 'NONE',  #487 ) ;
#1014 = LINE ( 'NONE', #725, #534 ) ;
#1015 = PLANE ( 'NONE',  #1153 ) ;
#1016 = EDGE_CURVE ( 'NONE', #12, #426, #1201, .T. ) ;
#1017 = CARTESIAN_POINT ( 'NONE',  ( -0.2499999999999995282, 0.02450000000000000094, 0.2500000000000000000 ) ) ;
#1018 = DIRECTION ( 'NONE',  ( 1.000000000000000000, 2.449293598294704442E-16, -0.000000000000000000 ) ) ;
#1019 = DIRECTION ( 'NONE',  ( -4.336808689942017243E-16, -1.000000000000000000, 0.000000000000000000 ) ) ;
#1020 = DIRECTION ( 'NONE',  ( 1.000000000000000000, 0.000000000000000000, 0.000000000000000000 ) ) ;
#1021 = VECTOR ( 'NONE', #386, 1000.000000000000000 ) ;
#1022 = ORIENTED_EDGE ( 'NONE', *, *, #716, .F. ) ;
#1023 = AXIS2_PLACEMENT_3D ( 'NONE', #1097, #265, #1215 ) ;
#1024 = EDGE_CURVE ( 'NONE', #242, #310, #921, .T. ) ;
#1025 = VECTOR ( 'NONE', #408, 1000.000000000000000 ) ;
#1026 = CARTESIAN_POINT ( 'NONE',  ( 0.4754999999999995897, 0.02450000000000000441, 0.2500000000000000000 ) ) ;
#1027 = COLOUR_RGB ( '',0.7921568627450980005, 0.8196078431372548767, 0.9333333333333333481 ) ;
#1028 = CARTESIAN_POINT ( 'NONE',  ( 0.4754999999999995897, 0.02450000000000000441, 0.2500000000000000000 ) ) ;
#1029 = ORIENTED_EDGE ( 'NONE', *, *, #55, .T. ) ;
#1030 = DIRECTION ( 'NONE',  ( 1.000000000000000000, -4.336808689942017243E-16, -2.602085213965209458E-15 ) ) ;
#1031 = DIRECTION ( 'NONE',  ( -1.000000000000000000, 4.336808689942017736E-16, -0.000000000000000000 ) ) ;
#1032 = VERTEX_POINT ( 'NONE', #447 ) ;
#1033 =( NAMED_UNIT ( * ) SI_UNIT ( $, .STERADIAN. ) SOLID_ANGLE_UNIT ( ) );
#1034 = ORIENTED_EDGE ( 'NONE', *, *, #485, .F. ) ;
#1035 = CARTESIAN_POINT ( 'NONE',  ( -0.4999999999999995559, -6.123233995736762338E-17, 0.2500000000000000000 ) ) ;
#1036 = ORIENTED_EDGE ( 'NONE', *, *, #61, .F. ) ;
#1037 = DIRECTION ( 'NONE',  ( 1.000000000000000000, -2.449293598294704442E-16, 0.000000000000000000 ) ) ;
#1038 = ADVANCED_FACE ( 'NONE', ( #1127 ), #1104, .T. ) ;
#1039 = EDGE_CURVE ( 'NONE', #1185, #1133, #928, .T. ) ;
#1040 = LINE ( 'NONE', #293, #1096 ) ;
#1041 = CLOSED_SHELL ( 'NONE', ( #815, #1038, #992, #87, #469, #904 ) ) ;
#1042 = ORIENTED_EDGE ( 'NONE', *, *, #104, .T. ) ;
#1043 = EDGE_CURVE ( 'NONE', #769, #1122, #93, .T. ) ;
#1044 = VECTOR ( 'NONE', #841, 1000.000000000000000 ) ;
#1045 = CARTESIAN_POINT ( 'NONE',  ( -0.3499999999999995337, 0.4655000000000001914, 0.1666666666666666852 ) ) ;
#1046 = AXIS2_PLACEMENT_3D ( 'NONE', #842, #168, #1019 ) ;
#1047 = EDGE_LOOP ( 'NONE', ( #294, #906, #1012, #340 ) ) ;
#1048 = ORIENTED_EDGE ( 'NONE', *, *, #1161, .F. ) ;
#1049 = PRODUCT_DEFINITION_SHAPE ( 'NONE', 'NONE',  #713 ) ;
#1050 = CARTESIAN_POINT ( 'NONE',  ( -0.4249999999999996003, 0.4899999999999998801, -0.2499999999999999445 ) ) ;
#1051 = ORIENTED_EDGE ( 'NONE', *, *, #130, .T. ) ;
#1052 = CARTESIAN_POINT ( 'NONE',  ( -0.4754999999999995897, 0.02450000000000000441, 0.2500000000000000000 ) ) ;
#1053 = ORIENTED_EDGE ( 'NONE', *, *, #1163, .F. ) ;
#1054 = EDGE_CURVE ( 'NONE', #397, #747, #75, .T. ) ;
#1055 = CARTESIAN_POINT ( 'NONE',  ( -0.4249999999999996003, 0.4655000000000003024, -0.1666666666666666019 ) ) ;
#1056 = ORIENTED_EDGE ( 'NONE', *, *, #240, .T. ) ;
#1057 = LINE ( 'NONE', #268, #908 ) ;
#1058 = ORIENTED_EDGE ( 'NONE', *, *, #754, .T. ) ;
#1059 = VECTOR ( 'NONE', #911, 1000.000000000000000 ) ;
#1060 = DIRECTION ( 'NONE',  ( -1.000000000000000000, -0.000000000000000000, -0.000000000000000000 ) ) ;
#1061 = ADVANCED_FACE ( 'NONE', ( #1108 ), #851, .F. ) ;
#1062 = AXIS2_PLACEMENT_3D ( 'NONE', #597, #795, #127 ) ;
#1063 = DIRECTION ( 'NONE',  ( 1.000000000000000000, -1.445602896647338522E-15, 3.614007241618346306E-16 ) ) ;
#1064 = AXIS2_PLACEMENT_3D ( 'NONE', #822, #76, #171 ) ;
#1065 = PLANE ( 'NONE',  #969 ) ;
#1066 = ORIENTED_EDGE ( 'NONE', *, *, #635, .F. ) ;
#1067 = EDGE_CURVE ( 'NONE', #789, #960, #1219, .T. ) ;
#1068 = LINE ( 'NONE', #1154, #572 ) ;
#1069 = ORIENTED_EDGE ( 'NONE', *, *, #631, .T. ) ;
#1070 = SURFACE_SIDE_STYLE ('',( #129 ) ) ;
#1071 = ADVANCED_FACE ( 'NONE', ( #189 ), #382, .T. ) ;
#1072 = VERTEX_POINT ( 'NONE', #277 ) ;
#1073 = ORIENTED_EDGE ( 'NONE', *, *, #599, .T. ) ;
#1074 =( LENGTH_UNIT ( ) NAMED_UNIT ( * ) SI_UNIT ( .MILLI., .METRE. ) );
#1075 = ADVANCED_FACE ( 'NONE', ( #651 ), #460, .F. ) ;
#1076 = ORIENTED_EDGE ( 'NONE', *, *, #366, .T. ) ;
#1077 = CARTESIAN_POINT ( 'NONE',  ( -0.2499999999999995837, 0.4654999999999998583, 0.2500000000000000000 ) ) ;
#1078 = EDGE_LOOP ( 'NONE', ( #591, #622, #216, #1058 ) ) ;
#1079 = CARTESIAN_POINT ( 'NONE',  ( 0.2499999999999995282, 0.000000000000000000, 0.2500000000000000000 ) ) ;
#1080 = EDGE_LOOP ( 'NONE', ( #581, #781, #1029, #1053 ) ) ;
#1081 = VECTOR ( 'NONE', #1211, 1000.000000000000000 ) ;
#1082 = CARTESIAN_POINT ( 'NONE',  ( -0.3499999999999995892, 0.4655000000000001914, -0.1666666666666665741 ) ) ;
#1083 = ORIENTED_EDGE ( 'NONE', *, *, #1163, .T. ) ;
#1084 = FACE_OUTER_BOUND ( 'NONE', #101, .T. ) ;
#1085 = ORIENTED_EDGE ( 'NONE', *, *, #443, .F. ) ;
#1086 = LINE ( 'NONE', #806, #531 ) ;
#1087 = DIRECTION ( 'NONE',  ( 0.000000000000000000, 0.000000000000000000, 1.000000000000000000 ) ) ;
#1088 = EDGE_CURVE ( 'NONE', #206, #92, #632, .T. ) ;
#1089 = DIRECTION ( 'NONE',  ( 0.000000000000000000, -0.000000000000000000, -1.000000000000000000 ) ) ;
#1090 = CARTESIAN_POINT ( 'NONE',  ( -0.4754999999999995897, 0.4654999999999998583, 0.2500000000000000000 ) ) ;
#1091 = VERTEX_POINT ( 'NONE', #178 ) ;
#1092 = DIRECTION ( 'NONE',  ( 1.000000000000000000, 0.000000000000000000, 0.000000000000000000 ) ) ;
#1093 = DIRECTION ( 'NONE',  ( 0.000000000000000000, 0.000000000000000000, 1.000000000000000000 ) ) ;
#1094 = FACE_OUTER_BOUND ( 'NONE', #638, .T. ) ;
#1095 = LINE ( 'NONE', #69, #927 ) ;
#1096 = VECTOR ( 'NONE', #559, 1000.000000000000000 ) ;
#1097 = CARTESIAN_POINT ( 'NONE',  ( 0.000000000000000000, 0.000000000000000000, -0.2500000000000000000 ) ) ;
#1098 = MECHANICAL_DESIGN_GEOMETRIC_PRESENTATION_REPRESENTATION (  '', ( #889 ), #515 ) ;
#1099 = LINE ( 'NONE', #425, #1198 ) ;
#1100 = DIRECTION ( 'NONE',  ( 0.000000000000000000, -0.000000000000000000, -1.000000000000000000 ) ) ;
#1101 = EDGE_CURVE ( 'NONE', #802, #813, #1014, .T. ) ;
#1102 = PLANE ( 'NONE',  #535 ) ;
#1103 = CARTESIAN_POINT ( 'NONE',  ( 0.3499999999999996447, 0.4654999999999999694, -0.1666666666666673513 ) ) ;
#1104 = PLANE ( 'NONE',  #575 ) ;
#1105 = ORIENTED_EDGE ( 'NONE', *, *, #1189, .F. ) ;
#1106 = CARTESIAN_POINT ( 'NONE',  ( -0.2499999999999995282, 0.4899999999999996581, 0.2500000000000000000 ) ) ;
#1107 = PLANE ( 'NONE',  #570 ) ;
#1108 = FACE_OUTER_BOUND ( 'NONE', #131, .T. ) ;
#1109 = VECTOR ( 'NONE', #831, 1000.000000000000000 ) ;
#1110 = VECTOR ( 'NONE', #1001, 1000.000000000000000 ) ;
#1111 = CARTESIAN_POINT ( 'NONE',  ( -0.3499999999999996447, 0.4899999999999996581, -0.2500000000000000000 ) ) ;
#1112 = EDGE_CURVE ( 'NONE', #799, #1091, #353, .T. ) ;
#1113 =( GEOMETRIC_REPRESENTATION_CONTEXT ( 3 ) GLOBAL_UNCERTAINTY_ASSIGNED_CONTEXT ( ( #424 ) ) GLOBAL_UNIT_ASSIGNED_CONTEXT ( ( #748, #421, #38 ) ) REPRESENTATION_CONTEXT ( 'NONE', 'WORKASPACE' ) );
#1114 = EDGE_LOOP ( 'NONE', ( #125, #996, #145, #57 ) ) ;
#1115 = SURFACE_STYLE_FILL_AREA ( #83 ) ;
#1116 = AXIS2_PLACEMENT_3D ( 'NONE', #1184, #618, #998 ) ;
#1117 = SURFACE_SIDE_STYLE ('',( #392 ) ) ;
#1118 = PLANE ( 'NONE',  #52 ) ;
#1119 = AXIS2_PLACEMENT_3D ( 'NONE', #266, #45, #719 ) ;
#1120 = VERTEX_POINT ( 'NONE', #441 ) ;
#1121 = DIRECTION ( 'NONE',  ( 1.000000000000000000, 1.502497467413392881E-17, 0.000000000000000000 ) ) ;
#1122 = VERTEX_POINT ( 'NONE', #830 ) ;
#1123 = FILL_AREA_STYLE_COLOUR ( '', #319 ) ;
#1124 = FACE_OUTER_BOUND ( 'NONE', #1047, .T. ) ;
#1125 = ADVANCED_FACE ( 'NONE', ( #826 ), #1172, .F. ) ;
#1126 = ORIENTED_EDGE ( 'NONE', *, *, #977, .F. ) ;
#1127 = FACE_OUTER_BOUND ( 'NONE', #993, .T. ) ;
#1128 = EDGE_CURVE ( 'NONE', #611, #891, #812, .T. ) ;
#1129 = PLANE ( 'NONE',  #986 ) ;
#1130 = ORIENTED_EDGE ( 'NONE', *, *, #161, .F. ) ;
#1131 = LINE ( 'NONE', #757, #508 ) ;
#1132 = ORIENTED_EDGE ( 'NONE', *, *, #735, .F. ) ;
#1133 = VERTEX_POINT ( 'NONE', #1180 ) ;
#1134 =( NAMED_UNIT ( * ) SI_UNIT ( $, .STERADIAN. ) SOLID_ANGLE_UNIT ( ) );
#1135 = VECTOR ( 'NONE', #344, 1000.000000000000000 ) ;
#1136 = VECTOR ( 'NONE', #151, 1000.000000000000000 ) ;
#1137 = DIRECTION ( 'NONE',  ( -1.000000000000000000, 0.000000000000000000, 0.000000000000000000 ) ) ;
#1138 = AXIS2_PLACEMENT_3D ( 'NONE', #116, #961, #593 ) ;
#1139 = ORIENTED_EDGE ( 'NONE', *, *, #402, .T. ) ;
#1140 = DIRECTION ( 'NONE',  ( -1.084202172485504557E-16, 0.000000000000000000, -1.000000000000000000 ) ) ;
#1141 = ORIENTED_EDGE ( 'NONE', *, *, #383, .F. ) ;
#1142 = EDGE_CURVE ( 'NONE', #42, #1183, #1099, .T. ) ;
#1143 = DIRECTION ( 'NONE',  ( 1.000000000000000000, -1.445602896647338522E-15, 3.614007241618346306E-16 ) ) ;
#1144 = VERTEX_POINT ( 'NONE', #915 ) ;
#1145 = FACE_OUTER_BOUND ( 'NONE', #212, .T. ) ;
#1146 = ADVANCED_FACE ( 'NONE', ( #244 ), #337, .F. ) ;
#1147 = ORIENTED_EDGE ( 'NONE', *, *, #656, .F. ) ;
#1148 = CARTESIAN_POINT ( 'NONE',  ( -0.4249999999999995448, 0.4899999999999998801, 0.2500000000000000000 ) ) ;
#1149 = EDGE_LOOP ( 'NONE', ( #105, #1141, #1126, #196 ) ) ;
#1150 = DIRECTION ( 'NONE',  ( 1.000000000000000000, 0.000000000000000000, -1.084202172485504557E-16 ) ) ;
#1151 = ORIENTED_EDGE ( 'NONE', *, *, #912, .F. ) ;
#1152 = ADVANCED_FACE ( 'NONE', ( #348 ), #1102, .F. ) ;
#1153 = AXIS2_PLACEMENT_3D ( 'NONE', #556, #645, #169 ) ;
#1154 = CARTESIAN_POINT ( 'NONE',  ( 0.3499999999999996447, 0.4899999999999995470, -0.1666666666666673513 ) ) ;
#1155 = VECTOR ( 'NONE', #476, 1000.000000000000000 ) ;
#1156 = LINE ( 'NONE', #229, #275 ) ;
#1157 = VECTOR ( 'NONE', #48, 1000.000000000000000 ) ;
#1158 = FILL_AREA_STYLE ('',( #975 ) ) ;
#1159 = CARTESIAN_POINT ( 'NONE',  ( -0.3499999999999995337, 0.4654999999999998583, 0.2500000000000000000 ) ) ;
#1160 = DIRECTION ( 'NONE',  ( 1.000000000000000000, 0.000000000000000000, -0.000000000000000000 ) ) ;
#1161 = EDGE_CURVE ( 'NONE', #304, #1072, #545, .T. ) ;
#1162 = ORIENTED_EDGE ( 'NONE', *, *, #656, .T. ) ;
#1163 = EDGE_CURVE ( 'NONE', #156, #1120, #620, .T. ) ;
#1164 = DIRECTION ( 'NONE',  ( -0.000000000000000000, -0.000000000000000000, -1.000000000000000000 ) ) ;
#1165 = ORIENTED_EDGE ( 'NONE', *, *, #784, .T. ) ;
#1166 = FACE_OUTER_BOUND ( 'NONE', #978, .T. ) ;
#1167 = FACE_OUTER_BOUND ( 'NONE', #482, .T. ) ;
#1168 = LINE ( 'NONE', #964, #772 ) ;
#1169 = UNCERTAINTY_MEASURE_WITH_UNIT (LENGTH_MEASURE( 1.000000000000000082E-05 ), #1182, 'distance_accuracy_value', 'NONE');
#1170 = ORIENTED_EDGE ( 'NONE', *, *, #866, .F. ) ;
#1171 = CARTESIAN_POINT ( 'NONE',  ( -0.4754999999999991456, 0.4654999999999998583, -0.2500000000000000000 ) ) ;
#1172 = PLANE ( 'NONE',  #671 ) ;
#1173 = ORIENTED_EDGE ( 'NONE', *, *, #1142, .F. ) ;
#1174 = VECTOR ( 'NONE', #463, 1000.000000000000000 ) ;
#1175 = VECTOR ( 'NONE', #637, 1000.000000000000000 ) ;
#1176 = EDGE_LOOP ( 'NONE', ( #931, #247, #699, #777 ) ) ;
#1177 = EDGE_CURVE ( 'NONE', #397, #42, #251, .T. ) ;
#1178 = DIRECTION ( 'NONE',  ( -1.000000000000000000, 0.000000000000000000, -0.000000000000000000 ) ) ;
#1179 = DIRECTION ( 'NONE',  ( -4.336808689942017243E-16, -1.000000000000000000, 0.000000000000000000 ) ) ;
#1180 = CARTESIAN_POINT ( 'NONE',  ( 0.4754999999999995897, 0.02450000000000000441, -0.2500000000000000000 ) ) ;
#1181 = CARTESIAN_POINT ( 'NONE',  ( 0.2499999999999995282, 0.000000000000000000, -0.2500000000000000000 ) ) ;
#1182 =( LENGTH_UNIT ( ) NAMED_UNIT ( * ) SI_UNIT ( .MILLI., .METRE. ) );
#1183 = VERTEX_POINT ( 'NONE', #995 ) ;
#1184 = CARTESIAN_POINT ( 'NONE',  ( 0.000000000000000000, 0.000000000000000000, 0.2500000000000000000 ) ) ;
#1185 = VERTEX_POINT ( 'NONE', #640 ) ;
#1186 = LINE ( 'NONE', #829, #1136 ) ;
#1187 = CARTESIAN_POINT ( 'NONE',  ( 0.4249999999999997113, 0.4654999999999998583, -0.1666666666666675178 ) ) ;
#1188 = ORIENTED_EDGE ( 'NONE', *, *, #297, .T. ) ;
#1189 = EDGE_CURVE ( 'NONE', #470, #231, #72, .T. ) ;
#1190 = LINE ( 'NONE', #149, #318 ) ;
#1191 = DIRECTION ( 'NONE',  ( -1.000000000000000000, 4.336808689942017243E-16, 0.000000000000000000 ) ) ;
#1192 = DIRECTION ( 'NONE',  ( -9.834033310526119708E-16, -1.000000000000000000, -0.000000000000000000 ) ) ;
#1193 = DIRECTION ( 'NONE',  ( -9.834033310526121680E-16, -1.000000000000000000, 0.000000000000000000 ) ) ;
#1194 = VECTOR ( 'NONE', #432, 1000.000000000000000 ) ;
#1195 = AXIS2_PLACEMENT_3D ( 'NONE', #582, #1030, #660 ) ;
#1196 = VECTOR ( 'NONE', #431, 1000.000000000000000 ) ;
#1197 = LINE ( 'NONE', #549, #905 ) ;
#1198 = VECTOR ( 'NONE', #343, 1000.000000000000000 ) ;
#1199 = CARTESIAN_POINT ( 'NONE',  ( 0.3500000000000002554, 0.4654999999999999694, 0.1666666666666659358 ) ) ;
#1200 = PLANE ( 'NONE',  #201 ) ;
#1201 = LINE ( 'NONE', #759, #887 ) ;
#1202 = ORIENTED_EDGE ( 'NONE', *, *, #472, .F. ) ;
#1203 = DIRECTION ( 'NONE',  ( -2.602085213965212219E-15, -0.000000000000000000, -1.000000000000000000 ) ) ;
#1204 = CARTESIAN_POINT ( 'NONE',  ( 0.4249999999999994893, 0.4654999999999998583, -0.2500000000000008327 ) ) ;
#1205 = ADVANCED_FACE ( 'NONE', ( #159 ), #152, .T. ) ;
#1206 = CARTESIAN_POINT ( 'NONE',  ( 0.4250000000000003220, 0.4654999999999998583, 0.1666666666666657692 ) ) ;
#1207 = ORIENTED_EDGE ( 'NONE', *, *, #862, .T. ) ;
#1208 = PRESENTATION_STYLE_ASSIGNMENT (( #471 ) ) ;
#1209 = CARTESIAN_POINT ( 'NONE',  ( 0.000000000000000000, 0.000000000000000000, 0.000000000000000000 ) ) ;
#1210 = CARTESIAN_POINT ( 'NONE',  ( 0.3500000000000002554, 0.4654999999999998583, -0.2500000000000000000 ) ) ;
#1211 = DIRECTION ( 'NONE',  ( 0.000000000000000000, 1.000000000000000000, 0.000000000000000000 ) ) ;
#1212 = AXIS2_PLACEMENT_3D ( 'NONE', #880, #31, #331 ) ;
#1213 = EDGE_CURVE ( 'NONE', #1072, #1010, #626, .T. ) ;
#1214 = EDGE_LOOP ( 'NONE', ( #659, #771, #1151, #956 ) ) ;
#1215 = DIRECTION ( 'NONE',  ( 1.000000000000000000, 0.000000000000000000, 0.000000000000000000 ) ) ;
#1216 = VECTOR ( 'NONE', #1008, 1000.000000000000000 ) ;
#1217 = DIRECTION ( 'NONE',  ( 0.000000000000000000, 0.000000000000000000, 1.000000000000000000 ) ) ;
#1218 = ORIENTED_EDGE ( 'NONE', *, *, #63, .F. ) ;
#1219 = LINE ( 'NONE', #361, #514 ) ;
#1220 = CARTESIAN_POINT ( 'NONE',  ( -0.4249999999999996003, 0.4899999999999998801, -0.1666666666666666019 ) ) ;
#1221 = ORIENTED_EDGE ( 'NONE', *, *, #55, .F. ) ;
#1222 = LINE ( 'NONE', #567, #1174 ) ;
#1223 =( NAMED_UNIT ( * ) PLANE_ANGLE_UNIT ( ) SI_UNIT ( $, .RADIAN. ) );
#1224 = CARTESIAN_POINT ( 'NONE',  ( -0.3499999999999995337, 0.4655000000000001914, 0.1666666666666666852 ) ) ;
#1225 = ORIENTED_EDGE ( 'NONE', *, *, #565, .T. ) ;
ENDSEC;
END-ISO-10303-21;
