ISO-10303-21;
HEADER;
FILE_DESCRIPTION (( 'STEP AP214' ),
    '1' );
FILE_NAME ('HK060310NJ-T.STEP',
    '2019-12-26T22:43:43',
    ( '' ),
    ( '' ),
    'SwSTEP 2.0',
    'SolidWorks 2018',
    '' );
FILE_SCHEMA (( 'AUTOMOTIVE_DESIGN' ));
ENDSEC;

DATA;
#1 = DIRECTION ( 'NONE',  ( 0.0000000000000000000, 0.0000000000000000000, -1.000000000000000000 ) ) ;
#2 = DIRECTION ( 'NONE',  ( -1.000000000000000000, -0.0000000000000000000, 8.673617379884036705E-17 ) ) ;
#3 = AXIS2_PLACEMENT_3D ( 'NONE', #1038, #739, #1237 ) ;
#4 = EDGE_CURVE ( 'NONE', #865, #210, #1225, .T. ) ;
#5 = CIRCLE ( 'NONE', #751, 0.01499999999999998557 ) ;
#6 = DIRECTION ( 'NONE',  ( 0.0000000000000000000, 1.000000000000000000, 0.0000000000000000000 ) ) ;
#7 = FACE_OUTER_BOUND ( 'NONE', #909, .T. ) ;
#8 = VECTOR ( 'NONE', #688, 1000.000000000000000 ) ;
#9 = ADVANCED_FACE ( 'NONE', ( #542 ), #327, .F. ) ;
#10 = ORIENTED_EDGE ( 'NONE', *, *, #1077, .T. ) ;
#11 = CARTESIAN_POINT ( 'NONE',  ( -0.3000000000000005440, 0.3300000000000000155, 0.1499999999999998557 ) ) ;
#12 = EDGE_LOOP ( 'NONE', ( #126, #86, #296, #1185 ) ) ;
#13 = EDGE_CURVE ( 'NONE', #940, #576, #736, .T. ) ;
#14 = EDGE_LOOP ( 'NONE', ( #1110, #411, #1051, #1148 ) ) ;
#15 = UNCERTAINTY_MEASURE_WITH_UNIT (LENGTH_MEASURE( 1.000000000000000082E-05 ), #1223, 'distance_accuracy_value', 'NONE');
#16 = AXIS2_PLACEMENT_3D ( 'NONE', #146, #338, #829 ) ;
#17 = VERTEX_POINT ( 'NONE', #224 ) ;
#18 = DIRECTION ( 'NONE',  ( 0.0000000000000000000, 0.0000000000000000000, 1.000000000000000000 ) ) ;
#19 = DIRECTION ( 'NONE',  ( 1.000000000000000000, 0.0000000000000000000, 0.0000000000000000000 ) ) ;
#20 = PLANE ( 'NONE',  #702 ) ;
#21 = AXIS2_PLACEMENT_3D ( 'NONE', #658, #357, #1055 ) ;
#22 = ADVANCED_FACE ( 'NONE', ( #165 ), #1245, .T. ) ;
#23 = VECTOR ( 'NONE', #269, 1000.000000000000000 ) ;
#24 = SURFACE_SIDE_STYLE ('',( #587 ) ) ;
#25 = VECTOR ( 'NONE', #788, 1000.000000000000000 ) ;
#26 = ORIENTED_EDGE ( 'NONE', *, *, #717, .T. ) ;
#27 = ORIENTED_EDGE ( 'NONE', *, *, #782, .F. ) ;
#28 = ORIENTED_EDGE ( 'NONE', *, *, #551, .T. ) ;
#29 = DIRECTION ( 'NONE',  ( 3.614007241618348376E-15, 0.0000000000000000000, 1.000000000000000000 ) ) ;
#30 = EDGE_CURVE ( 'NONE', #1082, #424, #1000, .T. ) ;
#31 = CLOSED_SHELL ( 'NONE', ( #1203, #685, #1073, #95, #115, #1088, #401, #289, #388, #1100 ) ) ;
#32 = PLANE ( 'NONE',  #54 ) ;
#33 = DIRECTION ( 'NONE',  ( 7.228014483236698528E-16, -0.0000000000000000000, -1.000000000000000000 ) ) ;
#34 = COLOUR_RGB ( '',0.7921568627450980005, 0.8196078431372548767, 0.9333333333333333481 ) ;
#35 = CIRCLE ( 'NONE', #882, 0.01500000000000001159 ) ;
#36 = CARTESIAN_POINT ( 'NONE',  ( -0.3000000000000003775, 0.3150000000000000022, -0.1500000000000000777 ) ) ;
#37 = CIRCLE ( 'NONE', #414, 0.01499999999999999944 ) ;
#38 = CARTESIAN_POINT ( 'NONE',  ( 0.2850000000000005862, 0.01499999999999998557, 0.1349999999999998701 ) ) ;
#39 = FACE_OUTER_BOUND ( 'NONE', #1118, .T. ) ;
#40 = ORIENTED_EDGE ( 'NONE', *, *, #481, .T. ) ;
#41 = CARTESIAN_POINT ( 'NONE',  ( -0.2000000000000005107, 0.3150000000000000022, 0.1449999999999998512 ) ) ;
#42 = ORIENTED_EDGE ( 'NONE', *, *, #799, .F. ) ;
#43 = DIRECTION ( 'NONE',  ( 0.0000000000000000000, 0.0000000000000000000, 1.000000000000000000 ) ) ;
#44 = ORIENTED_EDGE ( 'NONE', *, *, #743, .F. ) ;
#45 = CARTESIAN_POINT ( 'NONE',  ( 0.2000000000000005107, 0.3300000000000000155, -0.1349999999999998701 ) ) ;
#46 = AXIS2_PLACEMENT_3D ( 'NONE', #1142, #828, #728 ) ;
#47 = DIRECTION ( 'NONE',  ( -1.000000000000000000, 0.0000000000000000000, 7.228014483236698528E-16 ) ) ;
#48 = DIRECTION ( 'NONE',  ( -0.0000000000000000000, -0.0000000000000000000, -1.000000000000000000 ) ) ;
#49 =( LENGTH_UNIT ( ) NAMED_UNIT ( * ) SI_UNIT ( .MILLI., .METRE. ) );
#50 = LINE ( 'NONE', #1061, #672 ) ;
#51 = EDGE_CURVE ( 'NONE', #70, #1138, #795, .T. ) ;
#52 = VECTOR ( 'NONE', #257, 1000.000000000000000 ) ;
#53 = LINE ( 'NONE', #1241, #69 ) ;
#54 = AXIS2_PLACEMENT_3D ( 'NONE', #1099, #123, #905 ) ;
#55 = CARTESIAN_POINT ( 'NONE',  ( -0.3000000000000003775, 0.3300000000000000155, -0.1500000000000000777 ) ) ;
#56 = ORIENTED_EDGE ( 'NONE', *, *, #799, .T. ) ;
#57 = ORIENTED_EDGE ( 'NONE', *, *, #1052, .T. ) ;
#58 = ORIENTED_EDGE ( 'NONE', *, *, #966, .F. ) ;
#59 = DIRECTION ( 'NONE',  ( 0.0000000000000000000, 0.0000000000000000000, 1.000000000000000000 ) ) ;
#60 = DIRECTION ( 'NONE',  ( -1.000000000000000000, -0.0000000000000000000, 8.673617379884036705E-17 ) ) ;
#61 = ORIENTED_EDGE ( 'NONE', *, *, #284, .T. ) ;
#62 = AXIS2_PLACEMENT_3D ( 'NONE', #337, #537, #362 ) ;
#63 = CARTESIAN_POINT ( 'NONE',  ( 0.2000000000000005107, 0.01499999999999998557, 0.1349999999999998701 ) ) ;
#64 = DIRECTION ( 'NONE',  ( 0.0000000000000000000, 0.0000000000000000000, -1.000000000000000000 ) ) ;
#65 = FACE_OUTER_BOUND ( 'NONE', #787, .T. ) ;
#66 = LINE ( 'NONE', #281, #1026 ) ;
#67 = VECTOR ( 'NONE', #474, 1000.000000000000000 ) ;
#68 = AXIS2_PLACEMENT_3D ( 'NONE', #949, #563, #265 ) ;
#69 = VECTOR ( 'NONE', #753, 1000.000000000000000 ) ;
#70 = VERTEX_POINT ( 'NONE', #232 ) ;
#71 =( NAMED_UNIT ( * ) PLANE_ANGLE_UNIT ( ) SI_UNIT ( $, .RADIAN. ) );
#72 = DIRECTION ( 'NONE',  ( 0.0000000000000000000, -1.000000000000000000, 0.0000000000000000000 ) ) ;
#73 = VERTEX_POINT ( 'NONE', #628 ) ;
#74 = DIRECTION ( 'NONE',  ( -0.0000000000000000000, 1.000000000000000000, -0.0000000000000000000 ) ) ;
#75 = EDGE_LOOP ( 'NONE', ( #143, #1015, #266, #754 ) ) ;
#76 = CARTESIAN_POINT ( 'NONE',  ( 500000.0000000000582, 0.3250000000000000111, -0.1350000000433679848 ) ) ;
#77 = EDGE_CURVE ( 'NONE', #202, #835, #489, .T. ) ;
#78 = AXIS2_PLACEMENT_3D ( 'NONE', #192, #596, #1089 ) ;
#79 = DIRECTION ( 'NONE',  ( 0.0000000000000000000, 0.0000000000000000000, -1.000000000000000000 ) ) ;
#80 = CIRCLE ( 'NONE', #1001, 0.01499999999999998557 ) ;
#81 = CARTESIAN_POINT ( 'NONE',  ( -0.2000000000000005107, 0.01499999999999998557, -0.1349999999999998701 ) ) ;
#82 = FACE_OUTER_BOUND ( 'NONE', #607, .T. ) ;
#83 = DIRECTION ( 'NONE',  ( 1.000000000000000000, 0.0000000000000000000, 0.0000000000000000000 ) ) ;
#84 = ORIENTED_EDGE ( 'NONE', *, *, #1243, .T. ) ;
#85 = AXIS2_PLACEMENT_3D ( 'NONE', #807, #707, #711 ) ;
#86 = ORIENTED_EDGE ( 'NONE', *, *, #1032, .F. ) ;
#87 = DIRECTION ( 'NONE',  ( 0.0000000000000000000, 0.0000000000000000000, -1.000000000000000000 ) ) ;
#88 = ORIENTED_EDGE ( 'NONE', *, *, #681, .F. ) ;
#89 = CARTESIAN_POINT ( 'NONE',  ( 500000.0000000000582, 0.3150000000000000022, 0.1449999999566317366 ) ) ;
#90 = CARTESIAN_POINT ( 'NONE',  ( -0.2850000000000003642, 0.3300000000000000155, -0.1350000000000000644 ) ) ;
#91 = EDGE_CURVE ( 'NONE', #419, #448, #1046, .T. ) ;
#92 = FACE_OUTER_BOUND ( 'NONE', #383, .T. ) ;
#93 = DIRECTION ( 'NONE',  ( 1.000000000000000000, 0.0000000000000000000, 0.0000000000000000000 ) ) ;
#94 = CIRCLE ( 'NONE', #1039, 0.009999999999999972453 ) ;
#95 = ADVANCED_FACE ( 'NONE', ( #762 ), #1094, .T. ) ;
#96 = VERTEX_POINT ( 'NONE', #948 ) ;
#97 = DIRECTION ( 'NONE',  ( -2.168404344971015968E-15, 0.0000000000000000000, -1.000000000000000000 ) ) ;
#98 = EDGE_LOOP ( 'NONE', ( #343, #100, #434, #119 ) ) ;
#99 = AXIS2_PLACEMENT_3D ( 'NONE', #55, #233, #811 ) ;
#100 = ORIENTED_EDGE ( 'NONE', *, *, #250, .T. ) ;
#101 = DIRECTION ( 'NONE',  ( 1.000000000000000000, 0.0000000000000000000, 0.0000000000000000000 ) ) ;
#102 = ORIENTED_EDGE ( 'NONE', *, *, #110, .T. ) ;
#103 = AXIS2_PLACEMENT_3D ( 'NONE', #352, #837, #255 ) ;
#104 = ADVANCED_FACE ( 'NONE', ( #82 ), #921, .T. ) ;
#105 = VECTOR ( 'NONE', #1183, 1000.000000000000000 ) ;
#106 = DIRECTION ( 'NONE',  ( 7.228014483236698528E-16, 0.0000000000000000000, 1.000000000000000000 ) ) ;
#107 = LINE ( 'NONE', #959, #1129 ) ;
#108 = CIRCLE ( 'NONE', #373, 0.009999999999999972453 ) ;
#109 = EDGE_LOOP ( 'NONE', ( #1197, #1208, #1083 ) ) ;
#110 = EDGE_CURVE ( 'NONE', #957, #396, #1163, .T. ) ;
#111 = DIRECTION ( 'NONE',  ( -1.000000000000000000, -0.0000000000000000000, 2.168404344971012812E-15 ) ) ;
#112 = ORIENTED_EDGE ( 'NONE', *, *, #455, .T. ) ;
#113 = CARTESIAN_POINT ( 'NONE',  ( -0.2850000000000005862, 0.3150000000000000022, 0.1349999999999998701 ) ) ;
#114 = EDGE_CURVE ( 'NONE', #863, #1101, #810, .T. ) ;
#115 = ADVANCED_FACE ( 'NONE', ( #1193 ), #544, .F. ) ;
#116 = VERTEX_POINT ( 'NONE', #941 ) ;
#117 = AXIS2_PLACEMENT_3D ( 'NONE', #498, #507, #613 ) ;
#118 = ORIENTED_EDGE ( 'NONE', *, *, #236, .T. ) ;
#119 = ORIENTED_EDGE ( 'NONE', *, *, #150, .F. ) ;
#120 = ADVANCED_FACE ( 'NONE', ( #660 ), #929, .F. ) ;
#121 = AXIS2_PLACEMENT_3D ( 'NONE', #175, #180, #390 ) ;
#122 = CIRCLE ( 'NONE', #159, 0.01499999999999999944 ) ;
#123 = DIRECTION ( 'NONE',  ( 0.0000000000000000000, 1.000000000000000000, -0.0000000000000000000 ) ) ;
#124 = VECTOR ( 'NONE', #990, 1000.000000000000000 ) ;
#125 = CARTESIAN_POINT ( 'NONE',  ( 0.2850000000000005862, 0.01499999999999999944, 0.1349999999999998701 ) ) ;
#126 = ORIENTED_EDGE ( 'NONE', *, *, #480, .F. ) ;
#127 = DIRECTION ( 'NONE',  ( 1.000000000000000000, -0.0000000000000000000, -0.0000000000000000000 ) ) ;
#128 = EDGE_LOOP ( 'NONE', ( #282, #1019, #1098, #665 ) ) ;
#129 = CARTESIAN_POINT ( 'NONE',  ( 0.2000000000066393113, 0.004999999999999999237, 0.1349999999566317554 ) ) ;
#130 = EDGE_LOOP ( 'NONE', ( #279, #88, #460, #771 ) ) ;
#131 = AXIS2_PLACEMENT_3D ( 'NONE', #910, #429, #533 ) ;
#132 = ORIENTED_EDGE ( 'NONE', *, *, #136, .T. ) ;
#133 = CARTESIAN_POINT ( 'NONE',  ( 0.2000000000066393113, 0.3250000000000000111, 0.1349999999999997036 ) ) ;
#134 = CARTESIAN_POINT ( 'NONE',  ( 500000.0000000000582, 0.3149999999999998912, -0.1450000000433679659 ) ) ;
#135 = DIRECTION ( 'NONE',  ( 0.0000000000000000000, -1.000000000000000000, 0.0000000000000000000 ) ) ;
#136 = EDGE_CURVE ( 'NONE', #210, #1169, #276, .T. ) ;
#137 = CARTESIAN_POINT ( 'NONE',  ( -0.3000000000000004330, 0.3300000000000000155, -0.1350000000000000921 ) ) ;
#138 = AXIS2_PLACEMENT_3D ( 'NONE', #63, #853, #642 ) ;
#139 = PLANE ( 'NONE',  #99 ) ;
#140 = CIRCLE ( 'NONE', #687, 0.01499999999999998557 ) ;
#141 = SPHERICAL_SURFACE ( 'NONE', #321, 0.01499999999999999944 ) ;
#142 = ORIENTED_EDGE ( 'NONE', *, *, #1006, .F. ) ;
#143 = ORIENTED_EDGE ( 'NONE', *, *, #741, .F. ) ;
#144 = DIRECTION ( 'NONE',  ( 0.0000000000000000000, 0.0000000000000000000, 1.000000000000000000 ) ) ;
#145 = ORIENTED_EDGE ( 'NONE', *, *, #501, .T. ) ;
#146 = CARTESIAN_POINT ( 'NONE',  ( 0.2000000000000005107, 0.3300000000000000155, -0.1499999999999998557 ) ) ;
#147 = DIRECTION ( 'NONE',  ( 1.000000000000000000, 0.0000000000000000000, 0.0000000000000000000 ) ) ;
#148 = DIRECTION ( 'NONE',  ( 0.0000000000000000000, -1.000000000000000000, 0.0000000000000000000 ) ) ;
#149 = LINE ( 'NONE', #36, #729 ) ;
#150 = EDGE_CURVE ( 'NONE', #666, #347, #473, .T. ) ;
#151 = CARTESIAN_POINT ( 'NONE',  ( 0.2000000000000005107, 0.3150000000000000022, 0.1499999999999998557 ) ) ;
#152 = VECTOR ( 'NONE', #248, 1000.000000000000000 ) ;
#153 = ORIENTED_EDGE ( 'NONE', *, *, #789, .T. ) ;
#154 = DIRECTION ( 'NONE',  ( 0.0000000000000000000, 0.0000000000000000000, 1.000000000000000000 ) ) ;
#155 = VERTEX_POINT ( 'NONE', #1175 ) ;
#156 = EDGE_LOOP ( 'NONE', ( #624, #464, #755, #1003 ) ) ;
#157 = DIRECTION ( 'NONE',  ( -8.673617379884036705E-17, 0.0000000000000000000, -1.000000000000000000 ) ) ;
#158 = EDGE_LOOP ( 'NONE', ( #639, #813, #263, #621, #1047, #740, #278, #319 ) ) ;
#159 = AXIS2_PLACEMENT_3D ( 'NONE', #793, #885, #592 ) ;
#160 = DIRECTION ( 'NONE',  ( -0.0000000000000000000, 1.000000000000000000, 0.0000000000000000000 ) ) ;
#161 = LINE ( 'NONE', #1095, #288 ) ;
#162 = DIRECTION ( 'NONE',  ( 0.0000000000000000000, -0.0000000000000000000, -1.000000000000000000 ) ) ;
#163 = FACE_OUTER_BOUND ( 'NONE', #158, .T. ) ;
#164 = VECTOR ( 'NONE', #549, 1000.000000000000000 ) ;
#165 = FACE_OUTER_BOUND ( 'NONE', #512, .T. ) ;
#166 = DIRECTION ( 'NONE',  ( 0.0000000000000000000, -1.000000000000000000, 0.0000000000000000000 ) ) ;
#167 = DIRECTION ( 'NONE',  ( 0.0000000000000000000, 0.0000000000000000000, 1.000000000000000000 ) ) ;
#168 = VERTEX_POINT ( 'NONE', #280 ) ;
#169 = ORIENTED_EDGE ( 'NONE', *, *, #150, .T. ) ;
#170 = DIRECTION ( 'NONE',  ( 0.0000000000000000000, -0.0000000000000000000, -1.000000000000000000 ) ) ;
#171 = EDGE_CURVE ( 'NONE', #203, #1279, #1272, .T. ) ;
#172 = ADVANCED_BREP_SHAPE_REPRESENTATION ( 'HK060310NJ-T', ( #1120, #883, #726, #1103 ), #201 ) ;
#173 = PRESENTATION_LAYER_ASSIGNMENT (  '', '', ( #651 ) ) ;
#174 = CARTESIAN_POINT ( 'NONE',  ( -0.3000000000000003775, 0.01499999999999998557, -0.1350000000000000644 ) ) ;
#175 = CARTESIAN_POINT ( 'NONE',  ( -0.2850000000000005862, 0.3150000000000000022, 0.1349999999999998701 ) ) ;
#176 = LINE ( 'NONE', #134, #963 ) ;
#177 = LINE ( 'NONE', #425, #1205 ) ;
#178 = CYLINDRICAL_SURFACE ( 'NONE', #577, 0.01499999999999999944 ) ;
#179 = FACE_OUTER_BOUND ( 'NONE', #826, .T. ) ;
#180 = DIRECTION ( 'NONE',  ( 0.0000000000000000000, 1.000000000000000000, 0.0000000000000000000 ) ) ;
#181 = ORIENTED_EDGE ( 'NONE', *, *, #1058, .F. ) ;
#182 = VERTEX_POINT ( 'NONE', #467 ) ;
#183 = DIRECTION ( 'NONE',  ( -1.000000000000000000, 0.0000000000000000000, -0.0000000000000000000 ) ) ;
#184 = EDGE_LOOP ( 'NONE', ( #511, #1275, #944, #785 ) ) ;
#185 = DIRECTION ( 'NONE',  ( 7.228014483236698528E-16, 0.0000000000000000000, -1.000000000000000000 ) ) ;
#186 = ADVANCED_FACE ( 'NONE', ( #1013 ), #459, .T. ) ;
#187 = ORIENTED_EDGE ( 'NONE', *, *, #1058, .T. ) ;
#188 = CARTESIAN_POINT ( 'NONE',  ( 0.2850000000000003086, 0.01499999999999998557, -0.1500000000000000500 ) ) ;
#189 = AXIS2_PLACEMENT_3D ( 'NONE', #490, #582, #1187 ) ;
#190 = EDGE_CURVE ( 'NONE', #168, #589, #1259, .T. ) ;
#191 = ADVANCED_FACE ( 'NONE', ( #223 ), #294, .F. ) ;
#192 = CARTESIAN_POINT ( 'NONE',  ( 500000.0000000000582, 0.3150000000000000022, -0.1350000000433679848 ) ) ;
#193 = CIRCLE ( 'NONE', #585, 0.01499999999999998557 ) ;
#194 = FACE_OUTER_BOUND ( 'NONE', #845, .T. ) ;
#195 = CIRCLE ( 'NONE', #103, 0.01500000000000001159 ) ;
#196 = DIRECTION ( 'NONE',  ( -1.000000000000000000, -0.0000000000000000000, 8.673617379884036705E-17 ) ) ;
#197 = CARTESIAN_POINT ( 'NONE',  ( -0.2850000000000005862, 0.01499999999999999944, 0.1349999999999998701 ) ) ;
#198 = EDGE_CURVE ( 'NONE', #1230, #863, #541, .T. ) ;
#199 = ADVANCED_FACE ( 'NONE', ( #750 ), #775, .F. ) ;
#200 = CARTESIAN_POINT ( 'NONE',  ( 0.3000000000000005440, 0.01499999999999998557, 0.1499999999999998557 ) ) ;
#201 =( GEOMETRIC_REPRESENTATION_CONTEXT ( 3 ) GLOBAL_UNCERTAINTY_ASSIGNED_CONTEXT ( ( #1054 ) ) GLOBAL_UNIT_ASSIGNED_CONTEXT ( ( #1140, #71, #369 ) ) REPRESENTATION_CONTEXT ( 'NONE', 'WORKASPACE' ) );
#202 = VERTEX_POINT ( 'NONE', #188 ) ;
#203 = VERTEX_POINT ( 'NONE', #869 ) ;
#204 = FILL_AREA_STYLE_COLOUR ( '', #358 ) ;
#205 = AXIS2_PLACEMENT_3D ( 'NONE', #982, #876, #1084 ) ;
#206 = PRESENTATION_STYLE_ASSIGNMENT (( #942 ) ) ;
#207 = FACE_OUTER_BOUND ( 'NONE', #623, .T. ) ;
#208 = SURFACE_STYLE_USAGE ( .BOTH. , #24 ) ;
#209 = LINE ( 'NONE', #200, #8 ) ;
#210 = VERTEX_POINT ( 'NONE', #977 ) ;
#211 = PRODUCT_DEFINITION_CONTEXT ( 'detailed design', #844, 'design' ) ;
#212 = EDGE_LOOP ( 'NONE', ( #611, #145, #1211, #848 ) ) ;
#213 = EDGE_CURVE ( 'NONE', #309, #528, #558, .T. ) ;
#214 = ORIENTED_EDGE ( 'NONE', *, *, #531, .T. ) ;
#215 = ORIENTED_EDGE ( 'NONE', *, *, #945, .F. ) ;
#216 = MECHANICAL_DESIGN_GEOMETRIC_PRESENTATION_REPRESENTATION (  '', ( #1111 ), #331 ) ;
#217 = DIRECTION ( 'NONE',  ( 0.0000000000000000000, 0.0000000000000000000, 1.000000000000000000 ) ) ;
#218 = DIRECTION ( 'NONE',  ( -1.000000000000000000, 6.530524171234932313E-30, -3.614007241618345221E-15 ) ) ;
#219 = DIRECTION ( 'NONE',  ( 0.0000000000000000000, 0.0000000000000000000, 1.000000000000000000 ) ) ;
#220 = FACE_OUTER_BOUND ( 'NONE', #109, .T. ) ;
#221 = VECTOR ( 'NONE', #617, 1000.000000000000000 ) ;
#222 = DIRECTION ( 'NONE',  ( 1.000000000000000000, 0.0000000000000000000, 0.0000000000000000000 ) ) ;
#223 = FACE_OUTER_BOUND ( 'NONE', #476, .T. ) ;
#224 = CARTESIAN_POINT ( 'NONE',  ( 0.2000000000000005107, 0.0000000000000000000, 0.1349999999999998701 ) ) ;
#225 = ORIENTED_EDGE ( 'NONE', *, *, #573, .T. ) ;
#226 = CARTESIAN_POINT ( 'NONE',  ( 0.2000000000000005107, 0.3150000000000000022, 0.1349999999999998701 ) ) ;
#227 = UNCERTAINTY_MEASURE_WITH_UNIT (LENGTH_MEASURE( 1.000000000000000082E-05 ), #49, 'distance_accuracy_value', 'NONE');
#228 = VERTEX_POINT ( 'NONE', #804 ) ;
#229 = SURFACE_STYLE_USAGE ( .BOTH. , #1020 ) ;
#230 = AXIS2_PLACEMENT_3D ( 'NONE', #1213, #127, #217 ) ;
#231 = EDGE_LOOP ( 'NONE', ( #525, #1116, #956, #1135 ) ) ;
#232 = CARTESIAN_POINT ( 'NONE',  ( 0.2000000000000005107, 0.3300000000000000155, 0.1349999999999998701 ) ) ;
#233 = DIRECTION ( 'NONE',  ( -2.168404344971012812E-15, 0.0000000000000000000, 1.000000000000000000 ) ) ;
#234 =( NAMED_UNIT ( * ) SI_UNIT ( $, .STERADIAN. ) SOLID_ANGLE_UNIT ( ) );
#235 = DIRECTION ( 'NONE',  ( 0.0000000000000000000, 0.0000000000000000000, 1.000000000000000000 ) ) ;
#236 = EDGE_CURVE ( 'NONE', #969, #168, #824, .T. ) ;
#237 = EDGE_CURVE ( 'NONE', #609, #1166, #571, .T. ) ;
#238 = LINE ( 'NONE', #264, #402 ) ;
#239 = VECTOR ( 'NONE', #326, 1000.000000000000000 ) ;
#240 = CARTESIAN_POINT ( 'NONE',  ( 0.2850000000000005862, 0.3150000000000000022, 0.1349999999999998701 ) ) ;
#241 = DIRECTION ( 'NONE',  ( 1.000000000000000000, 0.0000000000000000000, -7.228014483236693597E-16 ) ) ;
#242 = CARTESIAN_POINT ( 'NONE',  ( 0.2850000000000003642, 0.01499999999999998557, -0.1350000000000000644 ) ) ;
#243 = LINE ( 'NONE', #552, #705 ) ;
#244 = ORIENTED_EDGE ( 'NONE', *, *, #991, .T. ) ;
#245 = EDGE_LOOP ( 'NONE', ( #849, #591, #118, #572 ) ) ;
#246 = DIRECTION ( 'NONE',  ( 1.000000000000000000, 0.0000000000000000000, -0.0000000000000000000 ) ) ;
#247 =( NAMED_UNIT ( * ) PLANE_ANGLE_UNIT ( ) SI_UNIT ( $, .RADIAN. ) );
#248 = DIRECTION ( 'NONE',  ( 0.0000000000000000000, -1.000000000000000000, -0.0000000000000000000 ) ) ;
#249 = ORIENTED_EDGE ( 'NONE', *, *, #465, .T. ) ;
#250 = EDGE_CURVE ( 'NONE', #1151, #360, #306, .T. ) ;
#251 = ORIENTED_EDGE ( 'NONE', *, *, #1007, .F. ) ;
#252 = DIRECTION ( 'NONE',  ( 0.0000000000000000000, 0.0000000000000000000, 1.000000000000000000 ) ) ;
#253 = DIRECTION ( 'NONE',  ( 0.0000000000000000000, 0.0000000000000000000, 1.000000000000000000 ) ) ;
#254 = DIRECTION ( 'NONE',  ( 1.000000000000000000, 0.0000000000000000000, 0.0000000000000000000 ) ) ;
#255 = DIRECTION ( 'NONE',  ( 0.0000000000000000000, 0.0000000000000000000, -1.000000000000000000 ) ) ;
#256 =( LENGTH_UNIT ( ) NAMED_UNIT ( * ) SI_UNIT ( .MILLI., .METRE. ) );
#257 = DIRECTION ( 'NONE',  ( -7.228014483236698528E-16, -0.0000000000000000000, -1.000000000000000000 ) ) ;
#258 = VECTOR ( 'NONE', #135, 1000.000000000000000 ) ;
#259 = VECTOR ( 'NONE', #1117, 1000.000000000000000 ) ;
#260 = PLANE ( 'NONE',  #68 ) ;
#261 = EDGE_LOOP ( 'NONE', ( #906, #1249, #450, #102 ) ) ;
#262 = ORIENTED_EDGE ( 'NONE', *, *, #573, .F. ) ;
#263 = ORIENTED_EDGE ( 'NONE', *, *, #900, .F. ) ;
#264 = CARTESIAN_POINT ( 'NONE',  ( 0.2000000000066393113, 0.01499999999999998730, -0.1449999999999998790 ) ) ;
#265 = DIRECTION ( 'NONE',  ( 0.0000000000000000000, 0.0000000000000000000, 1.000000000000000000 ) ) ;
#266 = ORIENTED_EDGE ( 'NONE', *, *, #900, .T. ) ;
#267 = EDGE_CURVE ( 'NONE', #1169, #898, #195, .T. ) ;
#268 = MECHANICAL_DESIGN_GEOMETRIC_PRESENTATION_REPRESENTATION (  '', ( #651 ), #1016 ) ;
#269 = DIRECTION ( 'NONE',  ( 0.0000000000000000000, 0.0000000000000000000, -1.000000000000000000 ) ) ;
#270 = CARTESIAN_POINT ( 'NONE',  ( -0.3000000000000005440, 0.01499999999999998557, 0.1349999999999998701 ) ) ;
#271 = CIRCLE ( 'NONE', #138, 0.01499999999999998557 ) ;
#272 = LINE ( 'NONE', #410, #105 ) ;
#273 = CARTESIAN_POINT ( 'NONE',  ( -0.2850000000000003642, 0.3300000000000000155, -0.1350000000000000644 ) ) ;
#274 = DIRECTION ( 'NONE',  ( 0.0000000000000000000, -1.000000000000000000, 0.0000000000000000000 ) ) ;
#275 = AXIS2_PLACEMENT_3D ( 'NONE', #555, #846, #64 ) ;
#276 = LINE ( 'NONE', #1156, #336 ) ;
#277 = VERTEX_POINT ( 'NONE', #451 ) ;
#278 = ORIENTED_EDGE ( 'NONE', *, *, #600, .F. ) ;
#279 = ORIENTED_EDGE ( 'NONE', *, *, #13, .T. ) ;
#280 = CARTESIAN_POINT ( 'NONE',  ( 0.2850000000000005862, 0.01499999999999998557, 0.1499999999999998557 ) ) ;
#281 = CARTESIAN_POINT ( 'NONE',  ( -0.2000000000000005107, 0.3250000000000000111, -0.1349999999999998701 ) ) ;
#282 = ORIENTED_EDGE ( 'NONE', *, *, #1262, .F. ) ;
#283 = CARTESIAN_POINT ( 'NONE',  ( -0.3000000000000005440, 0.3150000000000000022, 0.1349999999999998701 ) ) ;
#284 = EDGE_CURVE ( 'NONE', #1151, #666, #108, .T. ) ;
#285 = ADVANCED_FACE ( 'NONE', ( #858 ), #141, .T. ) ;
#286 = DIRECTION ( 'NONE',  ( -1.000000000000000000, 0.0000000000000000000, 0.0000000000000000000 ) ) ;
#287 = CYLINDRICAL_SURFACE ( 'NONE', #385, 0.01499999999999998557 ) ;
#288 = VECTOR ( 'NONE', #1204, 1000.000000000000000 ) ;
#289 = ADVANCED_FACE ( 'NONE', ( #633 ), #604, .T. ) ;
#290 = LINE ( 'NONE', #485, #920 ) ;
#291 = CYLINDRICAL_SURFACE ( 'NONE', #21, 0.01499999999999999944 ) ;
#292 = AXIS2_PLACEMENT_3D ( 'NONE', #517, #218, #1218 ) ;
#293 = ORIENTED_EDGE ( 'NONE', *, *, #305, .T. ) ;
#294 = PLANE ( 'NONE',  #189 ) ;
#295 = ORIENTED_EDGE ( 'NONE', *, *, #91, .T. ) ;
#296 = ORIENTED_EDGE ( 'NONE', *, *, #640, .F. ) ;
#297 = EDGE_LOOP ( 'NONE', ( #590, #169, #1250, #409 ) ) ;
#298 = ADVANCED_FACE ( 'NONE', ( #179 ), #998, .T. ) ;
#299 = CARTESIAN_POINT ( 'NONE',  ( 0.2850000000000005862, 0.3300000000000000155, 0.1349999999999998701 ) ) ;
#300 = AXIS2_PLACEMENT_3D ( 'NONE', #125, #1005, #301 ) ;
#301 = DIRECTION ( 'NONE',  ( 0.0000000000000000000, 0.0000000000000000000, 1.000000000000000000 ) ) ;
#302 = DIRECTION ( 'NONE',  ( 1.000000000000000000, 0.0000000000000000000, -8.673617379884036705E-17 ) ) ;
#303 = LINE ( 'NONE', #41, #536 ) ;
#304 = CIRCLE ( 'NONE', #1069, 0.009999999999999972453 ) ;
#305 = EDGE_CURVE ( 'NONE', #325, #482, #985, .T. ) ;
#306 = LINE ( 'NONE', #1202, #890 ) ;
#307 = EDGE_CURVE ( 'NONE', #862, #923, #721, .T. ) ;
#308 = CARTESIAN_POINT ( 'NONE',  ( 0.3000000000000005440, 0.3300000000000000155, 0.1499999999999998557 ) ) ;
#309 = VERTEX_POINT ( 'NONE', #447 ) ;
#310 = AXIS2_PLACEMENT_3D ( 'NONE', #715, #1130, #219 ) ;
#311 = ORIENTED_EDGE ( 'NONE', *, *, #662, .F. ) ;
#312 = ORIENTED_EDGE ( 'NONE', *, *, #724, .F. ) ;
#313 = ORIENTED_EDGE ( 'NONE', *, *, #618, .F. ) ;
#314 = DIRECTION ( 'NONE',  ( 0.0000000000000000000, -1.000000000000000000, 0.0000000000000000000 ) ) ;
#315 = AXIS2_PLACEMENT_3D ( 'NONE', #1127, #47, #323 ) ;
#316 = FACE_OUTER_BOUND ( 'NONE', #366, .T. ) ;
#317 = PLANE ( 'NONE',  #934 ) ;
#318 = PRESENTATION_STYLE_ASSIGNMENT (( #208 ) ) ;
#319 = ORIENTED_EDGE ( 'NONE', *, *, #926, .F. ) ;
#320 = ORIENTED_EDGE ( 'NONE', *, *, #763, .T. ) ;
#321 = AXIS2_PLACEMENT_3D ( 'NONE', #520, #841, #834 ) ;
#322 = ORIENTED_EDGE ( 'NONE', *, *, #1102, .T. ) ;
#323 = DIRECTION ( 'NONE',  ( -7.228014483236698528E-16, 0.0000000000000000000, -1.000000000000000000 ) ) ;
#324 = CARTESIAN_POINT ( 'NONE',  ( -0.2000000000000005107, 0.0000000000000000000, -0.1349999999999998701 ) ) ;
#325 = VERTEX_POINT ( 'NONE', #151 ) ;
#326 = DIRECTION ( 'NONE',  ( -1.000000000000000000, 0.0000000000000000000, -2.168404344971012812E-15 ) ) ;
#327 = PLANE ( 'NONE',  #315 ) ;
#328 = CARTESIAN_POINT ( 'NONE',  ( -0.2000000000000005107, 0.01499999999999998557, 0.1499999999999998557 ) ) ;
#329 = SURFACE_STYLE_USAGE ( .BOTH. , #917 ) ;
#330 = EDGE_CURVE ( 'NONE', #203, #682, #523, .T. ) ;
#331 =( GEOMETRIC_REPRESENTATION_CONTEXT ( 3 ) GLOBAL_UNCERTAINTY_ASSIGNED_CONTEXT ( ( #15 ) ) GLOBAL_UNIT_ASSIGNED_CONTEXT ( ( #1223, #1121, #627 ) ) REPRESENTATION_CONTEXT ( 'NONE', 'WORKASPACE' ) );
#332 = SPHERICAL_SURFACE ( 'NONE', #406, 0.01499999999999999944 ) ;
#333 = DIRECTION ( 'NONE',  ( 0.0000000000000000000, 0.0000000000000000000, -1.000000000000000000 ) ) ;
#334 = VECTOR ( 'NONE', #478, 1000.000000000000000 ) ;
#335 = LINE ( 'NONE', #861, #67 ) ;
#336 = VECTOR ( 'NONE', #461, 1000.000000000000000 ) ;
#337 = CARTESIAN_POINT ( 'NONE',  ( 0.2850000000000003642, 0.01499999999999998557, -0.1350000000000000366 ) ) ;
#338 = DIRECTION ( 'NONE',  ( 1.000000000000000000, 0.0000000000000000000, -0.0000000000000000000 ) ) ;
#339 = ORIENTED_EDGE ( 'NONE', *, *, #4, .T. ) ;
#340 = DIRECTION ( 'NONE',  ( 1.000000000000000000, 0.0000000000000000000, 0.0000000000000000000 ) ) ;
#341 = ORIENTED_EDGE ( 'NONE', *, *, #699, .T. ) ;
#342 = EDGE_CURVE ( 'NONE', #863, #865, #444, .T. ) ;
#343 = ORIENTED_EDGE ( 'NONE', *, *, #284, .F. ) ;
#344 = DIRECTION ( 'NONE',  ( -1.000000000000000000, -0.0000000000000000000, 8.673617379884036705E-17 ) ) ;
#345 = ORIENTED_EDGE ( 'NONE', *, *, #351, .T. ) ;
#346 = CARTESIAN_POINT ( 'NONE',  ( 0.2000000000066393113, 0.3149999999999998912, -0.1449999999999998790 ) ) ;
#347 = VERTEX_POINT ( 'NONE', #919 ) ;
#348 = DIRECTION ( 'NONE',  ( 0.0000000000000000000, 0.0000000000000000000, 1.000000000000000000 ) ) ;
#349 = DIRECTION ( 'NONE',  ( 0.0000000000000000000, 0.0000000000000000000, 1.000000000000000000 ) ) ;
#350 = DIRECTION ( 'NONE',  ( 0.0000000000000000000, 0.0000000000000000000, -1.000000000000000000 ) ) ;
#351 = EDGE_CURVE ( 'NONE', #482, #168, #243, .T. ) ;
#352 = CARTESIAN_POINT ( 'NONE',  ( -0.2850000000000003642, 0.01499999999999998557, -0.1350000000000000644 ) ) ;
#353 = FACE_OUTER_BOUND ( 'NONE', #130, .T. ) ;
#354 = CARTESIAN_POINT ( 'NONE',  ( 0.0000000000000000000, 0.0000000000000000000, 0.1349999999999998701 ) ) ;
#355 =( NAMED_UNIT ( * ) SI_UNIT ( $, .STERADIAN. ) SOLID_ANGLE_UNIT ( ) );
#356 = CYLINDRICAL_SURFACE ( 'NONE', #561, 0.01499999999999998557 ) ;
#357 = DIRECTION ( 'NONE',  ( 0.0000000000000000000, -1.000000000000000000, 0.0000000000000000000 ) ) ;
#358 = COLOUR_RGB ( '',0.4862745098039215619, 0.2352941176470588203, 0.01568627450980392135 ) ;
#359 = DIRECTION ( 'NONE',  ( 0.0000000000000000000, 0.0000000000000000000, 1.000000000000000000 ) ) ;
#360 = VERTEX_POINT ( 'NONE', #1227 ) ;
#361 = EDGE_LOOP ( 'NONE', ( #833, #783, #817 ) ) ;
#362 = DIRECTION ( 'NONE',  ( 3.614007241618348376E-15, 0.0000000000000000000, 1.000000000000000000 ) ) ;
#363 = DIRECTION ( 'NONE',  ( 0.0000000000000000000, 1.000000000000000000, 0.0000000000000000000 ) ) ;
#364 = DIRECTION ( 'NONE',  ( 1.000000000000000000, 0.0000000000000000000, -8.673617379884036705E-17 ) ) ;
#365 = ORIENTED_EDGE ( 'NONE', *, *, #305, .F. ) ;
#366 = EDGE_LOOP ( 'NONE', ( #57, #1115, #1066 ) ) ;
#367 = AXIS2_PLACEMENT_3D ( 'NONE', #884, #603, #697 ) ;
#368 = ORIENTED_EDGE ( 'NONE', *, *, #438, .T. ) ;
#369 =( NAMED_UNIT ( * ) SI_UNIT ( $, .STERADIAN. ) SOLID_ANGLE_UNIT ( ) );
#370 = DIRECTION ( 'NONE',  ( 2.168404344971015968E-15, 0.0000000000000000000, -1.000000000000000000 ) ) ;
#371 = CARTESIAN_POINT ( 'NONE',  ( -0.2000000000000005107, 0.01499999999999998557, -0.1449999999999998512 ) ) ;
#372 = CARTESIAN_POINT ( 'NONE',  ( -0.2000000000000005107, 0.01499999999999998557, 0.1349999999999998701 ) ) ;
#373 = AXIS2_PLACEMENT_3D ( 'NONE', #733, #147, #1150 ) ;
#374 = CYLINDRICAL_SURFACE ( 'NONE', #1060, 0.01500000000000001159 ) ;
#375 = LINE ( 'NONE', #1260, #1093 ) ;
#376 = DIRECTION ( 'NONE',  ( -1.000000000000000000, 0.0000000000000000000, 0.0000000000000000000 ) ) ;
#377 = CIRCLE ( 'NONE', #915, 0.009999999999999972453 ) ;
#378 = ORIENTED_EDGE ( 'NONE', *, *, #662, .T. ) ;
#379 = ORIENTED_EDGE ( 'NONE', *, *, #717, .F. ) ;
#380 = CARTESIAN_POINT ( 'NONE',  ( -0.2850000000000003642, 0.01499999999999999944, -0.1350000000000000644 ) ) ;
#381 = CARTESIAN_POINT ( 'NONE',  ( -0.2850000000000003086, 0.3150000000000000022, -0.1500000000000000500 ) ) ;
#382 = EDGE_CURVE ( 'NONE', #168, #182, #209, .T. ) ;
#383 = EDGE_LOOP ( 'NONE', ( #574, #695, #694, #320 ) ) ;
#384 = CARTESIAN_POINT ( 'NONE',  ( 0.2000000000000005107, 0.0000000000000000000, -0.1349999999999998701 ) ) ;
#385 = AXIS2_PLACEMENT_3D ( 'NONE', #568, #185, #1266 ) ;
#386 = CARTESIAN_POINT ( 'NONE',  ( 500000.0000000000582, 0.004999999999999999237, -0.1350000000433678737 ) ) ;
#387 = DIRECTION ( 'NONE',  ( 0.0000000000000000000, 0.0000000000000000000, 1.000000000000000000 ) ) ;
#388 = ADVANCED_FACE ( 'NONE', ( #968 ), #317, .F. ) ;
#389 = LINE ( 'NONE', #756, #868 ) ;
#390 = DIRECTION ( 'NONE',  ( 1.000000000000000000, 0.0000000000000000000, 0.0000000000000000000 ) ) ;
#391 = CIRCLE ( 'NONE', #310, 0.01499999999999998557 ) ;
#392 =( GEOMETRIC_REPRESENTATION_CONTEXT ( 3 ) GLOBAL_UNCERTAINTY_ASSIGNED_CONTEXT ( ( #443 ) ) GLOBAL_UNIT_ASSIGNED_CONTEXT ( ( #519, #814, #913 ) ) REPRESENTATION_CONTEXT ( 'NONE', 'WORKASPACE' ) );
#393 = CYLINDRICAL_SURFACE ( 'NONE', #1189, 0.01499999999999999944 ) ;
#394 = ORIENTED_EDGE ( 'NONE', *, *, #1102, .F. ) ;
#395 = ORIENTED_EDGE ( 'NONE', *, *, #237, .T. ) ;
#396 = VERTEX_POINT ( 'NONE', #1248 ) ;
#397 = ADVANCED_FACE ( 'NONE', ( #735 ), #291, .T. ) ;
#398 = DIRECTION ( 'NONE',  ( 0.0000000000000000000, 0.0000000000000000000, 1.000000000000000000 ) ) ;
#399 = ORIENTED_EDGE ( 'NONE', *, *, #503, .T. ) ;
#400 = AXIS2_PLACEMENT_3D ( 'NONE', #240, #452, #1153 ) ;
#401 = ADVANCED_FACE ( 'NONE', ( #780 ), #463, .F. ) ;
#402 = VECTOR ( 'NONE', #160, 1000.000000000000000 ) ;
#403 = EDGE_CURVE ( 'NONE', #1279, #73, #53, .T. ) ;
#404 = VECTOR ( 'NONE', #33, 1000.000000000000000 ) ;
#405 = VECTOR ( 'NONE', #579, 1000.000000000000000 ) ;
#406 = AXIS2_PLACEMENT_3D ( 'NONE', #1154, #363, #1028 ) ;
#407 = ADVANCED_FACE ( 'NONE', ( #39 ), #260, .T. ) ;
#408 = VERTEX_POINT ( 'NONE', #449 ) ;
#409 = ORIENTED_EDGE ( 'NONE', *, *, #237, .F. ) ;
#410 = CARTESIAN_POINT ( 'NONE',  ( -0.2850000000000005862, 0.3300000000000000155, 0.1499999999999998557 ) ) ;
#411 = ORIENTED_EDGE ( 'NONE', *, *, #110, .F. ) ;
#412 = CARTESIAN_POINT ( 'NONE',  ( 0.2850000000000005862, 0.01499999999999999944, 0.1349999999999998701 ) ) ;
#413 = CARTESIAN_POINT ( 'NONE',  ( 0.2000000000000005107, 0.0000000000000000000, -0.1499999999999998557 ) ) ;
#414 = AXIS2_PLACEMENT_3D ( 'NONE', #850, #1255, #154 ) ;
#415 = CIRCLE ( 'NONE', #952, 0.01499999999999999944 ) ;
#416 = LINE ( 'NONE', #1104, #124 ) ;
#417 = EDGE_CURVE ( 'NONE', #1166, #155, #377, .T. ) ;
#418 = EDGE_LOOP ( 'NONE', ( #527, #947, #972, #1214 ) ) ;
#419 = VERTEX_POINT ( 'NONE', #1157 ) ;
#420 = CARTESIAN_POINT ( 'NONE',  ( -0.2000000000000005107, 0.3150000000000000022, 0.1349999999999998701 ) ) ;
#421 = ORIENTED_EDGE ( 'NONE', *, *, #1032, .T. ) ;
#422 = PRODUCT ( 'HK060310NJ-T', 'HK060310NJ-T', '', ( #653 ) ) ;
#423 = CARTESIAN_POINT ( 'NONE',  ( 500000.0000000000582, 0.01500000000000009312, 0.1449999999566317366 ) ) ;
#424 = VERTEX_POINT ( 'NONE', #643 ) ;
#425 = CARTESIAN_POINT ( 'NONE',  ( -2.927345865710855069E-16, 0.0000000000000000000, -0.1349999999999994260 ) ) ;
#426 = AXIS2_PLACEMENT_3D ( 'NONE', #1143, #744, #59 ) ;
#427 = DIRECTION ( 'NONE',  ( -1.000000000000000000, -0.0000000000000000000, -0.0000000000000000000 ) ) ;
#428 = VECTOR ( 'NONE', #74, 1000.000000000000000 ) ;
#429 = DIRECTION ( 'NONE',  ( 0.0000000000000000000, -1.000000000000000000, 0.0000000000000000000 ) ) ;
#430 = DIRECTION ( 'NONE',  ( -1.000000000000000000, -0.0000000000000000000, 8.673617379884036705E-17 ) ) ;
#431 = FACE_OUTER_BOUND ( 'NONE', #894, .T. ) ;
#432 = VECTOR ( 'NONE', #60, 1000.000000000000000 ) ;
#433 = ORIENTED_EDGE ( 'NONE', *, *, #852, .F. ) ;
#434 = ORIENTED_EDGE ( 'NONE', *, *, #600, .T. ) ;
#435 = DIRECTION ( 'NONE',  ( 0.0000000000000000000, 0.0000000000000000000, -1.000000000000000000 ) ) ;
#436 = ORIENTED_EDGE ( 'NONE', *, *, #417, .T. ) ;
#437 = CARTESIAN_POINT ( 'NONE',  ( -0.2850000000000003642, 0.01499999999999998557, -0.1500000000000000777 ) ) ;
#438 = EDGE_CURVE ( 'NONE', #1196, #1049, #954, .T. ) ;
#439 = EDGE_CURVE ( 'NONE', #923, #277, #375, .T. ) ;
#440 = AXIS2_PLACEMENT_3D ( 'NONE', #113, #786, #686 ) ;
#441 = CARTESIAN_POINT ( 'NONE',  ( -0.2000000000000005107, 0.3300000000000000155, 0.1349999999999998701 ) ) ;
#442 = CARTESIAN_POINT ( 'NONE',  ( 0.2850000000000005862, 0.3150000000000000022, 0.1349999999999998701 ) ) ;
#443 = UNCERTAINTY_MEASURE_WITH_UNIT (LENGTH_MEASURE( 1.000000000000000082E-05 ), #519, 'distance_accuracy_value', 'NONE');
#444 = LINE ( 'NONE', #649, #1027 ) ;
#445 = ORIENTED_EDGE ( 'NONE', *, *, #763, .F. ) ;
#446 = ORIENTED_EDGE ( 'NONE', *, *, #618, .T. ) ;
#447 = CARTESIAN_POINT ( 'NONE',  ( 0.2000000000066393113, 0.004999999999999999237, -0.1349999999999998146 ) ) ;
#448 = VERTEX_POINT ( 'NONE', #937 ) ;
#449 = CARTESIAN_POINT ( 'NONE',  ( -0.2850000000000003642, 0.0000000000000000000, -0.1350000000000000644 ) ) ;
#450 = ORIENTED_EDGE ( 'NONE', *, *, #1086, .T. ) ;
#451 = CARTESIAN_POINT ( 'NONE',  ( -0.2000000000000005107, 0.3149999999999998912, -0.1449999999999998512 ) ) ;
#452 = DIRECTION ( 'NONE',  ( 0.0000000000000000000, -1.000000000000000000, 0.0000000000000000000 ) ) ;
#453 = CARTESIAN_POINT ( 'NONE',  ( 0.2850000000000005862, 0.3150000000000000022, 0.1499999999999998557 ) ) ;
#454 = AXIS2_PLACEMENT_3D ( 'NONE', #1048, #1044, #370 ) ;
#455 = EDGE_CURVE ( 'NONE', #764, #228, #870, .T. ) ;
#456 = FILL_AREA_STYLE ('',( #1042 ) ) ;
#457 = DIRECTION ( 'NONE',  ( -1.000000000000000000, 0.0000000000000000000, 8.673617379884036705E-17 ) ) ;
#458 = CYLINDRICAL_SURFACE ( 'NONE', #1122, 0.01499999999999999944 ) ;
#459 = CYLINDRICAL_SURFACE ( 'NONE', #1141, 0.01499999999999998557 ) ;
#460 = ORIENTED_EDGE ( 'NONE', *, *, #267, .T. ) ;
#461 = DIRECTION ( 'NONE',  ( -1.000000000000000000, 0.0000000000000000000, -2.168404344971012812E-15 ) ) ;
#462 = CARTESIAN_POINT ( 'NONE',  ( 0.2000000000000005107, 0.3300000000000000155, 0.1499999999999998557 ) ) ;
#463 = PLANE ( 'NONE',  #656 ) ;
#464 = ORIENTED_EDGE ( 'NONE', *, *, #501, .F. ) ;
#465 = EDGE_CURVE ( 'NONE', #1195, #1196, #557, .T. ) ;
#466 = AXIS2_PLACEMENT_3D ( 'NONE', #704, #902, #1210 ) ;
#467 = CARTESIAN_POINT ( 'NONE',  ( 0.2000000000000005107, 0.01499999999999998557, 0.1499999999999998557 ) ) ;
#468 = CARTESIAN_POINT ( 'NONE',  ( -0.2850000000000005862, 0.3300000000000000155, 0.1349999999999998701 ) ) ;
#469 = SURFACE_STYLE_FILL_AREA ( #456 ) ;
#470 = AXIS2_PLACEMENT_3D ( 'NONE', #1041, #344, #252 ) ;
#471 = VECTOR ( 'NONE', #730, 1000.000000000000000 ) ;
#472 = DIRECTION ( 'NONE',  ( 0.0000000000000000000, 0.0000000000000000000, -1.000000000000000000 ) ) ;
#473 = LINE ( 'NONE', #89, #1131 ) ;
#474 = DIRECTION ( 'NONE',  ( -0.0000000000000000000, 1.000000000000000000, -0.0000000000000000000 ) ) ;
#475 = VECTOR ( 'NONE', #427, 1000.000000000000000 ) ;
#476 = EDGE_LOOP ( 'NONE', ( #797, #339, #989, #1212, #142, #153, #708, #873 ) ) ;
#477 = VERTEX_POINT ( 'NONE', #836 ) ;
#478 = DIRECTION ( 'NONE',  ( 0.0000000000000000000, -1.000000000000000000, -0.0000000000000000000 ) ) ;
#479 = PLANE ( 'NONE',  #960 ) ;
#480 = EDGE_CURVE ( 'NONE', #116, #96, #37, .T. ) ;
#481 = EDGE_CURVE ( 'NONE', #969, #835, #1109, .T. ) ;
#482 = VERTEX_POINT ( 'NONE', #453 ) ;
#483 = PRODUCT_RELATED_PRODUCT_CATEGORY ( 'part', '', ( #422 ) ) ;
#484 = ADVANCED_FACE ( 'NONE', ( #632 ), #550, .F. ) ;
#485 = CARTESIAN_POINT ( 'NONE',  ( 0.3000000000000003775, 0.01499999999999998557, -0.1500000000000000777 ) ) ;
#486 = STYLED_ITEM ( 'NONE', ( #318 ), #726 ) ;
#487 = ADVANCED_FACE ( 'NONE', ( #719 ), #620, .T. ) ;
#488 = VECTOR ( 'NONE', #792, 1000.000000000000000 ) ;
#489 = CIRCLE ( 'NONE', #62, 0.01499999999999999944 ) ;
#490 = CARTESIAN_POINT ( 'NONE',  ( -0.2000000000000005107, 0.3300000000000000155, -0.1499999999999998557 ) ) ;
#491 = VERTEX_POINT ( 'NONE', #270 ) ;
#492 = EDGE_LOOP ( 'NONE', ( #650, #655, #1264 ) ) ;
#493 = EDGE_LOOP ( 'NONE', ( #1164, #395, #436, #311 ) ) ;
#494 = DIRECTION ( 'NONE',  ( -3.614007241618348376E-15, 0.0000000000000000000, 1.000000000000000000 ) ) ;
#495 = ADVANCED_FACE ( 'NONE', ( #648 ), #458, .T. ) ;
#496 = AXIS2_PLACEMENT_3D ( 'NONE', #773, #581, #167 ) ;
#497 = CARTESIAN_POINT ( 'NONE',  ( -0.2850000000000004752, 0.0000000000000000000, -2.059984127722462369E-16 ) ) ;
#498 = CARTESIAN_POINT ( 'NONE',  ( -0.3000000000000003775, 0.3300000000000000155, -0.1500000000000000777 ) ) ;
#499 = ADVANCED_FACE ( 'NONE', ( #823 ), #393, .T. ) ;
#500 = LINE ( 'NONE', #137, #239 ) ;
#501 = EDGE_CURVE ( 'NONE', #477, #1230, #107, .T. ) ;
#502 = FILL_AREA_STYLE ('',( #204 ) ) ;
#503 = EDGE_CURVE ( 'NONE', #73, #589, #290, .T. ) ;
#504 = FACE_OUTER_BOUND ( 'NONE', #184, .T. ) ;
#505 = VECTOR ( 'NONE', #1231, 1000.000000000000000 ) ;
#506 = AXIS2_PLACEMENT_3D ( 'NONE', #412, #314, #1018 ) ;
#507 = DIRECTION ( 'NONE',  ( 1.000000000000000000, -0.0000000000000000000, 7.228014483236698528E-16 ) ) ;
#508 = ORIENTED_EDGE ( 'NONE', *, *, #51, .T. ) ;
#509 = ORIENTED_EDGE ( 'NONE', *, *, #594, .T. ) ;
#510 = ADVANCED_FACE ( 'NONE', ( #7 ), #889, .T. ) ;
#511 = ORIENTED_EDGE ( 'NONE', *, *, #1216, .T. ) ;
#512 = EDGE_LOOP ( 'NONE', ( #262, #10, #770 ) ) ;
#513 = PLANE ( 'NONE',  #466 ) ;
#514 = DIRECTION ( 'NONE',  ( -1.000000000000000000, -0.0000000000000000000, 8.673617379884036705E-17 ) ) ;
#515 = AXIS2_PLACEMENT_3D ( 'NONE', #598, #615, #29 ) ;
#516 = FILL_AREA_STYLE ('',( #521 ) ) ;
#517 = CARTESIAN_POINT ( 'NONE',  ( -0.2850000000000003642, 0.01499999999999998557, -0.1350000000000000366 ) ) ;
#518 = LINE ( 'NONE', #720, #646 ) ;
#519 =( LENGTH_UNIT ( ) NAMED_UNIT ( * ) SI_UNIT ( .MILLI., .METRE. ) );
#520 = CARTESIAN_POINT ( 'NONE',  ( 0.2850000000000003642, 0.01499999999999999944, -0.1350000000000000644 ) ) ;
#521 = FILL_AREA_STYLE_COLOUR ( '', #34 ) ;
#522 = AXIS2_PLACEMENT_3D ( 'NONE', #933, #946, #359 ) ;
#523 = CIRCLE ( 'NONE', #821, 0.01499999999999998557 ) ;
#524 = CARTESIAN_POINT ( 'NONE',  ( 2.927345865710855069E-16, 0.0000000000000000000, -0.1349999999999994260 ) ) ;
#525 = ORIENTED_EDGE ( 'NONE', *, *, #4, .F. ) ;
#526 = CARTESIAN_POINT ( 'NONE',  ( -0.3000000000000003775, 0.3300000000000000155, -0.1350000000000000644 ) ) ;
#527 = ORIENTED_EDGE ( 'NONE', *, *, #1014, .F. ) ;
#528 = VERTEX_POINT ( 'NONE', #871 ) ;
#529 = ORIENTED_EDGE ( 'NONE', *, *, #696, .T. ) ;
#530 = CARTESIAN_POINT ( 'NONE',  ( 0.2000000000066393113, 0.3150000000000000022, 0.1449999999999997957 ) ) ;
#531 = EDGE_CURVE ( 'NONE', #155, #528, #602, .T. ) ;
#532 = MECHANICAL_DESIGN_GEOMETRIC_PRESENTATION_REPRESENTATION (  '', ( #486 ), #392 ) ;
#533 = DIRECTION ( 'NONE',  ( -1.000000000000000000, 0.0000000000000000000, 0.0000000000000000000 ) ) ;
#534 = DIRECTION ( 'NONE',  ( 0.0000000000000000000, 0.0000000000000000000, 1.000000000000000000 ) ) ;
#535 = SHAPE_DEFINITION_REPRESENTATION ( #936, #172 ) ;
#536 = VECTOR ( 'NONE', #1229, 1000.000000000000000 ) ;
#537 = DIRECTION ( 'NONE',  ( -1.000000000000000000, -6.530524171234932313E-30, 3.614007241618345221E-15 ) ) ;
#538 = CARTESIAN_POINT ( 'NONE',  ( -0.2000000000000005107, 0.3150000000000000022, -0.1349999999999998701 ) ) ;
#539 = CYLINDRICAL_SURFACE ( 'NONE', #992, 0.01499999999999998557 ) ;
#540 = DIRECTION ( 'NONE',  ( -7.228014483236698528E-16, 0.0000000000000000000, 1.000000000000000000 ) ) ;
#541 = CIRCLE ( 'NONE', #1050, 0.01499999999999998557 ) ;
#542 = FACE_OUTER_BOUND ( 'NONE', #851, .T. ) ;
#543 = ORIENTED_EDGE ( 'NONE', *, *, #1172, .T. ) ;
#544 = PLANE ( 'NONE',  #1167 ) ;
#545 = DIRECTION ( 'NONE',  ( 0.0000000000000000000, -1.000000000000000000, 0.0000000000000000000 ) ) ;
#546 = EDGE_LOOP ( 'NONE', ( #580, #1155, #637, #879 ) ) ;
#547 = CARTESIAN_POINT ( 'NONE',  ( 0.3000000000000005440, 0.3150000000000000022, 0.1499999999999998557 ) ) ;
#548 = EDGE_LOOP ( 'NONE', ( #1147, #378, #214, #663 ) ) ;
#549 = DIRECTION ( 'NONE',  ( 1.000000000000000000, -0.0000000000000000000, 0.0000000000000000000 ) ) ;
#550 = PLANE ( 'NONE',  #1276 ) ;
#551 = EDGE_CURVE ( 'NONE', #940, #578, #809, .T. ) ;
#552 = CARTESIAN_POINT ( 'NONE',  ( 0.2850000000000005862, 0.3300000000000000155, 0.1499999999999998557 ) ) ;
#553 = EDGE_CURVE ( 'NONE', #609, #1113, #304, .T. ) ;
#554 = PRODUCT_DEFINITION ( 'UNKNOWN', '', #1280, #211 ) ;
#555 = CARTESIAN_POINT ( 'NONE',  ( 0.2000000000066393113, 0.3150000000000000022, -0.1349999999999999256 ) ) ;
#556 = FACE_OUTER_BOUND ( 'NONE', #261, .T. ) ;
#557 = CIRCLE ( 'NONE', #275, 0.009999999999999972453 ) ;
#558 = LINE ( 'NONE', #386, #1062 ) ;
#559 = CARTESIAN_POINT ( 'NONE',  ( -0.2850000000000005862, 0.3300000000000000155, 0.1349999999999998701 ) ) ;
#560 = ORIENTED_EDGE ( 'NONE', *, *, #657, .T. ) ;
#561 = AXIS2_PLACEMENT_3D ( 'NONE', #437, #540, #830 ) ;
#562 = EDGE_LOOP ( 'NONE', ( #249, #244, #61, #798, #1096, #1070, #692, #1139 ) ) ;
#563 = DIRECTION ( 'NONE',  ( 0.0000000000000000000, 1.000000000000000000, 0.0000000000000000000 ) ) ;
#564 = VERTEX_POINT ( 'NONE', #283 ) ;
#565 = CARTESIAN_POINT ( 'NONE',  ( 0.2850000000000003642, 0.3300000000000000155, -0.1350000000000000644 ) ) ;
#566 = DIRECTION ( 'NONE',  ( 0.0000000000000000000, 0.0000000000000000000, -1.000000000000000000 ) ) ;
#567 = AXIS2_PLACEMENT_3D ( 'NONE', #866, #962, #769 ) ;
#568 = CARTESIAN_POINT ( 'NONE',  ( -0.2850000000000004752, 0.3150000000000000022, -2.059984127722462369E-16 ) ) ;
#569 = CYLINDRICAL_SURFACE ( 'NONE', #927, 0.01500000000000001159 ) ;
#570 = VECTOR ( 'NONE', #855, 1000.000000000000000 ) ;
#571 = LINE ( 'NONE', #423, #25 ) ;
#572 = ORIENTED_EDGE ( 'NONE', *, *, #382, .T. ) ;
#573 = EDGE_CURVE ( 'NONE', #1279, #419, #80, .T. ) ;
#574 = ORIENTED_EDGE ( 'NONE', *, *, #1077, .F. ) ;
#575 = EDGE_CURVE ( 'NONE', #491, #564, #335, .T. ) ;
#576 = VERTEX_POINT ( 'NONE', #381 ) ;
#577 = AXIS2_PLACEMENT_3D ( 'NONE', #1012, #1124, #435 ) ;
#578 = VERTEX_POINT ( 'NONE', #273 ) ;
#579 = DIRECTION ( 'NONE',  ( -7.228014483236698528E-16, -0.0000000000000000000, -1.000000000000000000 ) ) ;
#580 = ORIENTED_EDGE ( 'NONE', *, *, #806, .T. ) ;
#581 = DIRECTION ( 'NONE',  ( 1.000000000000000000, 0.0000000000000000000, 0.0000000000000000000 ) ) ;
#582 = DIRECTION ( 'NONE',  ( -1.000000000000000000, 0.0000000000000000000, 0.0000000000000000000 ) ) ;
#583 = CARTESIAN_POINT ( 'NONE',  ( -0.3000000000000004330, 0.01499999999999998557, -0.1350000000000000921 ) ) ;
#584 = DIRECTION ( 'NONE',  ( 0.0000000000000000000, 0.0000000000000000000, -1.000000000000000000 ) ) ;
#585 = AXIS2_PLACEMENT_3D ( 'NONE', #1030, #626, #1233 ) ;
#586 = FACE_OUTER_BOUND ( 'NONE', #493, .T. ) ;
#587 = SURFACE_STYLE_FILL_AREA ( #502 ) ;
#588 = CARTESIAN_POINT ( 'NONE',  ( 0.3000000000000005440, 0.3300000000000000155, 0.1349999999999998701 ) ) ;
#589 = VERTEX_POINT ( 'NONE', #867 ) ;
#590 = ORIENTED_EDGE ( 'NONE', *, *, #872, .F. ) ;
#591 = ORIENTED_EDGE ( 'NONE', *, *, #950, .T. ) ;
#592 = DIRECTION ( 'NONE',  ( 0.0000000000000000000, 0.0000000000000000000, 1.000000000000000000 ) ) ;
#593 = ORIENTED_EDGE ( 'NONE', *, *, #1243, .F. ) ;
#594 = EDGE_CURVE ( 'NONE', #116, #210, #953, .T. ) ;
#595 = ORIENTED_EDGE ( 'NONE', *, *, #806, .F. ) ;
#596 = DIRECTION ( 'NONE',  ( -1.000000000000000000, -0.0000000000000000000, 8.673617379884036705E-17 ) ) ;
#597 = ADVANCED_FACE ( 'NONE', ( #194 ), #975, .F. ) ;
#598 = CARTESIAN_POINT ( 'NONE',  ( 0.3000000000000004330, 0.01499999999999998557, -0.1350000000000000921 ) ) ;
#599 = CARTESIAN_POINT ( 'NONE',  ( 500000.0000000000582, 0.01499999999999998730, -0.1450000000433679659 ) ) ;
#600 = EDGE_CURVE ( 'NONE', #360, #347, #1222, .T. ) ;
#601 = CIRCLE ( 'NONE', #816, 0.01499999999999998557 ) ;
#602 = LINE ( 'NONE', #1057, #570 ) ;
#603 = DIRECTION ( 'NONE',  ( 0.0000000000000000000, 1.000000000000000000, 0.0000000000000000000 ) ) ;
#604 = CYLINDRICAL_SURFACE ( 'NONE', #522, 0.009999999999999972453 ) ;
#605 = CARTESIAN_POINT ( 'NONE',  ( 0.2000000000000005107, 0.3150000000000000022, -0.1349999999999998701 ) ) ;
#606 = ADVANCED_FACE ( 'NONE', ( #1207 ), #843, .T. ) ;
#607 = EDGE_LOOP ( 'NONE', ( #312, #1133, #42 ) ) ;
#608 = EDGE_LOOP ( 'NONE', ( #706, #446, #722, #345 ) ) ;
#609 = VERTEX_POINT ( 'NONE', #1179 ) ;
#610 = DIRECTION ( 'NONE',  ( 0.0000000000000000000, 0.0000000000000000000, 1.000000000000000000 ) ) ;
#611 = ORIENTED_EDGE ( 'NONE', *, *, #856, .T. ) ;
#612 = AXIS2_PLACEMENT_3D ( 'NONE', #1170, #566, #286 ) ;
#613 = DIRECTION ( 'NONE',  ( 7.228014483236698528E-16, 0.0000000000000000000, -1.000000000000000000 ) ) ;
#614 = ADVANCED_FACE ( 'NONE', ( #659 ), #479, .F. ) ;
#615 = DIRECTION ( 'NONE',  ( 1.000000000000000000, 0.0000000000000000000, -2.168404344971012812E-15 ) ) ;
#616 = VECTOR ( 'NONE', #677, 1000.000000000000000 ) ;
#617 = DIRECTION ( 'NONE',  ( -1.000000000000000000, -0.0000000000000000000, 8.673617379884036705E-17 ) ) ;
#618 = EDGE_CURVE ( 'NONE', #589, #203, #904, .T. ) ;
#619 = CYLINDRICAL_SURFACE ( 'NONE', #774, 0.01499999999999999944 ) ;
#620 = CYLINDRICAL_SURFACE ( 'NONE', #454, 0.01499999999999998557 ) ;
#621 = ORIENTED_EDGE ( 'NONE', *, *, #531, .F. ) ;
#622 = ORIENTED_EDGE ( 'NONE', *, *, #13, .F. ) ;
#623 = EDGE_LOOP ( 'NONE', ( #1261, #767, #225, #341 ) ) ;
#624 = ORIENTED_EDGE ( 'NONE', *, *, #198, .F. ) ;
#625 = PRESENTATION_LAYER_ASSIGNMENT (  '', '', ( #486 ) ) ;
#626 = DIRECTION ( 'NONE',  ( 0.0000000000000000000, -0.0000000000000000000, 1.000000000000000000 ) ) ;
#627 =( NAMED_UNIT ( * ) SI_UNIT ( $, .STERADIAN. ) SOLID_ANGLE_UNIT ( ) );
#628 = CARTESIAN_POINT ( 'NONE',  ( 0.3000000000000003775, 0.01499999999999998557, -0.1350000000000000644 ) ) ;
#629 = COLOUR_RGB ( '',0.7921568627450980005, 0.8196078431372548767, 0.9333333333333333481 ) ;
#630 = DIRECTION ( 'NONE',  ( -1.000000000000000000, 0.0000000000000000000, 0.0000000000000000000 ) ) ;
#631 = CIRCLE ( 'NONE', #1268, 0.01499999999999998557 ) ;
#632 = FACE_OUTER_BOUND ( 'NONE', #875, .T. ) ;
#633 = FACE_OUTER_BOUND ( 'NONE', #98, .T. ) ;
#634 = CARTESIAN_POINT ( 'NONE',  ( 500000.0000000000582, 0.004999999999999999237, 0.1349999999566317554 ) ) ;
#635 = PLANE ( 'NONE',  #16 ) ;
#636 = ORIENTED_EDGE ( 'NONE', *, *, #1086, .F. ) ;
#637 = ORIENTED_EDGE ( 'NONE', *, *, #77, .T. ) ;
#638 = CARTESIAN_POINT ( 'NONE',  ( 0.2000000000066393113, 0.01499999999999998557, -0.1349999999999999256 ) ) ;
#639 = ORIENTED_EDGE ( 'NONE', *, *, #1172, .F. ) ;
#640 = EDGE_CURVE ( 'NONE', #578, #576, #1045, .T. ) ;
#641 = CARTESIAN_POINT ( 'NONE',  ( 0.2000000000000005107, 0.3300000000000000155, -0.1499999999999998557 ) ) ;
#642 = DIRECTION ( 'NONE',  ( 0.0000000000000000000, 0.0000000000000000000, 1.000000000000000000 ) ) ;
#643 = CARTESIAN_POINT ( 'NONE',  ( -0.2850000000000005862, 0.3150000000000000022, 0.1499999999999998557 ) ) ;
#644 = CARTESIAN_POINT ( 'NONE',  ( 500000.0000000000582, 0.01499999999999998557, -0.1450000000433679659 ) ) ;
#645 = LINE ( 'NONE', #1176, #1025 ) ;
#646 = VECTOR ( 'NONE', #545, 1000.000000000000000 ) ;
#647 = CARTESIAN_POINT ( 'NONE',  ( 0.0000000000000000000, 0.0000000000000000000, 0.0000000000000000000 ) ) ;
#648 = FACE_OUTER_BOUND ( 'NONE', #418, .T. ) ;
#649 = CARTESIAN_POINT ( 'NONE',  ( -0.2000000000000005107, 0.0000000000000000000, -0.1499999999999998557 ) ) ;
#650 = ORIENTED_EDGE ( 'NONE', *, *, #1199, .T. ) ;
#651 = STYLED_ITEM ( 'NONE', ( #981 ), #883 ) ;
#652 = ORIENTED_EDGE ( 'NONE', *, *, #403, .F. ) ;
#653 = PRODUCT_CONTEXT ( 'NONE', #1251, 'mechanical' ) ;
#654 = ORIENTED_EDGE ( 'NONE', *, *, #1216, .F. ) ;
#655 = ORIENTED_EDGE ( 'NONE', *, *, #945, .T. ) ;
#656 = AXIS2_PLACEMENT_3D ( 'NONE', #1161, #157, #457 ) ;
#657 = EDGE_CURVE ( 'NONE', #17, #765, #938, .T. ) ;
#658 = CARTESIAN_POINT ( 'NONE',  ( 0.2850000000000005862, 0.3300000000000000155, 0.1349999999999998701 ) ) ;
#659 = FACE_OUTER_BOUND ( 'NONE', #892, .T. ) ;
#660 = FACE_OUTER_BOUND ( 'NONE', #907, .T. ) ;
#661 = DIRECTION ( 'NONE',  ( 0.0000000000000000000, 0.0000000000000000000, -1.000000000000000000 ) ) ;
#662 = EDGE_CURVE ( 'NONE', #1113, #155, #1257, .T. ) ;
#663 = ORIENTED_EDGE ( 'NONE', *, *, #213, .F. ) ;
#664 = STYLED_ITEM ( 'NONE', ( #206 ), #172 ) ;
#665 = ORIENTED_EDGE ( 'NONE', *, *, #1267, .F. ) ;
#666 = VERTEX_POINT ( 'NONE', #1206 ) ;
#667 = CARTESIAN_POINT ( 'NONE',  ( -0.3000000000000003775, 0.01499999999999998557, -0.1500000000000000777 ) ) ;
#668 = CARTESIAN_POINT ( 'NONE',  ( 0.2850000000000003642, 0.3150000000000000022, -0.1350000000000000644 ) ) ;
#669 = APPLICATION_PROTOCOL_DEFINITION ( 'draft international standard', 'automotive_design', 1998, #844 ) ;
#670 = AXIS2_PLACEMENT_3D ( 'NONE', #758, #1068, #1072 ) ;
#671 = DIRECTION ( 'NONE',  ( 1.000000000000000000, -0.0000000000000000000, 2.168404344971012812E-15 ) ) ;
#672 = VECTOR ( 'NONE', #1171, 1000.000000000000000 ) ;
#673 = DIRECTION ( 'NONE',  ( 7.228014483236698528E-16, 0.0000000000000000000, 1.000000000000000000 ) ) ;
#674 = LINE ( 'NONE', #997, #1178 ) ;
#675 = ORIENTED_EDGE ( 'NONE', *, *, #874, .T. ) ;
#676 = CARTESIAN_POINT ( 'NONE',  ( -0.2000000000000005107, 0.01499999999999998557, 0.1349999999999998701 ) ) ;
#677 = DIRECTION ( 'NONE',  ( 1.000000000000000000, -0.0000000000000000000, -0.0000000000000000000 ) ) ;
#678 = ADVANCED_FACE ( 'NONE', ( #1011 ), #1162, .T. ) ;
#679 = CARTESIAN_POINT ( 'NONE',  ( 0.2000000000066393113, 0.01499999999999998557, 0.1349999999999998146 ) ) ;
#680 = ORIENTED_EDGE ( 'NONE', *, *, #1215, .F. ) ;
#681 = EDGE_CURVE ( 'NONE', #1169, #576, #416, .T. ) ;
#682 = VERTEX_POINT ( 'NONE', #299 ) ;
#683 = ORIENTED_EDGE ( 'NONE', *, *, #481, .F. ) ;
#684 = DIRECTION ( 'NONE',  ( -0.0000000000000000000, 1.000000000000000000, -0.0000000000000000000 ) ) ;
#685 = ADVANCED_FACE ( 'NONE', ( #163 ), #20, .F. ) ;
#686 = DIRECTION ( 'NONE',  ( 0.0000000000000000000, 0.0000000000000000000, 1.000000000000000000 ) ) ;
#687 = AXIS2_PLACEMENT_3D ( 'NONE', #1097, #1201, #610 ) ;
#688 = DIRECTION ( 'NONE',  ( -1.000000000000000000, 0.0000000000000000000, 0.0000000000000000000 ) ) ;
#689 = ADVANCED_FACE ( 'NONE', ( #1079 ), #513, .F. ) ;
#690 = LINE ( 'NONE', #1198, #779 ) ;
#691 = VECTOR ( 'NONE', #1244, 1000.000000000000000 ) ;
#692 = ORIENTED_EDGE ( 'NONE', *, *, #741, .T. ) ;
#693 = DIRECTION ( 'NONE',  ( -8.673617379884036705E-17, 0.0000000000000000000, -1.000000000000000000 ) ) ;
#694 = ORIENTED_EDGE ( 'NONE', *, *, #832, .F. ) ;
#695 = ORIENTED_EDGE ( 'NONE', *, *, #403, .T. ) ;
#696 = EDGE_CURVE ( 'NONE', #1101, #408, #1191, .T. ) ;
#697 = DIRECTION ( 'NONE',  ( 1.000000000000000000, 0.0000000000000000000, 0.0000000000000000000 ) ) ;
#698 = DIRECTION ( 'NONE',  ( 1.000000000000000000, 0.0000000000000000000, -2.168404344971012812E-15 ) ) ;
#699 = EDGE_CURVE ( 'NONE', #419, #682, #690, .T. ) ;
#700 = ADVANCED_FACE ( 'NONE', ( #431 ), #749, .T. ) ;
#701 = LINE ( 'NONE', #524, #746 ) ;
#702 = AXIS2_PLACEMENT_3D ( 'NONE', #994, #899, #693 ) ;
#703 = SPHERICAL_SURFACE ( 'NONE', #506, 0.01499999999999999944 ) ;
#704 = CARTESIAN_POINT ( 'NONE',  ( 0.0000000000000000000, 0.0000000000000000000, 0.0000000000000000000 ) ) ;
#705 = VECTOR ( 'NONE', #274, 1000.000000000000000 ) ;
#706 = ORIENTED_EDGE ( 'NONE', *, *, #190, .T. ) ;
#707 = DIRECTION ( 'NONE',  ( -0.0000000000000000000, -1.000000000000000000, -0.0000000000000000000 ) ) ;
#708 = ORIENTED_EDGE ( 'NONE', *, *, #1023, .T. ) ;
#709 = EDGE_LOOP ( 'NONE', ( #1017, #368, #1053, #801 ) ) ;
#710 = AXIS2_PLACEMENT_3D ( 'NONE', #599, #978, #302 ) ;
#711 = DIRECTION ( 'NONE',  ( 0.0000000000000000000, 0.0000000000000000000, 1.000000000000000000 ) ) ;
#712 = ORIENTED_EDGE ( 'NONE', *, *, #351, .F. ) ;
#713 = DIRECTION ( 'NONE',  ( 0.0000000000000000000, 0.0000000000000000000, 1.000000000000000000 ) ) ;
#714 = DIRECTION ( 'NONE',  ( 1.000000000000000000, 0.0000000000000000000, -8.673617379884036705E-17 ) ) ;
#715 = CARTESIAN_POINT ( 'NONE',  ( 0.2850000000000005862, 0.3150000000000000022, 0.1349999999999998701 ) ) ;
#716 = CARTESIAN_POINT ( 'NONE',  ( -0.2850000000000005862, 0.3150000000000000022, 0.1349999999999998701 ) ) ;
#717 = EDGE_CURVE ( 'NONE', #448, #764, #674, .T. ) ;
#718 = LINE ( 'NONE', #530, #258 ) ;
#719 = FACE_OUTER_BOUND ( 'NONE', #12, .T. ) ;
#720 = CARTESIAN_POINT ( 'NONE',  ( -0.2850000000000005862, 0.3300000000000000155, 0.1499999999999998557 ) ) ;
#721 = LINE ( 'NONE', #644, #1242 ) ;
#722 = ORIENTED_EDGE ( 'NONE', *, *, #724, .T. ) ;
#723 = ORIENTED_EDGE ( 'NONE', *, *, #114, .T. ) ;
#724 = EDGE_CURVE ( 'NONE', #203, #482, #140, .T. ) ;
#725 = UNCERTAINTY_MEASURE_WITH_UNIT (LENGTH_MEASURE( 1.000000000000000082E-05 ), #256, 'distance_accuracy_value', 'NONE');
#726 = MANIFOLD_SOLID_BREP ( 'Boss-Extrude2', #31 ) ;
#727 = PRESENTATION_LAYER_ASSIGNMENT (  '', '', ( #1111 ) ) ;
#728 = DIRECTION ( 'NONE',  ( 3.614007241618348376E-15, 0.0000000000000000000, 1.000000000000000000 ) ) ;
#729 = VECTOR ( 'NONE', #1010, 1000.000000000000000 ) ;
#730 = DIRECTION ( 'NONE',  ( 0.0000000000000000000, -1.000000000000000000, 0.0000000000000000000 ) ) ;
#731 = FACE_OUTER_BOUND ( 'NONE', #562, .T. ) ;
#732 = CIRCLE ( 'NONE', #842, 0.01499999999999998557 ) ;
#733 = CARTESIAN_POINT ( 'NONE',  ( 0.2000000000066393113, 0.3150000000000000022, 0.1349999999999998146 ) ) ;
#734 = AXIS2_PLACEMENT_3D ( 'NONE', #1192, #802, #494 ) ;
#735 = FACE_OUTER_BOUND ( 'NONE', #608, .T. ) ;
#736 = CIRCLE ( 'NONE', #85, 0.01499999999999999944 ) ;
#737 = CARTESIAN_POINT ( 'NONE',  ( 0.2000000000000005107, 0.3300000000000000155, -0.1499999999999998557 ) ) ;
#738 = ORIENTED_EDGE ( 'NONE', *, *, #1221, .T. ) ;
#739 = DIRECTION ( 'NONE',  ( 7.228014483236698528E-16, 0.0000000000000000000, 1.000000000000000000 ) ) ;
#740 = ORIENTED_EDGE ( 'NONE', *, *, #1132, .F. ) ;
#741 = EDGE_CURVE ( 'NONE', #309, #862, #778, .T. ) ;
#742 = DIRECTION ( 'NONE',  ( -0.0000000000000000000, -0.0000000000000000000, -1.000000000000000000 ) ) ;
#743 = EDGE_CURVE ( 'NONE', #228, #202, #1009, .T. ) ;
#744 = DIRECTION ( 'NONE',  ( 0.0000000000000000000, 1.000000000000000000, -0.0000000000000000000 ) ) ;
#745 = CARTESIAN_POINT ( 'NONE',  ( 0.2850000000000004752, 0.0000000000000000000, -2.059984127722462369E-16 ) ) ;
#746 = VECTOR ( 'NONE', #818, 1000.000000000000000 ) ;
#747 = VECTOR ( 'NONE', #698, 1000.000000000000000 ) ;
#748 = DIRECTION ( 'NONE',  ( 0.0000000000000000000, 1.000000000000000000, 0.0000000000000000000 ) ) ;
#749 = SPHERICAL_SURFACE ( 'NONE', #367, 0.01499999999999999944 ) ;
#750 = FACE_OUTER_BOUND ( 'NONE', #212, .T. ) ;
#751 = AXIS2_PLACEMENT_3D ( 'NONE', #38, #534, #1137 ) ;
#752 = ORIENTED_EDGE ( 'NONE', *, *, #640, .T. ) ;
#753 = DIRECTION ( 'NONE',  ( 0.0000000000000000000, -1.000000000000000000, 0.0000000000000000000 ) ) ;
#754 = ORIENTED_EDGE ( 'NONE', *, *, #307, .F. ) ;
#755 = ORIENTED_EDGE ( 'NONE', *, *, #1052, .F. ) ;
#756 = CARTESIAN_POINT ( 'NONE',  ( -0.2000000000000005107, 0.3300000000000000155, -0.1499999999999998557 ) ) ;
#757 = DIRECTION ( 'NONE',  ( 1.000000000000000000, 0.0000000000000000000, 0.0000000000000000000 ) ) ;
#758 = CARTESIAN_POINT ( 'NONE',  ( -0.2000000000000005107, 0.3150000000000000022, 0.1349999999999998701 ) ) ;
#759 = CIRCLE ( 'NONE', #1184, 0.01499999999999998557 ) ;
#760 = SURFACE_STYLE_FILL_AREA ( #1021 ) ;
#761 = CARTESIAN_POINT ( 'NONE',  ( 0.0000000000000000000, 0.0000000000000000000, 0.1349999999999998701 ) ) ;
#762 = FACE_OUTER_BOUND ( 'NONE', #75, .T. ) ;
#763 = EDGE_CURVE ( 'NONE', #202, #448, #840, .T. ) ;
#764 = VERTEX_POINT ( 'NONE', #1033 ) ;
#765 = VERTEX_POINT ( 'NONE', #384 ) ;
#766 = CARTESIAN_POINT ( 'NONE',  ( 0.3000000000000003775, 0.3150000000000000022, -0.1500000000000000777 ) ) ;
#767 = ORIENTED_EDGE ( 'NONE', *, *, #171, .T. ) ;
#768 = DIRECTION ( 'NONE',  ( 1.000000000000000000, 0.0000000000000000000, -8.673617379884036705E-17 ) ) ;
#769 = DIRECTION ( 'NONE',  ( -1.000000000000000000, 0.0000000000000000000, 2.168404344971012812E-15 ) ) ;
#770 = ORIENTED_EDGE ( 'NONE', *, *, #91, .F. ) ;
#771 = ORIENTED_EDGE ( 'NONE', *, *, #805, .F. ) ;
#772 = DIRECTION ( 'NONE',  ( 0.0000000000000000000, 0.0000000000000000000, 1.000000000000000000 ) ) ;
#773 = CARTESIAN_POINT ( 'NONE',  ( 0.0000000000000000000, 0.3150000000000000022, 0.1349999999999998701 ) ) ;
#774 = AXIS2_PLACEMENT_3D ( 'NONE', #583, #1168, #1071 ) ;
#775 = PLANE ( 'NONE',  #1024 ) ;
#776 = DIRECTION ( 'NONE',  ( 0.0000000000000000000, 0.0000000000000000000, 1.000000000000000000 ) ) ;
#777 = ADVANCED_FACE ( 'NONE', ( #556 ), #32, .T. ) ;
#778 = CIRCLE ( 'NONE', #908, 0.009999999999999972453 ) ;
#779 = VECTOR ( 'NONE', #106, 1000.000000000000000 ) ;
#780 = FACE_OUTER_BOUND ( 'NONE', #297, .T. ) ;
#781 = ORIENTED_EDGE ( 'NONE', *, *, #966, .T. ) ;
#782 = EDGE_CURVE ( 'NONE', #1138, #419, #161, .T. ) ;
#783 = ORIENTED_EDGE ( 'NONE', *, *, #832, .T. ) ;
#784 = ADVANCED_FACE ( 'NONE', ( #504 ), #1114, .F. ) ;
#785 = ORIENTED_EDGE ( 'NONE', *, *, #575, .T. ) ;
#786 = DIRECTION ( 'NONE',  ( -1.000000000000000000, 0.0000000000000000000, 0.0000000000000000000 ) ) ;
#787 = EDGE_LOOP ( 'NONE', ( #1065, #986, #543, #939 ) ) ;
#788 = DIRECTION ( 'NONE',  ( -1.000000000000000000, -0.0000000000000000000, 8.673617379884036705E-17 ) ) ;
#789 = EDGE_CURVE ( 'NONE', #396, #1082, #903, .T. ) ;
#790 = ADVANCED_FACE ( 'NONE', ( #220 ), #703, .T. ) ;
#791 = AXIS2_PLACEMENT_3D ( 'NONE', #1186, #6, #101 ) ;
#792 = DIRECTION ( 'NONE',  ( 0.0000000000000000000, -0.0000000000000000000, -1.000000000000000000 ) ) ;
#793 = CARTESIAN_POINT ( 'NONE',  ( 0.2850000000000003642, 0.3150000000000000022, -0.1350000000000000366 ) ) ;
#794 = LINE ( 'NONE', #129, #23 ) ;
#795 = LINE ( 'NONE', #1105, #259 ) ;
#796 = ADVANCED_FACE ( 'NONE', ( #967 ), #178, .T. ) ;
#797 = ORIENTED_EDGE ( 'NONE', *, *, #342, .T. ) ;
#798 = ORIENTED_EDGE ( 'NONE', *, *, #872, .T. ) ;
#799 = EDGE_CURVE ( 'NONE', #482, #682, #391, .T. ) ;
#800 = EDGE_LOOP ( 'NONE', ( #529, #738, #812, #723 ) ) ;
#801 = ORIENTED_EDGE ( 'NONE', *, *, #250, .F. ) ;
#802 = DIRECTION ( 'NONE',  ( -1.000000000000000000, 0.0000000000000000000, -3.614007241618351532E-15 ) ) ;
#803 = CARTESIAN_POINT ( 'NONE',  ( 0.2000000000066393113, 0.005000000000000006176, 0.1349999999999998146 ) ) ;
#804 = CARTESIAN_POINT ( 'NONE',  ( 0.2000000000000005107, 0.01499999999999998557, -0.1499999999999998557 ) ) ;
#805 = EDGE_CURVE ( 'NONE', #940, #898, #951, .T. ) ;
#806 = EDGE_CURVE ( 'NONE', #765, #228, #1256, .T. ) ;
#807 = CARTESIAN_POINT ( 'NONE',  ( -0.2850000000000003642, 0.3150000000000000022, -0.1350000000000000366 ) ) ;
#808 = SURFACE_STYLE_FILL_AREA ( #516 ) ;
#809 = CIRCLE ( 'NONE', #612, 0.01499999999999998557 ) ;
#810 = LINE ( 'NONE', #354, #505 ) ;
#811 = DIRECTION ( 'NONE',  ( 1.000000000000000000, 0.0000000000000000000, 2.168404344971012812E-15 ) ) ;
#812 = ORIENTED_EDGE ( 'NONE', *, *, #342, .F. ) ;
#813 = ORIENTED_EDGE ( 'NONE', *, *, #439, .F. ) ;
#814 =( NAMED_UNIT ( * ) PLANE_ANGLE_UNIT ( ) SI_UNIT ( $, .RADIAN. ) );
#815 = DIRECTION ( 'NONE',  ( -0.0000000000000000000, 0.0000000000000000000, -1.000000000000000000 ) ) ;
#816 = AXIS2_PLACEMENT_3D ( 'NONE', #716, #815, #222 ) ;
#817 = ORIENTED_EDGE ( 'NONE', *, *, #880, .F. ) ;
#818 = DIRECTION ( 'NONE',  ( 1.000000000000000000, -0.0000000000000000000, 2.168404344971012812E-15 ) ) ;
#819 = FILL_AREA_STYLE_COLOUR ( '', #1043 ) ;
#820 =( NAMED_UNIT ( * ) PLANE_ANGLE_UNIT ( ) SI_UNIT ( $, .RADIAN. ) );
#821 = AXIS2_PLACEMENT_3D ( 'NONE', #442, #348, #1022 ) ;
#822 = DIRECTION ( 'NONE',  ( 1.000000000000000000, 0.0000000000000000000, 0.0000000000000000000 ) ) ;
#823 = FACE_OUTER_BOUND ( 'NONE', #156, .T. ) ;
#824 = CIRCLE ( 'NONE', #300, 0.01499999999999998557 ) ;
#825 = CARTESIAN_POINT ( 'NONE',  ( 0.2850000000000003086, 0.3300000000000000155, -0.1500000000000000500 ) ) ;
#826 = EDGE_LOOP ( 'NONE', ( #433, #40, #859, #399 ) ) ;
#827 = ORIENTED_EDGE ( 'NONE', *, *, #874, .F. ) ;
#828 = DIRECTION ( 'NONE',  ( -1.000000000000000000, -0.0000000000000000000, 3.614007241618351532E-15 ) ) ;
#829 = DIRECTION ( 'NONE',  ( 0.0000000000000000000, 0.0000000000000000000, 1.000000000000000000 ) ) ;
#830 = DIRECTION ( 'NONE',  ( 1.000000000000000000, 0.0000000000000000000, 0.0000000000000000000 ) ) ;
#831 = ORIENTED_EDGE ( 'NONE', *, *, #51, .F. ) ;
#832 = EDGE_CURVE ( 'NONE', #202, #73, #35, .T. ) ;
#833 = ORIENTED_EDGE ( 'NONE', *, *, #77, .F. ) ;
#834 = DIRECTION ( 'NONE',  ( -1.000000000000000000, 0.0000000000000000000, 0.0000000000000000000 ) ) ;
#835 = VERTEX_POINT ( 'NONE', #1219 ) ;
#836 = CARTESIAN_POINT ( 'NONE',  ( -0.2850000000000005862, 0.01499999999999998557, 0.1499999999999998557 ) ) ;
#837 = DIRECTION ( 'NONE',  ( 0.0000000000000000000, 1.000000000000000000, 0.0000000000000000000 ) ) ;
#838 = CARTESIAN_POINT ( 'NONE',  ( 0.3000000000000003775, 0.3150000000000000022, -0.1350000000000000644 ) ) ;
#839 = CIRCLE ( 'NONE', #440, 0.01499999999999998557 ) ;
#840 = LINE ( 'NONE', #825, #428 ) ;
#841 = DIRECTION ( 'NONE',  ( 0.0000000000000000000, -1.000000000000000000, 0.0000000000000000000 ) ) ;
#842 = AXIS2_PLACEMENT_3D ( 'NONE', #226, #340, #43 ) ;
#843 = SPHERICAL_SURFACE ( 'NONE', #121, 0.01499999999999999944 ) ;
#844 = APPLICATION_CONTEXT ( 'automotive_design' ) ;
#845 = EDGE_LOOP ( 'NONE', ( #1180, #379, #445, #44 ) ) ;
#846 = DIRECTION ( 'NONE',  ( 1.000000000000000000, 0.0000000000000000000, 0.0000000000000000000 ) ) ;
#847 = ORIENTED_EDGE ( 'NONE', *, *, #782, .T. ) ;
#848 = ORIENTED_EDGE ( 'NONE', *, *, #30, .T. ) ;
#849 = ORIENTED_EDGE ( 'NONE', *, *, #1246, .T. ) ;
#850 = CARTESIAN_POINT ( 'NONE',  ( -0.2000000000000005107, 0.3150000000000000022, -0.1349999999999998701 ) ) ;
#851 = EDGE_LOOP ( 'NONE', ( #877, #313, #1035, #652 ) ) ;
#852 = EDGE_CURVE ( 'NONE', #969, #589, #5, .T. ) ;
#853 = DIRECTION ( 'NONE',  ( 1.000000000000000000, 0.0000000000000000000, 0.0000000000000000000 ) ) ;
#854 = CARTESIAN_POINT ( 'NONE',  ( -0.2000000000000005107, 0.3150000000000000022, -0.1499999999999998557 ) ) ;
#855 = DIRECTION ( 'NONE',  ( 0.0000000000000000000, 0.0000000000000000000, -1.000000000000000000 ) ) ;
#856 = EDGE_CURVE ( 'NONE', #424, #477, #518, .T. ) ;
#857 = VECTOR ( 'NONE', #1063, 1000.000000000000000 ) ;
#858 = FACE_OUTER_BOUND ( 'NONE', #361, .T. ) ;
#859 = ORIENTED_EDGE ( 'NONE', *, *, #880, .T. ) ;
#860 = DIRECTION ( 'NONE',  ( 0.0000000000000000000, -1.000000000000000000, 0.0000000000000000000 ) ) ;
#861 = CARTESIAN_POINT ( 'NONE',  ( -0.3000000000000005440, 0.3300000000000000155, 0.1349999999999998701 ) ) ;
#862 = VERTEX_POINT ( 'NONE', #928 ) ;
#863 = VERTEX_POINT ( 'NONE', #1235 ) ;
#864 = DIRECTION ( 'NONE',  ( -0.0000000000000000000, 0.0000000000000000000, 1.000000000000000000 ) ) ;
#865 = VERTEX_POINT ( 'NONE', #324 ) ;
#866 = CARTESIAN_POINT ( 'NONE',  ( 0.3000000000000003775, 0.3300000000000000155, -0.1500000000000000777 ) ) ;
#867 = CARTESIAN_POINT ( 'NONE',  ( 0.3000000000000005440, 0.01499999999999998557, 0.1349999999999998701 ) ) ;
#868 = VECTOR ( 'NONE', #1056, 1000.000000000000000 ) ;
#869 = CARTESIAN_POINT ( 'NONE',  ( 0.3000000000000005440, 0.3150000000000000022, 0.1349999999999998701 ) ) ;
#870 = LINE ( 'NONE', #737, #152 ) ;
#871 = CARTESIAN_POINT ( 'NONE',  ( -0.2000000000000005107, 0.004999999999999999237, -0.1349999999999997591 ) ) ;
#872 = EDGE_CURVE ( 'NONE', #666, #609, #718, .T. ) ;
#873 = ORIENTED_EDGE ( 'NONE', *, *, #198, .T. ) ;
#874 = EDGE_CURVE ( 'NONE', #70, #325, #732, .T. ) ;
#875 = EDGE_LOOP ( 'NONE', ( #683, #1064, #560, #680 ) ) ;
#876 = DIRECTION ( 'NONE',  ( -0.0000000000000000000, 1.000000000000000000, -0.0000000000000000000 ) ) ;
#877 = ORIENTED_EDGE ( 'NONE', *, *, #171, .F. ) ;
#878 = CARTESIAN_POINT ( 'NONE',  ( -0.2000000000000005107, 0.3250000000000000111, -0.1349999999999998701 ) ) ;
#879 = ORIENTED_EDGE ( 'NONE', *, *, #1215, .T. ) ;
#880 = EDGE_CURVE ( 'NONE', #835, #73, #193, .T. ) ;
#881 = ADVANCED_FACE ( 'NONE', ( #1220 ), #539, .T. ) ;
#882 = AXIS2_PLACEMENT_3D ( 'NONE', #242, #931, #1119 ) ;
#883 = MANIFOLD_SOLID_BREP ( 'Mirror2', #974 ) ;
#884 = CARTESIAN_POINT ( 'NONE',  ( -0.2850000000000003642, 0.3150000000000000022, -0.1350000000000000644 ) ) ;
#885 = DIRECTION ( 'NONE',  ( 0.0000000000000000000, 1.000000000000000000, 0.0000000000000000000 ) ) ;
#886 = LINE ( 'NONE', #1217, #1173 ) ;
#887 = VECTOR ( 'NONE', #961, 1000.000000000000000 ) ;
#888 = ADVANCED_FACE ( 'NONE', ( #1190 ), #356, .T. ) ;
#889 = CYLINDRICAL_SURFACE ( 'NONE', #496, 0.01499999999999998557 ) ;
#890 = VECTOR ( 'NONE', #514, 1000.000000000000000 ) ;
#891 = CARTESIAN_POINT ( 'NONE',  ( 500000.0000000000582, 0.3250000000000000111, -0.1350000000433679848 ) ) ;
#892 = EDGE_LOOP ( 'NONE', ( #712, #365, #781, #925 ) ) ;
#893 = EDGE_CURVE ( 'NONE', #1113, #309, #794, .T. ) ;
#894 = EDGE_LOOP ( 'NONE', ( #28, #752, #622 ) ) ;
#895 = CARTESIAN_POINT ( 'NONE',  ( 0.3000000000000003775, 0.01499999999999998557, -0.1500000000000000777 ) ) ;
#896 = CARTESIAN_POINT ( 'NONE',  ( -0.2000000000000005107, 0.3150000000000000022, 0.1499999999999998557 ) ) ;
#897 = ADVANCED_FACE ( 'NONE', ( #1271 ), #619, .T. ) ;
#898 = VERTEX_POINT ( 'NONE', #174 ) ;
#899 = DIRECTION ( 'NONE',  ( 1.000000000000000000, 0.0000000000000000000, -8.673617379884036705E-17 ) ) ;
#900 = EDGE_CURVE ( 'NONE', #528, #923, #94, .T. ) ;
#901 = FACE_OUTER_BOUND ( 'NONE', #1002, .T. ) ;
#902 = DIRECTION ( 'NONE',  ( 0.0000000000000000000, 1.000000000000000000, -0.0000000000000000000 ) ) ;
#903 = CIRCLE ( 'NONE', #1200, 0.01499999999999998557 ) ;
#904 = LINE ( 'NONE', #588, #1145 ) ;
#905 = DIRECTION ( 'NONE',  ( 0.0000000000000000000, 0.0000000000000000000, 1.000000000000000000 ) ) ;
#906 = ORIENTED_EDGE ( 'NONE', *, *, #1006, .T. ) ;
#907 = EDGE_LOOP ( 'NONE', ( #1181, #1085, #58, #827, #508, #181, #112, #595 ) ) ;
#908 = AXIS2_PLACEMENT_3D ( 'NONE', #638, #254, #1252 ) ;
#909 = EDGE_LOOP ( 'NONE', ( #675, #293, #56, #84 ) ) ;
#910 = CARTESIAN_POINT ( 'NONE',  ( 0.2850000000000003642, 0.3150000000000000022, -0.1350000000000000644 ) ) ;
#911 = ORIENTED_EDGE ( 'NONE', *, *, #699, .F. ) ;
#912 = DIRECTION ( 'NONE',  ( 1.000000000000000000, 0.0000000000000000000, 0.0000000000000000000 ) ) ;
#913 =( NAMED_UNIT ( * ) SI_UNIT ( $, .STERADIAN. ) SOLID_ANGLE_UNIT ( ) );
#914 = CARTESIAN_POINT ( 'NONE',  ( -0.2850000000000003086, 0.01499999999999998557, -0.1500000000000000500 ) ) ;
#915 = AXIS2_PLACEMENT_3D ( 'NONE', #372, #364, #350 ) ;
#916 = DIRECTION ( 'NONE',  ( -1.000000000000000000, 0.0000000000000000000, 0.0000000000000000000 ) ) ;
#917 = SURFACE_SIDE_STYLE ('',( #760 ) ) ;
#918 = CYLINDRICAL_SURFACE ( 'NONE', #78, 0.009999999999999972453 ) ;
#919 = CARTESIAN_POINT ( 'NONE',  ( -0.2000000000000005107, 0.3150000000000000022, 0.1449999999999998512 ) ) ;
#920 = VECTOR ( 'NONE', #673, 1000.000000000000000 ) ;
#921 = SPHERICAL_SURFACE ( 'NONE', #400, 0.01499999999999999944 ) ;
#922 = CARTESIAN_POINT ( 'NONE',  ( 0.2000000000066393113, 0.3250000000000000111, -0.1349999999999999256 ) ) ;
#923 = VERTEX_POINT ( 'NONE', #371 ) ;
#924 = CARTESIAN_POINT ( 'NONE',  ( 0.2000000000000005107, 0.01499999999999998557, -0.1349999999999998701 ) ) ;
#925 = ORIENTED_EDGE ( 'NONE', *, *, #382, .F. ) ;
#926 = EDGE_CURVE ( 'NONE', #1049, #360, #66, .T. ) ;
#927 = AXIS2_PLACEMENT_3D ( 'NONE', #90, #860, #1160 ) ;
#928 = CARTESIAN_POINT ( 'NONE',  ( 0.2000000000066393113, 0.01499999999999998557, -0.1449999999999998790 ) ) ;
#929 = PLANE ( 'NONE',  #984 ) ;
#930 = CARTESIAN_POINT ( 'NONE',  ( 0.2850000000000004752, 0.3150000000000000022, -2.059984127722462369E-16 ) ) ;
#931 = DIRECTION ( 'NONE',  ( 0.0000000000000000000, -1.000000000000000000, -0.0000000000000000000 ) ) ;
#932 = FACE_OUTER_BOUND ( 'NONE', #492, .T. ) ;
#933 = CARTESIAN_POINT ( 'NONE',  ( 500000.0000000000582, 0.3150000000000000022, 0.1349999999566317554 ) ) ;
#934 = AXIS2_PLACEMENT_3D ( 'NONE', #891, #148, #162 ) ;
#935 = CYLINDRICAL_SURFACE ( 'NONE', #1087, 0.009999999999999972453 ) ;
#937 = CARTESIAN_POINT ( 'NONE',  ( 0.2850000000000003086, 0.3150000000000000022, -0.1500000000000000500 ) ) ;
#936 = PRODUCT_DEFINITION_SHAPE ( 'NONE', 'NONE',  #554 ) ;
#938 = LINE ( 'NONE', #413, #488 ) ;
#939 = ORIENTED_EDGE ( 'NONE', *, *, #438, .F. ) ;
#940 = VERTEX_POINT ( 'NONE', #958 ) ;
#941 = CARTESIAN_POINT ( 'NONE',  ( -0.2000000000000005107, 0.3150000000000000022, -0.1499999999999998557 ) ) ;
#942 = SURFACE_STYLE_USAGE ( .BOTH. , #1254 ) ;
#943 = DIRECTION ( 'NONE',  ( 0.0000000000000000000, 0.0000000000000000000, 1.000000000000000000 ) ) ;
#944 = ORIENTED_EDGE ( 'NONE', *, *, #1007, .T. ) ;
#945 = EDGE_CURVE ( 'NONE', #408, #898, #1108, .T. ) ;
#946 = DIRECTION ( 'NONE',  ( -1.000000000000000000, -0.0000000000000000000, 8.673617379884036705E-17 ) ) ;
#947 = ORIENTED_EDGE ( 'NONE', *, *, #856, .F. ) ;
#948 = CARTESIAN_POINT ( 'NONE',  ( -0.2000000000000005107, 0.3300000000000000155, -0.1349999999999998701 ) ) ;
#949 = CARTESIAN_POINT ( 'NONE',  ( 0.0000000000000000000, 0.3300000000000000155, 0.0000000000000000000 ) ) ;
#950 = EDGE_CURVE ( 'NONE', #17, #969, #996, .T. ) ;
#951 = LINE ( 'NONE', #526, #471 ) ;
#952 = AXIS2_PLACEMENT_3D ( 'NONE', #605, #1091, #776 ) ;
#953 = LINE ( 'NONE', #971, #857 ) ;
#954 = LINE ( 'NONE', #76, #432 ) ;
#955 = ORIENTED_EDGE ( 'NONE', *, *, #551, .F. ) ;
#956 = ORIENTED_EDGE ( 'NONE', *, *, #1199, .F. ) ;
#957 = VERTEX_POINT ( 'NONE', #468 ) ;
#958 = CARTESIAN_POINT ( 'NONE',  ( -0.3000000000000003775, 0.3150000000000000022, -0.1350000000000000644 ) ) ;
#959 = CARTESIAN_POINT ( 'NONE',  ( -0.3000000000000005440, 0.01499999999999998557, 0.1499999999999998557 ) ) ;
#960 = AXIS2_PLACEMENT_3D ( 'NONE', #308, #983, #19 ) ;
#961 = DIRECTION ( 'NONE',  ( -7.228014483236698528E-16, 0.0000000000000000000, 1.000000000000000000 ) ) ;
#962 = DIRECTION ( 'NONE',  ( 2.168404344971012812E-15, 0.0000000000000000000, 1.000000000000000000 ) ) ;
#963 = VECTOR ( 'NONE', #430, 1000.000000000000000 ) ;
#964 = CARTESIAN_POINT ( 'NONE',  ( -0.2850000000000005862, 0.01499999999999998557, 0.1349999999999998701 ) ) ;
#965 = CYLINDRICAL_SURFACE ( 'NONE', #1159, 0.01499999999999998557 ) ;
#966 = EDGE_CURVE ( 'NONE', #325, #182, #1269, .T. ) ;
#967 = FACE_OUTER_BOUND ( 'NONE', #245, .T. ) ;
#968 = FACE_OUTER_BOUND ( 'NONE', #709, .T. ) ;
#969 = VERTEX_POINT ( 'NONE', #1273 ) ;
#970 = DIRECTION ( 'NONE',  ( -1.000000000000000000, -0.0000000000000000000, 8.673617379884036705E-17 ) ) ;
#971 = CARTESIAN_POINT ( 'NONE',  ( -0.2000000000000005107, 0.3300000000000000155, -0.1499999999999998557 ) ) ;
#972 = ORIENTED_EDGE ( 'NONE', *, *, #1234, .F. ) ;
#973 = EDGE_LOOP ( 'NONE', ( #509, #132, #1182, #421 ) ) ;
#974 = CLOSED_SHELL ( 'NONE', ( #9, #614, #120, #597, #407, #484, #510, #397, #796, #104, #790, #186, #1177, #298, #678, #22, #285, #999 ) ) ;
#975 = PLANE ( 'NONE',  #567 ) ;
#976 = AXIS2_PLACEMENT_3D ( 'NONE', #924, #912, #144 ) ;
#977 = CARTESIAN_POINT ( 'NONE',  ( -0.2000000000000005107, 0.01499999999999998557, -0.1499999999999998557 ) ) ;
#978 = DIRECTION ( 'NONE',  ( 8.673617379884036705E-17, -0.0000000000000000000, 1.000000000000000000 ) ) ;
#979 = PRESENTATION_LAYER_ASSIGNMENT (  '', '', ( #664 ) ) ;
#980 = ADVANCED_FACE ( 'NONE', ( #353 ), #569, .T. ) ;
#981 = PRESENTATION_STYLE_ASSIGNMENT (( #329 ) ) ;
#982 = CARTESIAN_POINT ( 'NONE',  ( 0.2850000000000005862, 0.01499999999999998557, 0.1349999999999998701 ) ) ;
#983 = DIRECTION ( 'NONE',  ( 0.0000000000000000000, 0.0000000000000000000, -1.000000000000000000 ) ) ;
#984 = AXIS2_PLACEMENT_3D ( 'NONE', #641, #246, #349 ) ;
#985 = LINE ( 'NONE', #547, #691 ) ;
#986 = ORIENTED_EDGE ( 'NONE', *, *, #1267, .T. ) ;
#987 = CLOSED_SHELL ( 'NONE', ( #784, #199, #191, #1188, #777, #689, #881, #495, #499, #606, #1092, #487, #993, #888, #897, #700, #1278, #980 ) ) ;
#988 = DIRECTION ( 'NONE',  ( -1.000000000000000000, 0.0000000000000000000, 0.0000000000000000000 ) ) ;
#989 = ORIENTED_EDGE ( 'NONE', *, *, #594, .F. ) ;
#990 = DIRECTION ( 'NONE',  ( -0.0000000000000000000, 1.000000000000000000, -0.0000000000000000000 ) ) ;
#991 = EDGE_CURVE ( 'NONE', #1196, #1151, #645, .T. ) ;
#992 = AXIS2_PLACEMENT_3D ( 'NONE', #1226, #630, #235 ) ;
#993 = ADVANCED_FACE ( 'NONE', ( #901 ), #287, .T. ) ;
#994 = CARTESIAN_POINT ( 'NONE',  ( -0.2000000000000005107, 0.3150000000000000022, -0.1349999999999998701 ) ) ;
#995 = CIRCLE ( 'NONE', #1253, 0.009999999999999972453 ) ;
#996 = LINE ( 'NONE', #761, #616 ) ;
#997 = CARTESIAN_POINT ( 'NONE',  ( 0.2000000000000005107, 0.3150000000000000022, -0.1499999999999998557 ) ) ;
#998 = CYLINDRICAL_SURFACE ( 'NONE', #3, 0.01499999999999998557 ) ;
#999 = ADVANCED_FACE ( 'NONE', ( #92 ), #374, .T. ) ;
#1000 = LINE ( 'NONE', #1123, #475 ) ;
#1001 = AXIS2_PLACEMENT_3D ( 'NONE', #668, #1274, #83 ) ;
#1002 = EDGE_LOOP ( 'NONE', ( #322, #636, #955, #654 ) ) ;
#1003 = ORIENTED_EDGE ( 'NONE', *, *, #114, .F. ) ;
#1004 = ORIENTED_EDGE ( 'NONE', *, *, #696, .F. ) ;
#1005 = DIRECTION ( 'NONE',  ( -1.000000000000000000, -0.0000000000000000000, -0.0000000000000000000 ) ) ;
#1006 = EDGE_CURVE ( 'NONE', #396, #96, #389, .T. ) ;
#1007 = EDGE_CURVE ( 'NONE', #898, #491, #1090, .T. ) ;
#1008 = CARTESIAN_POINT ( 'NONE',  ( -0.2850000000000005862, 0.0000000000000000000, 0.1349999999999998701 ) ) ;
#1009 = LINE ( 'NONE', #895, #747 ) ;
#1010 = DIRECTION ( 'NONE',  ( 7.228014483236698528E-16, -0.0000000000000000000, -1.000000000000000000 ) ) ;
#1011 = FACE_OUTER_BOUND ( 'NONE', #546, .T. ) ;
#1012 = CARTESIAN_POINT ( 'NONE',  ( 0.3000000000000005440, 0.01499999999999998557, 0.1349999999999998701 ) ) ;
#1013 = FACE_OUTER_BOUND ( 'NONE', #1031, .T. ) ;
#1014 = EDGE_CURVE ( 'NONE', #477, #491, #1174, .T. ) ;
#1015 = ORIENTED_EDGE ( 'NONE', *, *, #213, .T. ) ;
#1016 =( GEOMETRIC_REPRESENTATION_CONTEXT ( 3 ) GLOBAL_UNCERTAINTY_ASSIGNED_CONTEXT ( ( #227 ) ) GLOBAL_UNIT_ASSIGNED_CONTEXT ( ( #49, #820, #234 ) ) REPRESENTATION_CONTEXT ( 'NONE', 'WORKASPACE' ) );
#1017 = ORIENTED_EDGE ( 'NONE', *, *, #991, .F. ) ;
#1018 = DIRECTION ( 'NONE',  ( -1.000000000000000000, 0.0000000000000000000, 0.0000000000000000000 ) ) ;
#1019 = ORIENTED_EDGE ( 'NONE', *, *, #307, .T. ) ;
#1020 = SURFACE_SIDE_STYLE ('',( #808 ) ) ;
#1021 = FILL_AREA_STYLE ('',( #819 ) ) ;
#1022 = DIRECTION ( 'NONE',  ( -1.000000000000000000, 0.0000000000000000000, 0.0000000000000000000 ) ) ;
#1023 = EDGE_CURVE ( 'NONE', #1082, #1230, #50, .T. ) ;
#1024 = AXIS2_PLACEMENT_3D ( 'NONE', #11, #1, #183 ) ;
#1025 = VECTOR ( 'NONE', #864, 1000.000000000000000 ) ;
#1026 = VECTOR ( 'NONE', #387, 1000.000000000000000 ) ;
#1027 = VECTOR ( 'NONE', #742, 1000.000000000000000 ) ;
#1028 = DIRECTION ( 'NONE',  ( 1.000000000000000000, 0.0000000000000000000, 0.0000000000000000000 ) ) ;
#1029 = ORIENTED_EDGE ( 'NONE', *, *, #1158, .T. ) ;
#1030 = CARTESIAN_POINT ( 'NONE',  ( 0.2850000000000003642, 0.01499999999999999944, -0.1350000000000000644 ) ) ;
#1031 = EDGE_LOOP ( 'NONE', ( #187, #847, #295, #26 ) ) ;
#1032 = EDGE_CURVE ( 'NONE', #576, #116, #1106, .T. ) ;
#1033 = CARTESIAN_POINT ( 'NONE',  ( 0.2000000000000005107, 0.3150000000000000022, -0.1499999999999998557 ) ) ;
#1034 = DIRECTION ( 'NONE',  ( 0.0000000000000000000, 1.000000000000000000, 0.0000000000000000000 ) ) ;
#1035 = ORIENTED_EDGE ( 'NONE', *, *, #503, .F. ) ;
#1036 = DIRECTION ( 'NONE',  ( -1.000000000000000000, -0.0000000000000000000, 8.673617379884036705E-17 ) ) ;
#1037 = CARTESIAN_POINT ( 'NONE',  ( -2.927345865710855069E-16, 0.3150000000000000022, -0.1349999999999994260 ) ) ;
#1038 = CARTESIAN_POINT ( 'NONE',  ( 0.2850000000000003642, 0.01499999999999998557, -0.1500000000000000777 ) ) ;
#1039 = AXIS2_PLACEMENT_3D ( 'NONE', #81, #768, #87 ) ;
#1040 = FACE_OUTER_BOUND ( 'NONE', #128, .T. ) ;
#1041 = CARTESIAN_POINT ( 'NONE',  ( 500000.0000000000582, 0.01499999999999998557, -0.1350000000433679848 ) ) ;
#1042 = FILL_AREA_STYLE_COLOUR ( '', #629 ) ;
#1043 = COLOUR_RGB ( '',0.7921568627450980005, 0.8196078431372548767, 0.9333333333333333481 ) ;
#1044 = DIRECTION ( 'NONE',  ( 1.000000000000000000, 0.0000000000000000000, 2.168404344971012812E-15 ) ) ;
#1045 = CIRCLE ( 'NONE', #734, 0.01499999999999999944 ) ;
#1046 = CIRCLE ( 'NONE', #46, 0.01499999999999999944 ) ;
#1047 = ORIENTED_EDGE ( 'NONE', *, *, #417, .F. ) ;
#1048 = CARTESIAN_POINT ( 'NONE',  ( 2.927345865710855069E-16, 0.3150000000000000022, -0.1349999999999994260 ) ) ;
#1049 = VERTEX_POINT ( 'NONE', #878 ) ;
#1050 = AXIS2_PLACEMENT_3D ( 'NONE', #676, #1080, #772 ) ;
#1051 = ORIENTED_EDGE ( 'NONE', *, *, #1078, .F. ) ;
#1052 = EDGE_CURVE ( 'NONE', #1101, #477, #631, .T. ) ;
#1053 = ORIENTED_EDGE ( 'NONE', *, *, #926, .T. ) ;
#1054 = UNCERTAINTY_MEASURE_WITH_UNIT (LENGTH_MEASURE( 1.000000000000000082E-05 ), #1140, 'distance_accuracy_value', 'NONE');
#1055 = DIRECTION ( 'NONE',  ( 0.0000000000000000000, 0.0000000000000000000, -1.000000000000000000 ) ) ;
#1056 = DIRECTION ( 'NONE',  ( -0.0000000000000000000, -0.0000000000000000000, -1.000000000000000000 ) ) ;
#1057 = CARTESIAN_POINT ( 'NONE',  ( -0.2000000000000005107, 0.004999999999999999237, 0.1349999999999998701 ) ) ;
#1058 = EDGE_CURVE ( 'NONE', #764, #1138, #415, .T. ) ;
#1059 = PRESENTATION_STYLE_ASSIGNMENT (( #229 ) ) ;
#1060 = AXIS2_PLACEMENT_3D ( 'NONE', #565, #166, #1265 ) ;
#1061 = CARTESIAN_POINT ( 'NONE',  ( -0.2000000000000005107, 0.3300000000000000155, 0.1499999999999998557 ) ) ;
#1062 = VECTOR ( 'NONE', #196, 1000.000000000000000 ) ;
#1063 = DIRECTION ( 'NONE',  ( -0.0000000000000000000, -1.000000000000000000, -0.0000000000000000000 ) ) ;
#1064 = ORIENTED_EDGE ( 'NONE', *, *, #950, .F. ) ;
#1065 = ORIENTED_EDGE ( 'NONE', *, *, #465, .F. ) ;
#1066 = ORIENTED_EDGE ( 'NONE', *, *, #1158, .F. ) ;
#1067 = DIRECTION ( 'NONE',  ( 0.0000000000000000000, -1.000000000000000000, 0.0000000000000000000 ) ) ;
#1068 = DIRECTION ( 'NONE',  ( 1.000000000000000000, 0.0000000000000000000, -8.673617379884036705E-17 ) ) ;
#1069 = AXIS2_PLACEMENT_3D ( 'NONE', #679, #1270, #79 ) ;
#1070 = ORIENTED_EDGE ( 'NONE', *, *, #893, .T. ) ;
#1071 = DIRECTION ( 'NONE',  ( -3.614007241618348376E-15, 0.0000000000000000000, 1.000000000000000000 ) ) ;
#1072 = DIRECTION ( 'NONE',  ( 0.0000000000000000000, 0.0000000000000000000, -1.000000000000000000 ) ) ;
#1073 = ADVANCED_FACE ( 'NONE', ( #1040 ), #1194, .F. ) ;
#1074 = DIRECTION ( 'NONE',  ( -1.000000000000000000, 0.0000000000000000000, 2.168404344971012812E-15 ) ) ;
#1075 = CARTESIAN_POINT ( 'NONE',  ( 500000.0000000000582, 0.01499999999999998557, 0.1349999999566317554 ) ) ;
#1076 = FACE_OUTER_BOUND ( 'NONE', #973, .T. ) ;
#1077 = EDGE_CURVE ( 'NONE', #1279, #448, #122, .T. ) ;
#1078 = EDGE_CURVE ( 'NONE', #424, #957, #839, .T. ) ;
#1079 = FACE_OUTER_BOUND ( 'NONE', #800, .T. ) ;
#1080 = DIRECTION ( 'NONE',  ( 1.000000000000000000, -0.0000000000000000000, -0.0000000000000000000 ) ) ;
#1081 = CARTESIAN_POINT ( 'NONE',  ( 500000.0000000000582, 0.005000000000000006176, 0.1349999999566317554 ) ) ;
#1082 = VERTEX_POINT ( 'NONE', #896 ) ;
#1083 = ORIENTED_EDGE ( 'NONE', *, *, #190, .F. ) ;
#1084 = DIRECTION ( 'NONE',  ( 0.0000000000000000000, 0.0000000000000000000, -1.000000000000000000 ) ) ;
#1085 = ORIENTED_EDGE ( 'NONE', *, *, #1246, .F. ) ;
#1086 = EDGE_CURVE ( 'NONE', #578, #957, #272, .T. ) ;
#1087 = AXIS2_PLACEMENT_3D ( 'NONE', #1075, #2, #398 ) ;
#1088 = ADVANCED_FACE ( 'NONE', ( #586 ), #935, .T. ) ;
#1089 = DIRECTION ( 'NONE',  ( 0.0000000000000000000, 0.0000000000000000000, 1.000000000000000000 ) ) ;
#1090 = LINE ( 'NONE', #667, #887 ) ;
#1091 = DIRECTION ( 'NONE',  ( 1.000000000000000000, 0.0000000000000000000, 0.0000000000000000000 ) ) ;
#1092 = ADVANCED_FACE ( 'NONE', ( #316 ), #1126, .T. ) ;
#1093 = VECTOR ( 'NONE', #1034, 1000.000000000000000 ) ;
#1094 = CYLINDRICAL_SURFACE ( 'NONE', #470, 0.009999999999999972453 ) ;
#1095 = CARTESIAN_POINT ( 'NONE',  ( 0.3000000000000004330, 0.3300000000000000155, -0.1350000000000000921 ) ) ;
#1096 = ORIENTED_EDGE ( 'NONE', *, *, #553, .T. ) ;
#1097 = CARTESIAN_POINT ( 'NONE',  ( 0.2850000000000005862, 0.3150000000000000022, 0.1349999999999998701 ) ) ;
#1098 = ORIENTED_EDGE ( 'NONE', *, *, #439, .T. ) ;
#1099 = CARTESIAN_POINT ( 'NONE',  ( 0.0000000000000000000, 0.3300000000000000155, 0.0000000000000000000 ) ) ;
#1100 = ADVANCED_FACE ( 'NONE', ( #65 ), #918, .T. ) ;
#1101 = VERTEX_POINT ( 'NONE', #1008 ) ;
#1102 = EDGE_CURVE ( 'NONE', #564, #957, #601, .T. ) ;
#1103 = AXIS2_PLACEMENT_3D ( 'NONE', #1258, #253, #1146 ) ;
#1104 = CARTESIAN_POINT ( 'NONE',  ( -0.2850000000000003086, 0.3300000000000000155, -0.1500000000000000500 ) ) ;
#1105 = CARTESIAN_POINT ( 'NONE',  ( 0.2000000000000005107, 0.3300000000000000155, -0.1499999999999998557 ) ) ;
#1106 = LINE ( 'NONE', #854, #1144 ) ;
#1107 = DIRECTION ( 'NONE',  ( 1.000000000000000000, -0.0000000000000000000, -0.0000000000000000000 ) ) ;
#1108 = CIRCLE ( 'NONE', #1224, 0.01499999999999998557 ) ;
#1109 = LINE ( 'NONE', #745, #52 ) ;
#1110 = ORIENTED_EDGE ( 'NONE', *, *, #789, .F. ) ;
#1111 = STYLED_ITEM ( 'NONE', ( #1059 ), #1120 ) ;
#1112 = DIRECTION ( 'NONE',  ( -1.000000000000000000, -0.0000000000000000000, 2.168404344971012812E-15 ) ) ;
#1113 = VERTEX_POINT ( 'NONE', #803 ) ;
#1114 = PLANE ( 'NONE',  #117 ) ;
#1115 = ORIENTED_EDGE ( 'NONE', *, *, #1014, .T. ) ;
#1116 = ORIENTED_EDGE ( 'NONE', *, *, #1221, .F. ) ;
#1117 = DIRECTION ( 'NONE',  ( 0.0000000000000000000, -0.0000000000000000000, -1.000000000000000000 ) ) ;
#1118 = EDGE_LOOP ( 'NONE', ( #831, #593, #911, #27 ) ) ;
#1119 = DIRECTION ( 'NONE',  ( 0.0000000000000000000, 0.0000000000000000000, -1.000000000000000000 ) ) ;
#1120 = MANIFOLD_SOLID_BREP ( 'Fillet1', #987 ) ;
#1121 =( NAMED_UNIT ( * ) PLANE_ANGLE_UNIT ( ) SI_UNIT ( $, .RADIAN. ) );
#1122 = AXIS2_PLACEMENT_3D ( 'NONE', #559, #72, #661 ) ;
#1123 = CARTESIAN_POINT ( 'NONE',  ( -0.3000000000000005440, 0.3150000000000000022, 0.1499999999999998557 ) ) ;
#1124 = DIRECTION ( 'NONE',  ( -1.000000000000000000, 0.0000000000000000000, 0.0000000000000000000 ) ) ;
#1125 = CARTESIAN_POINT ( 'NONE',  ( -0.2000000000000005107, 0.01500000000000009312, 0.1449999999999998512 ) ) ;
#1126 = SPHERICAL_SURFACE ( 'NONE', #791, 0.01499999999999999944 ) ;
#1127 = CARTESIAN_POINT ( 'NONE',  ( 0.3000000000000003775, 0.3300000000000000155, -0.1500000000000000777 ) ) ;
#1128 = CARTESIAN_POINT ( 'NONE',  ( -0.2850000000000005862, 0.01499999999999998557, 0.1349999999999998701 ) ) ;
#1129 = VECTOR ( 'NONE', #757, 1000.000000000000000 ) ;
#1130 = DIRECTION ( 'NONE',  ( -1.000000000000000000, -0.0000000000000000000, -0.0000000000000000000 ) ) ;
#1131 = VECTOR ( 'NONE', #970, 1000.000000000000000 ) ;
#1132 = EDGE_CURVE ( 'NONE', #347, #1166, #303, .T. ) ;
#1133 = ORIENTED_EDGE ( 'NONE', *, *, #330, .T. ) ;
#1134 = AXIS2_PLACEMENT_3D ( 'NONE', #964, #1067, #472 ) ;
#1135 = ORIENTED_EDGE ( 'NONE', *, *, #136, .F. ) ;
#1136 = DIRECTION ( 'NONE',  ( 0.0000000000000000000, 1.000000000000000000, 0.0000000000000000000 ) ) ;
#1137 = DIRECTION ( 'NONE',  ( -1.000000000000000000, 0.0000000000000000000, 0.0000000000000000000 ) ) ;
#1138 = VERTEX_POINT ( 'NONE', #45 ) ;
#1139 = ORIENTED_EDGE ( 'NONE', *, *, #1262, .T. ) ;
#1140 =( LENGTH_UNIT ( ) NAMED_UNIT ( * ) SI_UNIT ( .MILLI., .METRE. ) );
#1141 = AXIS2_PLACEMENT_3D ( 'NONE', #1037, #1074, #97 ) ;
#1142 = CARTESIAN_POINT ( 'NONE',  ( 0.2850000000000003642, 0.3150000000000000022, -0.1350000000000000644 ) ) ;
#1143 = CARTESIAN_POINT ( 'NONE',  ( -0.2850000000000005862, 0.3150000000000000022, 0.1349999999999998701 ) ) ;
#1144 = VECTOR ( 'NONE', #671, 1000.000000000000000 ) ;
#1145 = VECTOR ( 'NONE', #684, 1000.000000000000000 ) ;
#1146 = DIRECTION ( 'NONE',  ( 1.000000000000000000, 0.0000000000000000000, 0.0000000000000000000 ) ) ;
#1147 = ORIENTED_EDGE ( 'NONE', *, *, #893, .F. ) ;
#1148 = ORIENTED_EDGE ( 'NONE', *, *, #30, .F. ) ;
#1149 = EDGE_CURVE ( 'NONE', #96, #578, #500, .T. ) ;
#1150 = DIRECTION ( 'NONE',  ( 0.0000000000000000000, 0.0000000000000000000, -1.000000000000000000 ) ) ;
#1151 = VERTEX_POINT ( 'NONE', #133 ) ;
#1152 =( GEOMETRIC_REPRESENTATION_CONTEXT ( 3 ) GLOBAL_UNCERTAINTY_ASSIGNED_CONTEXT ( ( #725 ) ) GLOBAL_UNIT_ASSIGNED_CONTEXT ( ( #256, #247, #355 ) ) REPRESENTATION_CONTEXT ( 'NONE', 'WORKASPACE' ) );
#1153 = DIRECTION ( 'NONE',  ( -1.000000000000000000, 0.0000000000000000000, 0.0000000000000000000 ) ) ;
#1154 = CARTESIAN_POINT ( 'NONE',  ( -0.2850000000000003642, 0.01499999999999999944, -0.1350000000000000644 ) ) ;
#1155 = ORIENTED_EDGE ( 'NONE', *, *, #743, .T. ) ;
#1156 = CARTESIAN_POINT ( 'NONE',  ( -0.3000000000000003775, 0.01499999999999998557, -0.1500000000000000777 ) ) ;
#1157 = CARTESIAN_POINT ( 'NONE',  ( 0.2850000000000003642, 0.3300000000000000155, -0.1350000000000000644 ) ) ;
#1158 = EDGE_CURVE ( 'NONE', #1101, #491, #759, .T. ) ;
#1159 = AXIS2_PLACEMENT_3D ( 'NONE', #930, #1232, #241 ) ;
#1160 = DIRECTION ( 'NONE',  ( 0.0000000000000000000, 0.0000000000000000000, -1.000000000000000000 ) ) ;
#1161 = CARTESIAN_POINT ( 'NONE',  ( 500000.0000000000582, 0.3150000000000000022, 0.1449999999566317366 ) ) ;
#1162 = CYLINDRICAL_SURFACE ( 'NONE', #515, 0.01499999999999999944 ) ;
#1163 = LINE ( 'NONE', #441, #164 ) ;
#1164 = ORIENTED_EDGE ( 'NONE', *, *, #553, .F. ) ;
#1165 = CARTESIAN_POINT ( 'NONE',  ( -0.3000000000000005440, 0.01499999999999998557, 0.1349999999999998701 ) ) ;
#1166 = VERTEX_POINT ( 'NONE', #1125 ) ;
#1167 = AXIS2_PLACEMENT_3D ( 'NONE', #634, #1136, #1239 ) ;
#1168 = DIRECTION ( 'NONE',  ( -1.000000000000000000, 0.0000000000000000000, -2.168404344971012812E-15 ) ) ;
#1169 = VERTEX_POINT ( 'NONE', #914 ) ;
#1170 = CARTESIAN_POINT ( 'NONE',  ( -0.2850000000000003642, 0.3150000000000000022, -0.1350000000000000644 ) ) ;
#1171 = DIRECTION ( 'NONE',  ( -0.0000000000000000000, -1.000000000000000000, -0.0000000000000000000 ) ) ;
#1172 = EDGE_CURVE ( 'NONE', #277, #1049, #995, .T. ) ;
#1173 = VECTOR ( 'NONE', #916, 1000.000000000000000 ) ;
#1174 = CIRCLE ( 'NONE', #1134, 0.01499999999999999944 ) ;
#1175 = CARTESIAN_POINT ( 'NONE',  ( -0.2000000000000005107, 0.005000000000000006176, 0.1349999999999998701 ) ) ;
#1176 = CARTESIAN_POINT ( 'NONE',  ( 0.2000000000066393113, 0.3250000000000000111, -0.1350000000433679848 ) ) ;
#1177 = ADVANCED_FACE ( 'NONE', ( #207 ), #965, .T. ) ;
#1178 = VECTOR ( 'NONE', #111, 1000.000000000000000 ) ;
#1179 = CARTESIAN_POINT ( 'NONE',  ( 0.2000000000066393113, 0.01500000000000009312, 0.1449999999999997957 ) ) ;
#1180 = ORIENTED_EDGE ( 'NONE', *, *, #455, .F. ) ;
#1181 = ORIENTED_EDGE ( 'NONE', *, *, #657, .F. ) ;
#1182 = ORIENTED_EDGE ( 'NONE', *, *, #681, .T. ) ;
#1183 = DIRECTION ( 'NONE',  ( -7.228014483236698528E-16, 0.0000000000000000000, 1.000000000000000000 ) ) ;
#1184 = AXIS2_PLACEMENT_3D ( 'NONE', #1128, #48, #822 ) ;
#1185 = ORIENTED_EDGE ( 'NONE', *, *, #1149, .F. ) ;
#1186 = CARTESIAN_POINT ( 'NONE',  ( -0.2850000000000005862, 0.01499999999999999944, 0.1349999999999998701 ) ) ;
#1187 = DIRECTION ( 'NONE',  ( 0.0000000000000000000, 0.0000000000000000000, 1.000000000000000000 ) ) ;
#1188 = ADVANCED_FACE ( 'NONE', ( #1076 ), #139, .F. ) ;
#1189 = AXIS2_PLACEMENT_3D ( 'NONE', #1165, #93, #584 ) ;
#1190 = FACE_OUTER_BOUND ( 'NONE', #1247, .T. ) ;
#1191 = LINE ( 'NONE', #497, #404 ) ;
#1192 = CARTESIAN_POINT ( 'NONE',  ( -0.2850000000000003642, 0.3150000000000000022, -0.1350000000000000644 ) ) ;
#1193 = FACE_OUTER_BOUND ( 'NONE', #548, .T. ) ;
#1194 = PLANE ( 'NONE',  #710 ) ;
#1195 = VERTEX_POINT ( 'NONE', #346 ) ;
#1196 = VERTEX_POINT ( 'NONE', #922 ) ;
#1197 = ORIENTED_EDGE ( 'NONE', *, *, #236, .F. ) ;
#1198 = CARTESIAN_POINT ( 'NONE',  ( 0.2850000000000005862, 0.3300000000000000155, 0.1499999999999998557 ) ) ;
#1199 = EDGE_CURVE ( 'NONE', #1169, #408, #1238, .T. ) ;
#1200 = AXIS2_PLACEMENT_3D ( 'NONE', #420, #1107, #713 ) ;
#1201 = DIRECTION ( 'NONE',  ( -0.0000000000000000000, -1.000000000000000000, -0.0000000000000000000 ) ) ;
#1202 = CARTESIAN_POINT ( 'NONE',  ( 500000.0000000000582, 0.3250000000000000111, 0.1349999999566316444 ) ) ;
#1203 = ADVANCED_FACE ( 'NONE', ( #731 ), #635, .T. ) ;
#1204 = DIRECTION ( 'NONE',  ( 1.000000000000000000, 0.0000000000000000000, -2.168404344971012812E-15 ) ) ;
#1205 = VECTOR ( 'NONE', #1112, 1000.000000000000000 ) ;
#1206 = CARTESIAN_POINT ( 'NONE',  ( 0.2000000000066393113, 0.3150000000000000022, 0.1449999999999997957 ) ) ;
#1207 = FACE_OUTER_BOUND ( 'NONE', #1228, .T. ) ;
#1208 = ORIENTED_EDGE ( 'NONE', *, *, #852, .T. ) ;
#1209 = MECHANICAL_DESIGN_GEOMETRIC_PRESENTATION_REPRESENTATION (  '', ( #664 ), #1152 ) ;
#1210 = DIRECTION ( 'NONE',  ( 0.0000000000000000000, 0.0000000000000000000, 1.000000000000000000 ) ) ;
#1211 = ORIENTED_EDGE ( 'NONE', *, *, #1023, .F. ) ;
#1212 = ORIENTED_EDGE ( 'NONE', *, *, #480, .T. ) ;
#1213 = CARTESIAN_POINT ( 'NONE',  ( -0.2000000000000005107, 0.01499999999999998557, -0.1349999999999998701 ) ) ;
#1214 = ORIENTED_EDGE ( 'NONE', *, *, #575, .F. ) ;
#1215 = EDGE_CURVE ( 'NONE', #835, #765, #177, .T. ) ;
#1216 = EDGE_CURVE ( 'NONE', #564, #940, #149, .T. ) ;
#1217 = CARTESIAN_POINT ( 'NONE',  ( 0.2000000000000005107, 0.3300000000000000155, 0.1349999999999998701 ) ) ;
#1218 = DIRECTION ( 'NONE',  ( -3.614007241618348376E-15, 0.0000000000000000000, 1.000000000000000000 ) ) ;
#1219 = CARTESIAN_POINT ( 'NONE',  ( 0.2850000000000003642, 0.0000000000000000000, -0.1350000000000000644 ) ) ;
#1220 = FACE_OUTER_BOUND ( 'NONE', #14, .T. ) ;
#1221 = EDGE_CURVE ( 'NONE', #408, #865, #701, .T. ) ;
#1222 = CIRCLE ( 'NONE', #670, 0.009999999999999972453 ) ;
#1223 =( LENGTH_UNIT ( ) NAMED_UNIT ( * ) SI_UNIT ( .MILLI., .METRE. ) );
#1224 = AXIS2_PLACEMENT_3D ( 'NONE', #380, #170, #376 ) ;
#1225 = CIRCLE ( 'NONE', #230, 0.01499999999999999944 ) ;
#1226 = CARTESIAN_POINT ( 'NONE',  ( 0.0000000000000000000, 0.3150000000000000022, 0.1349999999999998701 ) ) ;
#1227 = CARTESIAN_POINT ( 'NONE',  ( -0.2000000000000005107, 0.3250000000000000111, 0.1349999999999997591 ) ) ;
#1228 = EDGE_LOOP ( 'NONE', ( #1263, #1277, #394 ) ) ;
#1229 = DIRECTION ( 'NONE',  ( 0.0000000000000000000, -1.000000000000000000, 0.0000000000000000000 ) ) ;
#1230 = VERTEX_POINT ( 'NONE', #328 ) ;
#1231 = DIRECTION ( 'NONE',  ( -1.000000000000000000, -0.0000000000000000000, -0.0000000000000000000 ) ) ;
#1232 = DIRECTION ( 'NONE',  ( -7.228014483236698528E-16, 0.0000000000000000000, -1.000000000000000000 ) ) ;
#1233 = DIRECTION ( 'NONE',  ( 1.000000000000000000, 0.0000000000000000000, 0.0000000000000000000 ) ) ;
#1234 = EDGE_CURVE ( 'NONE', #564, #424, #1236, .T. ) ;
#1235 = CARTESIAN_POINT ( 'NONE',  ( -0.2000000000000005107, 0.0000000000000000000, 0.1349999999999998701 ) ) ;
#1236 = CIRCLE ( 'NONE', #426, 0.01499999999999998557 ) ;
#1237 = DIRECTION ( 'NONE',  ( -1.000000000000000000, 0.0000000000000000000, 0.0000000000000000000 ) ) ;
#1238 = CIRCLE ( 'NONE', #292, 0.01499999999999999944 ) ;
#1239 = DIRECTION ( 'NONE',  ( 0.0000000000000000000, -0.0000000000000000000, 1.000000000000000000 ) ) ;
#1240 = APPLICATION_PROTOCOL_DEFINITION ( 'draft international standard', 'automotive_design', 1998, #1251 ) ;
#1241 = CARTESIAN_POINT ( 'NONE',  ( 0.3000000000000003775, 0.3300000000000000155, -0.1350000000000000644 ) ) ;
#1242 = VECTOR ( 'NONE', #1036, 1000.000000000000000 ) ;
#1243 = EDGE_CURVE ( 'NONE', #682, #70, #886, .T. ) ;
#1244 = DIRECTION ( 'NONE',  ( 1.000000000000000000, -0.0000000000000000000, -0.0000000000000000000 ) ) ;
#1245 = SPHERICAL_SURFACE ( 'NONE', #131, 0.01499999999999999944 ) ;
#1246 = EDGE_CURVE ( 'NONE', #182, #17, #271, .T. ) ;
#1247 = EDGE_LOOP ( 'NONE', ( #1029, #251, #215, #1004 ) ) ;
#1248 = CARTESIAN_POINT ( 'NONE',  ( -0.2000000000000005107, 0.3300000000000000155, 0.1349999999999998701 ) ) ;
#1249 = ORIENTED_EDGE ( 'NONE', *, *, #1149, .T. ) ;
#1250 = ORIENTED_EDGE ( 'NONE', *, *, #1132, .T. ) ;
#1251 = APPLICATION_CONTEXT ( 'automotive_design' ) ;
#1252 = DIRECTION ( 'NONE',  ( 0.0000000000000000000, 0.0000000000000000000, -1.000000000000000000 ) ) ;
#1253 = AXIS2_PLACEMENT_3D ( 'NONE', #538, #714, #333 ) ;
#1254 = SURFACE_SIDE_STYLE ('',( #469 ) ) ;
#1255 = DIRECTION ( 'NONE',  ( 1.000000000000000000, -0.0000000000000000000, -0.0000000000000000000 ) ) ;
#1256 = CIRCLE ( 'NONE', #976, 0.01499999999999999944 ) ;
#1257 = LINE ( 'NONE', #1081, #221 ) ;
#1258 = CARTESIAN_POINT ( 'NONE',  ( 0.0000000000000000000, 0.0000000000000000000, 0.0000000000000000000 ) ) ;
#1259 = CIRCLE ( 'NONE', #205, 0.01499999999999999944 ) ;
#1260 = CARTESIAN_POINT ( 'NONE',  ( -0.2000000000000005107, 0.01499999999999998730, -0.1449999999999998512 ) ) ;
#1261 = ORIENTED_EDGE ( 'NONE', *, *, #330, .F. ) ;
#1262 = EDGE_CURVE ( 'NONE', #862, #1195, #238, .T. ) ;
#1263 = ORIENTED_EDGE ( 'NONE', *, *, #1234, .T. ) ;
#1264 = ORIENTED_EDGE ( 'NONE', *, *, #267, .F. ) ;
#1265 = DIRECTION ( 'NONE',  ( 0.0000000000000000000, 0.0000000000000000000, -1.000000000000000000 ) ) ;
#1266 = DIRECTION ( 'NONE',  ( -1.000000000000000000, 0.0000000000000000000, -7.228014483236693597E-16 ) ) ;
#1267 = EDGE_CURVE ( 'NONE', #1195, #277, #176, .T. ) ;
#1268 = AXIS2_PLACEMENT_3D ( 'NONE', #197, #988, #18 ) ;
#1269 = LINE ( 'NONE', #462, #334 ) ;
#1270 = DIRECTION ( 'NONE',  ( 1.000000000000000000, 0.0000000000000000000, 0.0000000000000000000 ) ) ;
#1271 = FACE_OUTER_BOUND ( 'NONE', #231, .T. ) ;
#1272 = LINE ( 'NONE', #766, #405 ) ;
#1273 = CARTESIAN_POINT ( 'NONE',  ( 0.2850000000000005862, 0.0000000000000000000, 0.1349999999999998701 ) ) ;
#1274 = DIRECTION ( 'NONE',  ( -0.0000000000000000000, -0.0000000000000000000, 1.000000000000000000 ) ) ;
#1275 = ORIENTED_EDGE ( 'NONE', *, *, #805, .T. ) ;
#1276 = AXIS2_PLACEMENT_3D ( 'NONE', #647, #748, #943 ) ;
#1277 = ORIENTED_EDGE ( 'NONE', *, *, #1078, .T. ) ;
#1278 = ADVANCED_FACE ( 'NONE', ( #932 ), #332, .T. ) ;
#1279 = VERTEX_POINT ( 'NONE', #838 ) ;
#1280 = PRODUCT_DEFINITION_FORMATION_WITH_SPECIFIED_SOURCE ( 'ANY', '', #422, .NOT_KNOWN. ) ;
ENDSEC;
END-ISO-10303-21;
